<svg width="265" height="81" viewBox="0 0 265 81" fill="none" xmlns="http://www.w3.org/2000/svg">
<g clip-path="url(#clip0_13_99)">
<path fill-rule="evenodd" clip-rule="evenodd" d="M0 16.3528L17.892 0.5V10.1282L4.65928 21.8526L4.66797 34.2454L0.0152969 38.3147L0 16.3528Z" fill="url(#paint0_linear_13_99)"/>
<path fill-rule="evenodd" clip-rule="evenodd" d="M5.77563 22.3717L23.6677 6.51874V16.1471L10.4349 27.8717L10.4436 40.2643L5.79093 44.3334L5.77563 22.3717Z" fill="url(#paint1_linear_13_99)"/>
<path fill-rule="evenodd" clip-rule="evenodd" d="M11.542 28.3882L29.4339 12.5352V22.1634L16.2012 33.888L16.2097 46.2808L11.5573 50.3498L11.542 28.3882Z" fill="url(#paint2_linear_13_99)"/>
<path fill-rule="evenodd" clip-rule="evenodd" d="M17.3159 34.4099L35.2079 18.5569V28.1851L21.9752 39.9099L21.9838 52.3025L17.3314 56.3717L17.3159 34.4099Z" fill="url(#paint3_linear_13_99)"/>
<path fill-rule="evenodd" clip-rule="evenodd" d="M23.084 40.4295L40.976 24.5767V34.1648L28.0379 45.6283L28.0467 58.0647L23.0993 62.3912L23.084 40.4295Z" fill="url(#paint4_linear_13_99)"/>
<path fill-rule="evenodd" clip-rule="evenodd" d="M29.1641 46.1501L60.3695 18.5008V28.2053L33.7054 51.8307L33.714 64.1237L29.1793 68.1117L29.1641 46.1501Z" fill="url(#paint5_linear_13_99)"/>
<path fill-rule="evenodd" clip-rule="evenodd" d="M34.801 52.3461L66.0065 24.6968V34.4014L39.3427 58.0267L39.3511 70.3195L34.8165 74.308L34.801 52.3461Z" fill="url(#paint6_linear_13_99)"/>
<path fill-rule="evenodd" clip-rule="evenodd" d="M40.4717 58.539L71.6771 30.8899V53.0694L40.487 80.5008L40.4717 58.539Z" fill="url(#paint7_linear_13_99)"/>
<path fill-rule="evenodd" clip-rule="evenodd" d="M17.8949 11.6336V21.2618L10.4349 27.8714L10.4358 29.2032L5.7831 33.2723L5.77563 22.3715L17.8949 11.6336Z" fill="#E42840" fill-opacity="0.49"/>
<path fill-rule="evenodd" clip-rule="evenodd" d="M23.6612 17.6563V27.2845L16.2012 33.8942L16.2021 35.2259L11.5495 39.295L11.542 28.3942L23.6612 17.6563Z" fill="#E42840" fill-opacity="0.49"/>
<path fill-rule="evenodd" clip-rule="evenodd" d="M29.4351 23.6735V33.3016L21.9752 39.9114L21.976 41.2432L17.3236 45.3123L17.3159 34.4115L29.4351 23.6735Z" fill="#E42840" fill-opacity="0.49"/>
<path fill-rule="evenodd" clip-rule="evenodd" d="M60.3517 29.7101V39.4149L39.3427 58.0294L39.3434 59.1566L34.8087 63.1445L34.801 52.349L60.3517 29.7101Z" fill="#E42840" fill-opacity="0.49"/>
<path fill-rule="evenodd" clip-rule="evenodd" d="M35.2032 29.6921V39.2803L28.0379 45.6291L28.0387 47.0041L23.0916 51.331L23.084 40.4302L35.2032 29.6921Z" fill="#E42840" fill-opacity="0.49"/>
<path fill-rule="evenodd" clip-rule="evenodd" d="M66.022 35.9008V46.8706L40.4792 69.3354L40.4717 58.5395L66.022 35.9008Z" fill="#E42840" fill-opacity="0.49"/>
<mask id="mask0_13_99" style="mask-type:alpha" maskUnits="userSpaceOnUse" x="99" y="18" width="166" height="44">
<path d="M121.05 59.0305C121.05 59.447 121.031 59.7909 120.993 60.0619C120.955 60.3328 120.9 60.5733 120.813 60.7702C120.729 60.9587 120.632 61.1037 120.509 61.1976C120.385 61.2912 120.242 61.3329 120.071 61.3329C111.65 61.3329 99.0994 64.415 99.0994 51.7157V22.6185C99.0994 22.452 99.1374 22.3061 99.2135 22.1915C99.2895 22.0662 99.4132 21.9726 99.6032 21.8997C99.7838 21.8267 100.04 21.7641 100.354 21.7121C100.668 21.6601 101.048 21.6392 101.495 21.6392C101.96 21.6392 102.341 21.6601 102.654 21.7121C102.958 21.7641 103.205 21.8267 103.386 21.8997C103.576 21.9726 103.699 22.0662 103.775 22.1915C103.851 22.3061 103.889 22.452 103.889 22.6185V50.9334C104.023 59.528 113.213 56.7696 120.071 56.7696C120.242 56.7696 120.387 56.8089 120.508 56.9051C120.624 56.9961 120.729 57.1331 120.812 57.3009C120.9 57.4768 120.954 57.7073 120.993 57.9989C121.03 58.2803 121.05 58.6241 121.05 59.0305H121.05ZM147.305 45.6323C147.305 46.4241 147.125 46.987 146.764 47.3309C146.402 47.6643 145.984 47.8309 145.518 47.8309H129.057C129.057 49.3621 129.2 50.7373 129.475 51.9565C129.751 53.1861 130.217 54.2381 130.873 55.1133C131.519 55.9881 132.365 56.655 133.401 57.124C134.446 57.5928 135.72 57.8326 137.221 57.8326C138.409 57.8326 139.474 57.7283 140.396 57.5094C141.327 57.3013 142.135 57.0614 142.81 56.8009C143.485 56.5405 144.046 56.3009 144.482 56.0926C144.92 55.8737 145.243 55.7696 145.471 55.7696C145.604 55.7696 145.718 55.8008 145.823 55.8737C145.918 55.9467 146.003 56.0507 146.051 56.1966C146.108 56.3321 146.155 56.5301 146.184 56.78C146.212 57.0405 146.222 57.3429 146.222 57.7073C146.222 57.9678 146.212 58.1968 146.193 58.3947C146.174 58.5822 146.155 58.7597 146.127 58.9056C146.098 59.0616 146.051 59.1971 145.984 59.3221C145.918 59.4369 145.842 59.5513 145.737 59.6659C145.632 59.7805 145.328 59.9577 144.834 60.2078C144.331 60.4681 143.684 60.7077 142.886 60.9581C142.087 61.1976 141.166 61.4165 140.12 61.604C139.075 61.8019 137.963 61.8958 136.775 61.8958C134.712 61.8958 132.916 61.5833 131.367 60.9475C129.817 60.3222 128.515 59.3848 127.46 58.1451C126.405 56.8949 125.607 55.3427 125.075 53.4672C124.533 51.6024 124.267 49.4249 124.267 46.9349C124.267 44.5805 124.542 42.4549 125.103 40.5693C125.655 38.6941 126.463 37.0899 127.508 35.7768C128.553 34.4641 129.827 33.4638 131.31 32.7558C132.792 32.0576 134.456 31.7035 136.29 31.7035C138.257 31.7035 139.93 32.0473 141.308 32.7453C142.696 33.4331 143.827 34.3705 144.72 35.5376C145.604 36.7043 146.26 38.0797 146.678 39.6632C147.096 41.2365 147.305 42.9241 147.305 44.7161V45.6329V45.6323ZM142.686 44.1425C142.743 41.4963 142.211 39.4126 141.08 37.9019C139.949 36.3913 138.286 35.6409 136.071 35.6409C134.931 35.6409 133.933 35.8704 133.077 36.3392C132.222 36.8081 131.509 37.4331 130.929 38.2147C130.35 38.9856 129.903 39.892 129.589 40.9128C129.276 41.9445 129.095 43.0174 129.057 44.1425H142.686H142.686ZM190.959 60.5723C190.959 60.7392 190.92 60.8742 190.844 60.9891C190.769 61.0934 190.653 61.1976 190.484 61.2809C190.321 61.3539 190.084 61.4165 189.79 61.4581C189.495 61.4995 189.124 61.5205 188.677 61.5205C188.211 61.5205 187.83 61.4995 187.536 61.4581C187.241 61.4165 187.004 61.3539 186.823 61.2809C186.652 61.1976 186.529 61.0934 186.452 60.9891C186.378 60.8745 186.339 60.7392 186.339 60.5723V43.872C186.339 42.7053 186.244 41.6425 186.063 40.6942C185.873 39.7358 185.578 38.9126 185.17 38.2147C184.761 37.527 184.248 36.9957 183.62 36.6312C182.993 36.2665 182.251 36.0792 181.397 36.0792C180.342 36.0792 179.277 36.527 178.222 37.4232C177.159 38.3192 175.979 39.6318 174.707 41.3611V60.5723C174.707 60.7392 174.668 60.8742 174.591 60.9891C174.515 61.0934 174.392 61.1976 174.211 61.2809C174.04 61.3539 173.803 61.4165 173.499 61.4581C173.204 61.4995 172.833 61.5205 172.387 61.5205C171.949 61.5205 171.589 61.4995 171.274 61.4581C170.97 61.4165 170.724 61.3539 170.552 61.2809C170.372 61.1976 170.248 61.0934 170.181 60.9891C170.116 60.8745 170.086 60.7392 170.086 60.5723V43.872C170.086 42.7053 169.982 41.6425 169.782 40.6942C169.573 39.7358 169.269 38.9126 168.861 38.2147C168.453 37.527 167.938 36.9957 167.321 36.6312C166.694 36.2665 165.962 36.0792 165.106 36.0792C164.052 36.0792 162.978 36.527 161.904 37.4232C160.83 38.3192 159.661 39.6318 158.397 41.3611V60.5723C158.397 60.7392 158.358 60.8742 158.283 60.9891C158.207 61.0934 158.093 61.1976 157.921 61.2809C157.75 61.3539 157.522 61.4165 157.218 61.4581C156.924 61.4995 156.543 61.5205 156.077 61.5205C155.621 61.5205 155.25 61.4995 154.956 61.4581C154.651 61.4165 154.414 61.3539 154.243 61.2809C154.062 61.1976 153.939 61.0934 153.872 60.9891C153.806 60.8745 153.777 60.7392 153.777 60.5723V33.0888C153.777 32.9221 153.806 32.7869 153.863 32.672C153.919 32.568 154.024 32.4635 154.196 32.3701C154.367 32.2761 154.575 32.2136 154.841 32.1822C155.098 32.1512 155.45 32.1406 155.878 32.1406C156.286 32.1406 156.627 32.1512 156.894 32.1822C157.17 32.2136 157.379 32.2761 157.532 32.3701C157.673 32.4635 157.787 32.568 157.854 32.672C157.912 32.7865 157.949 32.9221 157.949 33.0888V36.7246C159.355 34.9846 160.735 33.7137 162.065 32.9115C163.387 32.1093 164.735 31.7032 166.085 31.7032C167.131 31.7032 168.061 31.8387 168.889 32.099C169.715 32.3701 170.448 32.7345 171.075 33.2139C171.712 33.6933 172.253 34.2661 172.691 34.9326C173.137 35.5889 173.508 36.3288 173.812 37.1517C174.649 36.1515 175.438 35.3077 176.188 34.6097C176.939 33.9115 177.661 33.3595 178.356 32.9217C179.05 32.4947 179.725 32.1819 180.379 31.9944C181.045 31.7965 181.701 31.7029 182.367 31.7029C183.982 31.7029 185.332 32.0153 186.424 32.6301C187.517 33.255 188.401 34.0888 189.085 35.1201C189.76 36.1622 190.236 37.3808 190.53 38.7769C190.816 40.1731 190.959 41.6419 190.959 43.1944V60.572V60.5723ZM217.066 60.6037C217.066 60.8432 216.99 61.031 216.848 61.156C216.695 61.2809 216.496 61.3645 216.231 61.4269C215.973 61.4894 215.593 61.5205 215.09 61.5205C214.614 61.5205 214.224 61.4894 213.939 61.4269C213.654 61.3645 213.445 61.2809 213.312 61.156C213.178 61.031 213.113 60.8539 213.113 60.6037V57.8533C212.019 59.1349 210.803 60.1349 209.453 60.8435C208.104 61.5414 206.678 61.8958 205.177 61.8958C203.855 61.8958 202.658 61.7083 201.593 61.3329C200.529 60.9581 199.617 60.4057 198.865 59.6973C198.116 58.9886 197.526 58.1032 197.107 57.0718C196.689 56.0301 196.48 54.8528 196.48 53.5296C196.48 51.9774 196.766 50.6336 197.345 49.4979C197.914 48.3517 198.742 47.4038 199.826 46.6536C200.9 45.9033 202.22 45.3304 203.779 44.9553C205.338 44.5805 207.096 44.3929 209.044 44.3929H212.505V42.2469C212.505 41.1945 212.401 40.2568 212.201 39.4339C211.991 38.6214 211.668 37.9441 211.211 37.4025C210.756 36.8608 210.167 36.4544 209.444 36.1835C208.722 35.9021 207.829 35.7667 206.773 35.7667C205.643 35.7667 204.625 35.9126 203.732 36.2149C202.829 36.5169 202.041 36.8398 201.366 37.2046C200.691 37.5691 200.12 37.8921 199.663 38.1944C199.218 38.4965 198.876 38.6424 198.656 38.6424C198.505 38.6424 198.371 38.6008 198.267 38.5174C198.153 38.4445 198.058 38.3195 197.972 38.1529C197.886 37.9965 197.83 37.788 197.791 37.5381C197.754 37.2776 197.735 37.0067 197.735 36.6942C197.735 36.1942 197.763 35.7878 197.83 35.496C197.896 35.2041 198.058 34.923 198.306 34.6627C198.552 34.4022 198.99 34.0897 199.598 33.7249C200.206 33.3705 200.918 33.0374 201.716 32.7352C202.505 32.4433 203.38 32.1933 204.331 31.9953C205.272 31.7974 206.231 31.7038 207.191 31.7038C208.988 31.7038 210.518 31.9224 211.782 32.3705C213.046 32.8185 214.062 33.4854 214.842 34.3502C215.621 35.2149 216.182 36.2878 216.535 37.5691C216.885 38.8507 217.066 40.351 217.066 42.0597V60.604V60.6037ZM212.505 48.0182H208.578C207.325 48.0182 206.231 48.1328 205.3 48.3726C204.379 48.6017 203.607 48.956 202.99 49.4144C202.382 49.8728 201.935 50.4144 201.642 51.0603C201.356 51.7065 201.213 52.4462 201.213 53.2793C201.213 54.7069 201.621 55.8422 202.449 56.6862C203.275 57.5301 204.426 57.9573 205.917 57.9573C207.116 57.9573 208.237 57.6238 209.264 56.9465C210.29 56.2798 211.373 55.2481 212.505 53.8627V48.0181V48.0182ZM239.591 34.8704C239.591 35.3184 239.582 35.6937 239.563 35.9957C239.544 36.2977 239.505 36.5376 239.449 36.7145C239.401 36.8918 239.325 37.0168 239.239 37.1104C239.164 37.2043 239.05 37.2459 238.897 37.2459C238.745 37.2459 238.565 37.2043 238.355 37.1104C238.137 37.0168 237.9 36.923 237.633 36.8395C237.367 36.7459 237.063 36.6625 236.731 36.579C236.397 36.4957 236.037 36.4541 235.647 36.4541C235.181 36.4541 234.725 36.5584 234.279 36.7565C233.841 36.9645 233.367 37.2979 232.88 37.7773C232.386 38.2462 231.873 38.8713 231.332 39.6424C230.799 40.4237 230.201 41.3715 229.554 42.4968V60.5726C229.554 60.7395 229.516 60.8745 229.44 60.9894C229.364 61.0937 229.25 61.1979 229.08 61.2813C228.909 61.3542 228.681 61.4168 228.375 61.4582C228.081 61.4998 227.7 61.5208 227.236 61.5208C226.779 61.5208 226.408 61.4998 226.114 61.4582C225.81 61.4168 225.573 61.3542 225.401 61.2813C225.22 61.1979 225.097 61.0937 225.03 60.9894C224.965 60.8749 224.935 60.7395 224.935 60.5726V33.0891C224.935 32.9222 224.965 32.7872 225.021 32.6723C225.078 32.5683 225.183 32.4638 225.354 32.3702C225.524 32.2765 225.733 32.2139 226 32.1825C226.257 32.1513 226.608 32.1409 227.036 32.1409C227.445 32.1409 227.786 32.1513 228.053 32.1825C228.329 32.2139 228.538 32.2765 228.69 32.3702C228.832 32.4638 228.946 32.5683 229.013 32.6723C229.069 32.7869 229.108 32.9222 229.108 33.0891V37.0897C229.792 35.9856 230.438 35.0896 231.036 34.3913C231.646 33.7037 232.215 33.1517 232.748 32.7558C233.29 32.3598 233.822 32.0889 234.344 31.9325C234.877 31.7761 235.409 31.7035 235.951 31.7035C236.188 31.7035 236.464 31.7136 236.768 31.7451C237.072 31.7761 237.395 31.8389 237.728 31.9117C238.06 31.995 238.364 32.0889 238.631 32.1929C238.897 32.2973 239.088 32.3909 239.201 32.4953C239.315 32.5993 239.392 32.6933 239.42 32.7869C239.459 32.8808 239.496 32.9953 239.524 33.1307C239.554 33.2766 239.572 33.4851 239.582 33.7557C239.591 34.0368 239.591 34.4016 239.591 34.8704ZM264.264 60.5411C264.264 60.7077 264.227 60.8537 264.15 60.9681C264.074 61.0934 263.951 61.1976 263.779 61.2809C263.599 61.3539 263.352 61.4165 263.039 61.4581C262.726 61.4995 262.325 61.5205 261.842 61.5205C261.346 61.5205 260.928 61.5101 260.606 61.4789C260.283 61.4475 260.007 61.3955 259.787 61.3225C259.56 61.2496 259.379 61.1456 259.246 61.0205C259.105 60.8851 258.98 60.7286 258.866 60.5411L248.297 45.3307V60.5726C248.297 60.7395 248.26 60.8745 248.183 60.9894C248.107 61.0937 247.993 61.1979 247.822 61.2813C247.652 61.3542 247.423 61.4168 247.119 61.4582C246.824 61.4998 246.444 61.5208 245.978 61.5208C245.522 61.5208 245.151 61.4998 244.857 61.4582C244.553 61.4168 244.316 61.3542 244.144 61.2813C243.964 61.1979 243.84 61.0937 243.773 60.9894C243.706 60.8749 243.678 60.7395 243.678 60.5726V19.8059C243.678 19.6393 243.706 19.4934 243.773 19.3789C243.84 19.2539 243.964 19.1494 244.144 19.0664C244.314 18.9934 244.553 18.9309 244.857 18.8891C245.151 18.8475 245.522 18.8265 245.978 18.8265C246.444 18.8265 246.824 18.8475 247.119 18.8891C247.423 18.9309 247.652 18.9934 247.822 19.0664C247.993 19.1494 248.107 19.2539 248.183 19.3789C248.26 19.4934 248.297 19.6393 248.297 19.8059V44.6328L257.736 33.2144C257.887 33.0061 258.049 32.8392 258.21 32.704C258.381 32.5787 258.581 32.4641 258.808 32.3705C259.037 32.2768 259.313 32.2142 259.627 32.1829C259.94 32.1517 260.32 32.1413 260.768 32.1413C261.232 32.1413 261.622 32.1517 261.937 32.1829C262.25 32.2142 262.506 32.2662 262.696 32.3392C262.886 32.4121 263.03 32.5061 263.115 32.6101C263.2 32.7246 263.238 32.8705 263.238 33.0581C263.238 33.2979 263.181 33.5478 263.058 33.7873C262.935 34.0374 262.744 34.3187 262.459 34.6417L253.43 44.6016L263.599 59.1038C263.837 59.4577 264.009 59.7288 264.113 59.9477C264.217 60.1665 264.264 60.3645 264.264 60.5414V60.5411Z" fill="white"/>
</mask>
<g mask="url(#mask0_13_99)">
<path d="M121.05 59.0305C121.05 59.447 121.031 59.7909 120.993 60.0619C120.955 60.3328 120.9 60.5733 120.813 60.7702C120.729 60.9587 120.632 61.1037 120.509 61.1976C120.385 61.2912 120.242 61.3329 120.071 61.3329C111.65 61.3329 99.0994 64.415 99.0994 51.7157V22.6185C99.0994 22.452 99.1374 22.3061 99.2135 22.1915C99.2895 22.0662 99.4132 21.9726 99.6032 21.8997C99.7838 21.8267 100.04 21.7641 100.354 21.7121C100.668 21.6601 101.048 21.6392 101.495 21.6392C101.96 21.6392 102.341 21.6601 102.654 21.7121C102.958 21.7641 103.205 21.8267 103.386 21.8997C103.576 21.9726 103.699 22.0662 103.775 22.1915C103.851 22.3061 103.889 22.452 103.889 22.6185V50.9334C104.023 59.528 113.213 56.7696 120.071 56.7696C120.242 56.7696 120.387 56.8089 120.508 56.9051C120.624 56.9961 120.729 57.1331 120.812 57.3009C120.9 57.4768 120.954 57.7073 120.993 57.9989C121.03 58.2803 121.05 58.6241 121.05 59.0305H121.05ZM147.305 45.6323C147.305 46.4241 147.125 46.987 146.764 47.3309C146.402 47.6643 145.984 47.8309 145.518 47.8309H129.057C129.057 49.3621 129.2 50.7373 129.475 51.9565C129.751 53.1861 130.217 54.2381 130.873 55.1133C131.519 55.9881 132.365 56.655 133.401 57.124C134.446 57.5928 135.72 57.8326 137.221 57.8326C138.409 57.8326 139.474 57.7283 140.396 57.5094C141.327 57.3013 142.135 57.0614 142.81 56.8009C143.485 56.5405 144.046 56.3009 144.482 56.0926C144.92 55.8737 145.243 55.7696 145.471 55.7696C145.604 55.7696 145.718 55.8008 145.823 55.8737C145.918 55.9467 146.003 56.0507 146.051 56.1966C146.108 56.3321 146.155 56.5301 146.184 56.78C146.212 57.0405 146.222 57.3429 146.222 57.7073C146.222 57.9678 146.212 58.1968 146.193 58.3947C146.174 58.5822 146.155 58.7597 146.127 58.9056C146.098 59.0616 146.051 59.1971 145.984 59.3221C145.918 59.4369 145.842 59.5513 145.737 59.6659C145.632 59.7805 145.328 59.9577 144.834 60.2078C144.331 60.4681 143.684 60.7077 142.886 60.9581C142.087 61.1976 141.166 61.4165 140.12 61.604C139.075 61.8019 137.963 61.8958 136.775 61.8958C134.712 61.8958 132.916 61.5833 131.367 60.9475C129.817 60.3222 128.515 59.3848 127.46 58.1451C126.405 56.8949 125.607 55.3427 125.075 53.4672C124.533 51.6024 124.267 49.4249 124.267 46.9349C124.267 44.5805 124.542 42.4549 125.103 40.5693C125.655 38.6941 126.463 37.0899 127.508 35.7768C128.553 34.4641 129.827 33.4638 131.31 32.7558C132.792 32.0576 134.456 31.7035 136.29 31.7035C138.257 31.7035 139.93 32.0473 141.308 32.7453C142.696 33.4331 143.827 34.3705 144.72 35.5376C145.604 36.7043 146.26 38.0797 146.678 39.6632C147.096 41.2365 147.305 42.9241 147.305 44.7161V45.6329V45.6323ZM142.686 44.1425C142.743 41.4963 142.211 39.4126 141.08 37.9019C139.949 36.3913 138.286 35.6409 136.071 35.6409C134.931 35.6409 133.933 35.8704 133.077 36.3392C132.222 36.8081 131.509 37.4331 130.929 38.2147C130.35 38.9856 129.903 39.892 129.589 40.9128C129.276 41.9445 129.095 43.0174 129.057 44.1425H142.686H142.686ZM190.959 60.5723C190.959 60.7392 190.92 60.8742 190.844 60.9891C190.769 61.0934 190.653 61.1976 190.484 61.2809C190.321 61.3539 190.084 61.4165 189.79 61.4581C189.495 61.4995 189.124 61.5205 188.677 61.5205C188.211 61.5205 187.83 61.4995 187.536 61.4581C187.241 61.4165 187.004 61.3539 186.823 61.2809C186.652 61.1976 186.529 61.0934 186.452 60.9891C186.378 60.8745 186.339 60.7392 186.339 60.5723V43.872C186.339 42.7053 186.244 41.6425 186.063 40.6942C185.873 39.7358 185.578 38.9126 185.17 38.2147C184.761 37.527 184.248 36.9957 183.62 36.6312C182.993 36.2665 182.251 36.0792 181.397 36.0792C180.342 36.0792 179.277 36.527 178.222 37.4232C177.159 38.3192 175.979 39.6318 174.707 41.3611V60.5723C174.707 60.7392 174.668 60.8742 174.591 60.9891C174.515 61.0934 174.392 61.1976 174.211 61.2809C174.04 61.3539 173.803 61.4165 173.499 61.4581C173.204 61.4995 172.833 61.5205 172.387 61.5205C171.949 61.5205 171.589 61.4995 171.274 61.4581C170.97 61.4165 170.724 61.3539 170.552 61.2809C170.372 61.1976 170.248 61.0934 170.181 60.9891C170.116 60.8745 170.086 60.7392 170.086 60.5723V43.872C170.086 42.7053 169.982 41.6425 169.782 40.6942C169.573 39.7358 169.269 38.9126 168.861 38.2147C168.453 37.527 167.938 36.9957 167.321 36.6312C166.694 36.2665 165.962 36.0792 165.106 36.0792C164.052 36.0792 162.978 36.527 161.904 37.4232C160.83 38.3192 159.661 39.6318 158.397 41.3611V60.5723C158.397 60.7392 158.358 60.8742 158.283 60.9891C158.207 61.0934 158.093 61.1976 157.921 61.2809C157.75 61.3539 157.522 61.4165 157.218 61.4581C156.924 61.4995 156.543 61.5205 156.077 61.5205C155.621 61.5205 155.25 61.4995 154.956 61.4581C154.651 61.4165 154.414 61.3539 154.243 61.2809C154.062 61.1976 153.939 61.0934 153.872 60.9891C153.806 60.8745 153.777 60.7392 153.777 60.5723V33.0888C153.777 32.9221 153.806 32.7869 153.863 32.672C153.919 32.568 154.024 32.4635 154.196 32.3701C154.367 32.2761 154.575 32.2136 154.841 32.1822C155.098 32.1512 155.45 32.1406 155.878 32.1406C156.286 32.1406 156.627 32.1512 156.894 32.1822C157.17 32.2136 157.379 32.2761 157.532 32.3701C157.673 32.4635 157.787 32.568 157.854 32.672C157.912 32.7865 157.949 32.9221 157.949 33.0888V36.7246C159.355 34.9846 160.735 33.7137 162.065 32.9115C163.387 32.1093 164.735 31.7032 166.085 31.7032C167.131 31.7032 168.061 31.8387 168.889 32.099C169.715 32.3701 170.448 32.7345 171.075 33.2139C171.712 33.6933 172.253 34.2661 172.691 34.9326C173.137 35.5889 173.508 36.3288 173.812 37.1517C174.649 36.1515 175.438 35.3077 176.188 34.6097C176.939 33.9115 177.661 33.3595 178.356 32.9217C179.05 32.4947 179.725 32.1819 180.379 31.9944C181.045 31.7965 181.701 31.7029 182.367 31.7029C183.982 31.7029 185.332 32.0153 186.424 32.6301C187.517 33.255 188.401 34.0888 189.085 35.1201C189.76 36.1622 190.236 37.3808 190.53 38.7769C190.816 40.1731 190.959 41.6419 190.959 43.1944V60.572V60.5723ZM217.066 60.6037C217.066 60.8432 216.99 61.031 216.848 61.156C216.695 61.2809 216.496 61.3645 216.231 61.4269C215.973 61.4894 215.593 61.5205 215.09 61.5205C214.614 61.5205 214.224 61.4894 213.939 61.4269C213.654 61.3645 213.445 61.2809 213.312 61.156C213.178 61.031 213.113 60.8539 213.113 60.6037V57.8533C212.019 59.1349 210.803 60.1349 209.453 60.8435C208.104 61.5414 206.678 61.8958 205.177 61.8958C203.855 61.8958 202.658 61.7083 201.593 61.3329C200.529 60.9581 199.617 60.4057 198.865 59.6973C198.116 58.9886 197.526 58.1032 197.107 57.0718C196.689 56.0301 196.48 54.8528 196.48 53.5296C196.48 51.9774 196.766 50.6336 197.345 49.4979C197.914 48.3517 198.742 47.4038 199.826 46.6536C200.9 45.9033 202.22 45.3304 203.779 44.9553C205.338 44.5805 207.096 44.3929 209.044 44.3929H212.505V42.2469C212.505 41.1945 212.401 40.2568 212.201 39.4339C211.991 38.6214 211.668 37.9441 211.211 37.4025C210.756 36.8608 210.167 36.4544 209.444 36.1835C208.722 35.9021 207.829 35.7667 206.773 35.7667C205.643 35.7667 204.625 35.9126 203.732 36.2149C202.829 36.5169 202.041 36.8398 201.366 37.2046C200.691 37.5691 200.12 37.8921 199.663 38.1944C199.218 38.4965 198.876 38.6424 198.656 38.6424C198.505 38.6424 198.371 38.6008 198.267 38.5174C198.153 38.4445 198.058 38.3195 197.972 38.1529C197.886 37.9965 197.83 37.788 197.791 37.5381C197.754 37.2776 197.735 37.0067 197.735 36.6942C197.735 36.1942 197.763 35.7878 197.83 35.496C197.896 35.2041 198.058 34.923 198.306 34.6627C198.552 34.4022 198.99 34.0897 199.598 33.7249C200.206 33.3705 200.918 33.0374 201.716 32.7352C202.505 32.4433 203.38 32.1933 204.331 31.9953C205.272 31.7974 206.231 31.7038 207.191 31.7038C208.988 31.7038 210.518 31.9224 211.782 32.3705C213.046 32.8185 214.062 33.4854 214.842 34.3502C215.621 35.2149 216.182 36.2878 216.535 37.5691C216.885 38.8507 217.066 40.351 217.066 42.0597V60.604V60.6037ZM212.505 48.0182H208.578C207.325 48.0182 206.231 48.1328 205.3 48.3726C204.379 48.6017 203.607 48.956 202.99 49.4144C202.382 49.8728 201.935 50.4144 201.642 51.0603C201.356 51.7065 201.213 52.4462 201.213 53.2793C201.213 54.7069 201.621 55.8422 202.449 56.6862C203.275 57.5301 204.426 57.9573 205.917 57.9573C207.116 57.9573 208.237 57.6238 209.264 56.9465C210.29 56.2798 211.373 55.2481 212.505 53.8627V48.0181V48.0182ZM239.591 34.8704C239.591 35.3184 239.582 35.6937 239.563 35.9957C239.544 36.2977 239.505 36.5376 239.449 36.7145C239.401 36.8918 239.325 37.0168 239.239 37.1104C239.164 37.2043 239.05 37.2459 238.897 37.2459C238.745 37.2459 238.565 37.2043 238.355 37.1104C238.137 37.0168 237.9 36.923 237.633 36.8395C237.367 36.7459 237.063 36.6625 236.731 36.579C236.397 36.4957 236.037 36.4541 235.647 36.4541C235.181 36.4541 234.725 36.5584 234.279 36.7565C233.841 36.9645 233.367 37.2979 232.88 37.7773C232.386 38.2462 231.873 38.8713 231.332 39.6424C230.799 40.4237 230.201 41.3715 229.554 42.4968V60.5726C229.554 60.7395 229.516 60.8745 229.44 60.9894C229.364 61.0937 229.25 61.1979 229.08 61.2813C228.909 61.3542 228.681 61.4168 228.375 61.4582C228.081 61.4998 227.7 61.5208 227.236 61.5208C226.779 61.5208 226.408 61.4998 226.114 61.4582C225.81 61.4168 225.573 61.3542 225.401 61.2813C225.22 61.1979 225.097 61.0937 225.03 60.9894C224.965 60.8749 224.935 60.7395 224.935 60.5726V33.0891C224.935 32.9222 224.965 32.7872 225.021 32.6723C225.078 32.5683 225.183 32.4638 225.354 32.3702C225.524 32.2765 225.733 32.2139 226 32.1825C226.257 32.1513 226.608 32.1409 227.036 32.1409C227.445 32.1409 227.786 32.1513 228.053 32.1825C228.329 32.2139 228.538 32.2765 228.69 32.3702C228.832 32.4638 228.946 32.5683 229.013 32.6723C229.069 32.7869 229.108 32.9222 229.108 33.0891V37.0897C229.792 35.9856 230.438 35.0896 231.036 34.3913C231.646 33.7037 232.215 33.1517 232.748 32.7558C233.29 32.3598 233.822 32.0889 234.344 31.9325C234.877 31.7761 235.409 31.7035 235.951 31.7035C236.188 31.7035 236.464 31.7136 236.768 31.7451C237.072 31.7761 237.395 31.8389 237.728 31.9117C238.06 31.995 238.364 32.0889 238.631 32.1929C238.897 32.2973 239.088 32.3909 239.201 32.4953C239.315 32.5993 239.392 32.6933 239.42 32.7869C239.459 32.8808 239.496 32.9953 239.524 33.1307C239.554 33.2766 239.572 33.4851 239.582 33.7557C239.591 34.0368 239.591 34.4016 239.591 34.8704ZM264.264 60.5411C264.264 60.7077 264.227 60.8537 264.15 60.9681C264.074 61.0934 263.951 61.1976 263.779 61.2809C263.599 61.3539 263.352 61.4165 263.039 61.4581C262.726 61.4995 262.325 61.5205 261.842 61.5205C261.346 61.5205 260.928 61.5101 260.606 61.4789C260.283 61.4475 260.007 61.3955 259.787 61.3225C259.56 61.2496 259.379 61.1456 259.246 61.0205C259.105 60.8851 258.98 60.7286 258.866 60.5411L248.297 45.3307V60.5726C248.297 60.7395 248.26 60.8745 248.183 60.9894C248.107 61.0937 247.993 61.1979 247.822 61.2813C247.652 61.3542 247.423 61.4168 247.119 61.4582C246.824 61.4998 246.444 61.5208 245.978 61.5208C245.522 61.5208 245.151 61.4998 244.857 61.4582C244.553 61.4168 244.316 61.3542 244.144 61.2813C243.964 61.1979 243.84 61.0937 243.773 60.9894C243.706 60.8749 243.678 60.7395 243.678 60.5726V19.8059C243.678 19.6393 243.706 19.4934 243.773 19.3789C243.84 19.2539 243.964 19.1494 244.144 19.0664C244.314 18.9934 244.553 18.9309 244.857 18.8891C245.151 18.8475 245.522 18.8265 245.978 18.8265C246.444 18.8265 246.824 18.8475 247.119 18.8891C247.423 18.9309 247.652 18.9934 247.822 19.0664C247.993 19.1494 248.107 19.2539 248.183 19.3789C248.26 19.4934 248.297 19.6393 248.297 19.8059V44.6328L257.736 33.2144C257.887 33.0061 258.049 32.8392 258.21 32.704C258.381 32.5787 258.581 32.4641 258.808 32.3705C259.037 32.2768 259.313 32.2142 259.627 32.1829C259.94 32.1517 260.32 32.1413 260.768 32.1413C261.232 32.1413 261.622 32.1517 261.937 32.1829C262.25 32.2142 262.506 32.2662 262.696 32.3392C262.886 32.4121 263.03 32.5061 263.115 32.6101C263.2 32.7246 263.238 32.8705 263.238 33.0581C263.238 33.2979 263.181 33.5478 263.058 33.7873C262.935 34.0374 262.744 34.3187 262.459 34.6417L253.43 44.6016L263.599 59.1038C263.837 59.4577 264.009 59.7288 264.113 59.9477C264.217 60.1665 264.264 60.3645 264.264 60.5414V60.5411Z" fill="#222222" fill-opacity="0.9" stroke="black" stroke-width="0.2"/>
</g>
</g>
<defs>
<linearGradient id="paint0_linear_13_99" x1="0.00556249" y1="22.6798" x2="17.892" y2="22.6798" gradientUnits="userSpaceOnUse">
<stop stop-color="#E42038"/>
<stop offset="1" stop-color="#E67B95"/>
</linearGradient>
<linearGradient id="paint1_linear_13_99" x1="5.7812" y1="28.6985" x2="23.6677" y2="28.6985" gradientUnits="userSpaceOnUse">
<stop stop-color="#E42038"/>
<stop offset="1" stop-color="#E67B95"/>
</linearGradient>
<linearGradient id="paint2_linear_13_99" x1="11.5476" y1="34.715" x2="29.4339" y2="34.715" gradientUnits="userSpaceOnUse">
<stop stop-color="#E42038"/>
<stop offset="1" stop-color="#E67B95"/>
</linearGradient>
<linearGradient id="paint3_linear_13_99" x1="17.3215" y1="40.7368" x2="35.2079" y2="40.7368" gradientUnits="userSpaceOnUse">
<stop stop-color="#E42038"/>
<stop offset="1" stop-color="#E67B95"/>
</linearGradient>
<linearGradient id="paint4_linear_13_99" x1="23.0896" y1="46.7565" x2="40.976" y2="46.7565" gradientUnits="userSpaceOnUse">
<stop stop-color="#E42038"/>
<stop offset="1" stop-color="#E67B95"/>
</linearGradient>
<linearGradient id="paint5_linear_13_99" x1="29.1737" y1="47.5997" x2="60.3695" y2="47.5997" gradientUnits="userSpaceOnUse">
<stop stop-color="#E42038"/>
<stop offset="1" stop-color="#E67B95"/>
</linearGradient>
<linearGradient id="paint6_linear_13_99" x1="34.8107" y1="53.7958" x2="66.0065" y2="53.7958" gradientUnits="userSpaceOnUse">
<stop stop-color="#E42038"/>
<stop offset="1" stop-color="#E67B95"/>
</linearGradient>
<linearGradient id="paint7_linear_13_99" x1="40.4813" y1="59.9886" x2="71.6771" y2="59.9886" gradientUnits="userSpaceOnUse">
<stop stop-color="#E42038"/>
<stop offset="1" stop-color="#E67B95"/>
</linearGradient>
<clipPath id="clip0_13_99">
<rect width="265" height="80" fill="white" transform="translate(0 0.5)"/>
</clipPath>
</defs>
</svg>
