<svg width="223" height="77" viewBox="0 0 223 77" fill="none" xmlns="http://www.w3.org/2000/svg">
<g clip-path="url(#clip0_10_388)">
<path d="M0.83252 0.463806V52.0744M157.017 0.463806V52.0744" stroke="#007DC3" stroke-width="1.979"/>
<path fill-rule="evenodd" clip-rule="evenodd" d="M19.4095 17.4562L14.6128 1.08203C14.4991 0.70867 14.2243 0.541687 13.7515 0.541687H10.223C9.7498 0.541687 9.475 0.70867 9.35999 1.08203L4.5633 17.4562C4.4057 17.911 4.58393 18.0453 4.92545 18.0453L7.4781 18.0341C7.78889 18.0341 7.8464 18.0341 8.02067 17.6361L8.71733 15.2984C8.83541 14.9273 9.03164 14.6743 9.47237 14.6743H14.5013C14.9407 14.6743 15.1343 14.9268 15.2537 15.2984L15.9525 17.6361C16.1246 18.0341 16.1848 18.0341 16.4956 18.0341L19.0478 18.0453C19.3897 18.0458 19.5688 17.911 19.4095 17.4562ZM13.7778 11.5482H10.212C9.89686 11.5482 9.89027 11.2156 9.96358 11.0088L11.5637 5.20332C11.9069 3.95118 12.0729 3.95118 12.4232 5.22436L14.0171 11.011C14.0908 11.2178 14.093 11.5482 13.7778 11.5482ZM85.4903 17.4562L80.6958 1.08203C80.5808 0.70867 80.306 0.541687 79.8306 0.541687H76.3048C75.8316 0.541687 75.5546 0.70867 75.4431 1.08203L70.6464 17.4562C70.487 17.911 70.6639 18.0453 71.0072 18.0453L73.5576 18.0341C73.8684 18.0341 73.9286 18.0341 74.1029 17.6361L74.7995 15.2984C74.9176 14.9273 75.1147 14.6743 75.5519 14.6743H80.583C81.0211 14.6743 81.2174 14.9268 81.3359 15.2984L82.0347 17.6361C82.2072 18.0341 82.2669 18.0341 82.5773 18.0341L85.1282 18.0453C85.4719 18.0458 85.6506 17.911 85.4903 17.4562ZM79.8605 11.5482H76.2938C75.9786 11.5482 75.972 11.2156 76.0462 11.0088L77.6454 5.20332C77.9887 3.95118 78.1546 3.95118 78.5058 5.22436L80.0997 11.011C80.1726 11.2178 80.1748 11.5482 79.8605 11.5482ZM139.16 17.4562L134.362 1.08203C134.249 0.70867 133.974 0.541687 133.499 0.541687H129.975C129.499 0.541687 129.225 0.70867 129.111 1.08203L124.313 17.4562C124.156 17.911 124.335 18.0453 124.675 18.0453L127.228 18.0341C127.538 18.0341 127.597 18.0341 127.771 17.6361L128.467 15.2984C128.586 14.9273 128.783 14.6743 129.224 14.6743H134.252C134.691 14.6743 134.887 14.9268 135.003 15.2984L135.703 17.6361C135.876 18.0341 135.936 18.0341 136.246 18.0341L138.797 18.0453C139.141 18.0458 139.319 17.911 139.16 17.4562ZM133.53 11.5482H129.962C129.648 11.5482 129.642 11.2156 129.714 11.0088L131.314 5.20332C131.659 3.95118 131.822 3.95118 132.174 5.22436L133.768 11.011C133.841 11.2178 133.844 11.5482 133.53 11.5482ZM29.6789 7.74611C29.6789 7.40051 30.9067 7.01327 30.9067 4.71938C30.9067 2.42863 28.484 0.542582 26.93 0.542582H21.2624C20.6663 0.542582 20.5807 0.607047 20.5807 1.19216L20.5763 17.3049C20.5763 17.7754 20.5785 18.0355 21.1987 18.0355H29.4392C30.2364 18.0355 33.4453 17.1079 33.4453 13.0725C33.4462 8.70234 29.6789 8.23094 29.6789 7.74611ZM23.4485 3.76315C23.4485 3.47843 23.4788 3.43948 23.6689 3.43948H25.801C26.1249 3.43948 27.7979 3.61721 27.7979 5.21227C27.7979 6.80331 25.9796 7.02491 25.7584 7.02491H23.6803C23.4485 7.02491 23.4485 6.99894 23.4485 6.72362V3.76315ZM27.1034 14.9496H23.8234C23.4573 14.9496 23.4573 14.9129 23.4573 14.5172V10.4841C23.4573 10.0736 23.5064 10.019 23.8071 10.019H27.1732C27.6824 10.019 30.3246 10.2737 30.3246 12.551C30.3246 14.8283 27.4568 14.9496 27.1034 14.9496ZM35.3948 0.552431H43.8047C44.2138 0.552431 44.4412 0.711356 44.2964 1.08293C44.1515 1.45226 43.3631 3.01016 43.1945 3.2828C43.0247 3.55633 42.7459 3.5429 42.4465 3.5429H38.2126C37.9158 3.5429 37.616 3.6293 37.616 3.94983V6.53515C37.616 6.85434 37.6713 7.14802 38.051 7.14802H42.4039C42.7169 7.14802 43.0225 7.17667 43.0225 7.56301V9.31073C43.0225 9.60978 42.9307 9.74453 42.6006 9.74453H38.0019C37.7771 9.74453 37.5603 9.93613 37.5603 10.2885V14.4406C37.5603 14.7934 37.8329 15.0387 38.1481 15.0387H45.5703C45.9171 15.0387 46.1629 15.289 46.1629 15.6426V17.4307C46.1629 17.9289 45.8499 18.0198 45.5839 18.0198H35.1683C34.8518 18.0198 34.6082 17.95 34.6082 17.4486V0.980856C34.6086 0.611524 34.879 0.552431 35.3948 0.552431Z" fill="#0A7EC2"/>
<path fill-rule="evenodd" clip-rule="evenodd" d="M53.0253 3.5241H56.2259C56.635 3.5241 56.8628 3.36518 56.7166 2.99316C56.574 2.62428 55.7834 1.06861 55.6161 0.792842C55.4458 0.520208 55.1675 0.533638 54.8686 0.533638H46.384C46.0846 0.533638 45.8063 0.520208 45.636 0.792842C45.467 1.06861 44.6782 2.62428 44.5337 2.99316C44.3897 3.36473 44.6158 3.5241 45.0263 3.5241H48.3519C48.7962 3.5241 48.9191 3.60289 48.9191 4.13428V17.4293C48.9191 17.9209 48.9727 18.0373 49.3392 18.0373H51.8177C52.2202 18.0373 52.3247 17.9871 52.3247 17.4293V4.13428C52.3242 3.64184 52.4761 3.5241 53.0253 3.5241ZM144.56 3.5241H147.762C148.17 3.5241 148.396 3.36518 148.25 2.99316C148.108 2.62428 147.321 1.06861 147.151 0.792842C146.981 0.520208 146.702 0.533638 146.403 0.533638H137.918C137.621 0.533638 137.342 0.520208 137.172 0.792842C137.001 1.06861 136.212 2.62428 136.068 2.99316C135.924 3.36473 136.151 3.5241 136.561 3.5241H139.886C140.329 3.5241 140.454 3.60289 140.454 4.13428V17.4293C140.454 17.9209 140.508 18.0373 140.875 18.0373H143.352C143.753 18.0373 143.858 17.9871 143.858 17.4293V4.13428C143.858 3.64184 144.011 3.5241 144.56 3.5241ZM64.7209 14.3936V1.0986C64.7209 0.606162 64.67 0.490662 64.3043 0.490662H61.8233C61.422 0.490662 61.3162 0.540354 61.3162 1.0986V17.5251C61.3162 17.9965 61.433 18.0341 62.1319 18.0341H68.3794C68.8526 18.0341 69.2121 18.0968 69.364 17.6885C69.5168 17.2793 69.8065 15.9081 69.871 15.6194C69.9781 15.1524 69.9136 15.0746 69.0962 15.0746H65.7639C65.206 15.0741 64.7209 14.9693 64.7209 14.3936ZM108.485 1.12323C108.485 0.631679 108.317 0.515284 107.95 0.515284H105.715C105.314 0.515284 105.08 0.564976 105.08 1.12323V17.4427C105.08 17.9365 105.249 18.0511 105.615 18.0511H107.85C108.253 18.0511 108.487 18.0032 108.487 17.4427L108.485 1.12323ZM152.651 1.12323C152.651 0.631679 152.485 0.515284 152.114 0.515284H149.881C149.479 0.515284 149.244 0.564976 149.244 1.12323L149.246 17.4427C149.246 17.9365 149.414 18.0511 149.781 18.0511H152.014C152.417 18.0511 152.651 18.0032 152.651 17.4427V1.12323ZM96.4339 17.3035C96.5919 16.7842 98.5436 9.61292 98.7605 8.56447C98.9075 7.84953 99.4102 7.84953 99.4102 8.53313V17.4423L99.4124 17.4445C99.4124 17.9361 99.5779 18.0476 99.9431 18.0476H102.178C102.583 18.0476 102.817 18.0019 102.817 17.4445V1.15367C102.817 0.503197 102.489 0.503197 101.821 0.503197H98.9413C98.5028 0.503197 98.2337 0.590941 98.0809 1.11248C97.9295 1.63178 95.3571 9.9151 95.174 10.639C94.991 11.3606 94.4563 11.3772 94.2364 10.6497C94.0533 9.92809 91.4801 1.64611 91.3282 1.12681C91.1763 0.605266 90.9063 0.516627 90.4687 0.516627H87.5899C86.9195 0.516627 86.5912 0.516627 86.5912 1.16575L86.5934 17.4441C86.5934 17.9356 86.7611 18.018 87.1276 18.018H89.3629C89.7654 18.018 89.9998 18.001 89.9998 17.4441V8.53492C89.9998 7.85222 90.502 7.85222 90.6495 8.56715C90.8633 9.61247 92.815 16.7838 92.9765 17.3053C93.1346 17.8246 93.1899 18.0185 93.5718 18.0185H95.8698C96.3084 18.0189 96.4339 17.3035 96.4339 17.3035ZM123.208 1.17426V17.3402C123.208 17.3402 123.084 18.0556 122.646 18.0556H119.451C119.068 18.0556 118.823 17.7028 118.568 17.1992C118.312 16.6942 115.198 9.40654 114.957 8.607C114.709 7.78731 114.095 7.88982 114.095 8.57253V17.4817C114.095 18.0399 113.86 18.0556 113.456 18.0556H111.326C110.96 18.0556 110.792 17.9741 110.792 17.4817V1.16665C110.792 0.518417 111.118 0.518417 111.788 0.518417H114.666C115.104 0.518417 115.375 0.607505 115.526 1.12546C115.678 1.64835 118.736 9.1451 118.917 9.86899C119.268 10.8431 119.778 10.5866 119.778 9.77095C119.778 8.95395 119.8 1.72669 119.8 1.11203C119.8 0.499167 120.226 0.503644 120.664 0.503644H122.588C123.071 0.503644 123.208 0.588255 123.208 1.17426Z" fill="#0A7EC2"/>
<path fill-rule="evenodd" clip-rule="evenodd" d="M162.896 0.400696H176.153V51.9719H162.896V0.400696ZM181.718 0.400696H191.372V51.9719H181.718V0.400696ZM200.701 0.400696H205.613V51.9719H200.701V0.400696ZM220.344 0.400696H222.675V51.9719H220.344V0.400696Z" fill="#0A7EC2"/>
<path fill-rule="evenodd" clip-rule="evenodd" d="M113.093 67.2559V73.0023C113.093 73.2933 113.133 73.5959 113.211 73.9088C113.289 74.2226 113.419 74.5123 113.601 74.7768C113.787 75.0458 114.031 75.2679 114.314 75.4264C114.609 75.5925 114.973 75.6776 115.406 75.6776C115.838 75.6776 116.201 75.5934 116.495 75.4264C116.779 75.2675 117.023 75.0455 117.211 74.7768C117.392 74.5118 117.522 74.2226 117.599 73.9088C117.678 73.5959 117.717 73.2933 117.717 73.0023V67.2559H118.965V73.2024C118.965 73.7499 118.873 74.2455 118.692 74.6896C118.519 75.1231 118.262 75.517 117.938 75.8481C117.616 76.1763 117.231 76.4336 116.808 76.6043C116.376 76.7802 115.907 76.8666 115.407 76.8666C114.903 76.8666 114.437 76.7802 114.004 76.6043C113.581 76.4337 113.197 76.1764 112.875 75.8481C112.551 75.517 112.294 75.1231 112.121 74.6896C111.939 74.2455 111.849 73.7485 111.849 73.2024V67.2559H113.093ZM120.859 70.3538H122.028V71.3208H122.052C122.201 70.985 122.456 70.7142 122.82 70.5069C123.182 70.2979 123.603 70.1958 124.078 70.1958C124.373 70.1958 124.655 70.2415 124.929 70.3341C125.195 70.4231 125.44 70.5706 125.644 70.7661C125.847 70.9595 126.008 71.2075 126.13 71.5137C126.252 71.8182 126.311 72.1772 126.311 72.5944V76.6325H125.145V72.9235C125.145 72.6343 125.105 72.3822 125.026 72.1759C124.948 71.9668 124.846 71.7998 124.715 71.6731C124.588 71.5465 124.435 71.4508 124.267 71.3933C124.097 71.3371 123.919 71.3087 123.74 71.3092C123.497 71.3092 123.273 71.3486 123.066 71.4291C122.858 71.507 122.675 71.6337 122.521 71.8052C122.364 71.9766 122.244 72.196 122.157 72.461C122.07 72.7261 122.028 73.0399 122.028 73.4002V76.6338H120.859V70.3538ZM128.169 66.6193H129.338V76.6316H128.169V66.6193ZM131.013 68.1029C131.013 67.8643 131.097 67.6597 131.265 67.4865C131.343 67.4037 131.437 67.3381 131.541 67.2937C131.645 67.2494 131.757 67.2272 131.869 67.2286C132.103 67.2286 132.306 67.3132 132.474 67.4865C132.644 67.6597 132.727 67.8643 132.727 68.1029C132.727 68.3406 132.644 68.5452 132.474 68.7185C132.396 68.8011 132.302 68.8666 132.198 68.911C132.094 68.9553 131.982 68.9776 131.869 68.9763C131.636 68.9763 131.436 68.8899 131.265 68.7185C131.185 68.6387 131.121 68.543 131.077 68.4371C131.034 68.3313 131.012 68.2176 131.013 68.1029ZM131.286 70.3538H132.455V76.6316H131.286V70.3538ZM134.31 70.3538H135.4V71.3338H135.426C135.453 71.2447 135.52 71.1346 135.627 71.0025C135.736 70.8713 135.876 70.7446 136.044 70.6247C136.212 70.5065 136.412 70.4044 136.641 70.3194C136.87 70.2347 137.123 70.1953 137.4 70.1953C137.861 70.1953 138.244 70.2934 138.556 70.4845C138.868 70.6806 139.123 70.9716 139.322 71.3606C139.522 70.9716 139.804 70.6797 140.168 70.4845C140.53 70.2929 140.898 70.1953 141.272 70.1953C141.747 70.1953 142.138 70.275 142.441 70.4331C142.742 70.5915 142.981 70.8002 143.154 71.0625C143.33 71.3301 143.451 71.6311 143.511 71.9475C143.575 72.2815 143.607 72.6235 143.607 72.975V76.6316H142.441V73.1348C142.441 72.8953 142.426 72.6661 142.395 72.4458C142.369 72.2407 142.305 72.0426 142.205 71.8625C142.11 71.6932 141.971 71.5533 141.804 71.4578C141.63 71.358 141.401 71.3074 141.115 71.3074C140.552 71.3074 140.151 71.4842 139.907 71.8365C139.665 72.1897 139.545 72.6464 139.545 73.2024V76.6316H138.376V73.3465C138.376 73.0466 138.361 72.7731 138.33 72.5255C138.3 72.277 138.239 72.063 138.149 71.8826C138.061 71.7063 137.926 71.5591 137.759 71.4578C137.591 71.3571 137.362 71.3074 137.076 71.3074C136.869 71.3074 136.668 71.3495 136.474 71.4305C136.277 71.517 136.102 71.6462 135.959 71.8092C135.813 71.9789 135.695 72.1915 135.61 72.4521C135.523 72.7126 135.48 73.0197 135.48 73.3738V76.6316H134.311L134.31 70.3538ZM145.192 68.1029C145.192 67.8643 145.275 67.6597 145.445 67.4865C145.523 67.4034 145.617 67.3376 145.721 67.2933C145.825 67.2489 145.937 67.2269 146.049 67.2286C146.282 67.2286 146.483 67.3132 146.653 67.4865C146.821 67.6597 146.906 67.8643 146.906 68.1029C146.906 68.3406 146.821 68.5452 146.653 68.7185C146.575 68.801 146.481 68.8663 146.377 68.9107C146.273 68.955 146.162 68.9773 146.049 68.9763C145.937 68.9777 145.825 68.9555 145.721 68.9111C145.617 68.8668 145.523 68.8012 145.445 68.7185C145.364 68.6391 145.299 68.5435 145.256 68.4376C145.212 68.3317 145.191 68.2178 145.192 68.1029ZM145.465 70.3538H146.634V76.6316H145.465V70.3538ZM151.789 71.3871H150.112V74.2338C150.112 74.4098 150.117 74.5852 150.125 74.7567C150.134 74.9282 150.167 75.0831 150.224 75.2218C150.281 75.3575 150.367 75.4658 150.483 75.5504C150.601 75.6346 150.771 75.6771 150.996 75.6771C151.135 75.6771 151.277 75.6632 151.425 75.6368C151.572 75.6095 151.707 75.5634 151.827 75.4918V76.5778C151.69 76.6584 151.51 76.7117 151.288 76.7421C151.067 76.7735 150.897 76.7887 150.775 76.7887C150.326 76.7887 149.977 76.7238 149.731 76.5944C149.484 76.4677 149.301 76.3016 149.185 76.1011C149.066 75.8917 148.994 75.6574 148.976 75.4157C148.954 75.1663 148.945 74.9138 148.945 74.6551V71.3857H147.593V70.352H148.945V68.5918H150.112V70.352H151.789V71.3871H151.789ZM154.177 73.9298C154.177 74.2034 154.236 74.4518 154.351 74.6766C154.469 74.9022 154.622 75.0956 154.814 75.2527C155.01 75.4169 155.234 75.5428 155.475 75.6243C155.726 75.711 155.99 75.7553 156.255 75.7555C156.617 75.7555 156.933 75.6713 157.201 75.4976C157.483 75.3135 157.733 75.0836 157.942 74.8171L158.826 75.5061C158.176 76.3603 157.266 76.7896 156.097 76.7896C155.613 76.7896 155.173 76.705 154.78 76.538C154.386 76.3692 154.052 76.1373 153.78 75.8419C153.503 75.5401 153.289 75.1844 153.151 74.7961C153 74.3783 152.924 73.936 152.928 73.4907C152.928 73.0238 153.01 72.5873 153.171 72.1879C153.322 71.7986 153.546 71.4433 153.831 71.1422C154.117 70.842 154.46 70.605 154.839 70.446C155.242 70.276 155.675 70.1904 156.111 70.1945C156.656 70.1945 157.119 70.2925 157.493 70.4836C157.87 70.6797 158.18 70.9331 158.422 71.2469C158.665 71.5605 158.844 71.9209 158.947 72.3066C159.056 72.6983 159.111 73.0994 159.111 73.5046V73.9285H154.176V73.9298H154.177ZM157.864 72.9759C157.858 72.7276 157.816 72.4816 157.74 72.2457C157.671 72.033 157.559 71.8376 157.411 71.6722C157.257 71.5038 157.069 71.3727 156.859 71.2886C156.637 71.1968 156.379 71.148 156.085 71.148C155.826 71.1471 155.569 71.1995 155.331 71.302C155.092 71.4044 154.876 71.5549 154.696 71.7443C154.535 71.9164 154.405 72.1169 154.314 72.3361C154.225 72.5375 154.179 72.7555 154.177 72.9763H157.864V72.9759ZM166.682 76.6316H165.513V75.7282H165.486C165.261 76.0666 164.952 76.3245 164.557 76.5116C164.178 76.6942 163.764 76.7891 163.344 76.7896C162.866 76.7896 162.438 76.705 162.052 76.538C161.678 76.3774 161.342 76.1382 161.066 75.836C160.79 75.5331 160.576 75.1777 160.435 74.7903C160.287 74.3914 160.215 73.9603 160.215 73.492C160.215 73.0251 160.287 72.5886 160.435 72.1884C160.573 71.7999 160.788 71.4444 161.066 71.1435C161.342 70.8428 161.678 70.6056 162.052 70.4474C162.438 70.2804 162.866 70.1958 163.344 70.1958C163.785 70.1958 164.201 70.2894 164.59 70.4801C164.981 70.6699 165.278 70.9295 165.486 71.2545H165.513V66.6193H166.682V76.6316ZM163.487 75.6776C163.798 75.6776 164.081 75.6216 164.331 75.5106C164.572 75.409 164.789 75.2557 164.967 75.0611C165.14 74.8704 165.275 74.643 165.371 74.3721C165.467 74.0891 165.515 73.7912 165.513 73.4916C165.515 73.1917 165.467 72.8935 165.371 72.6101C165.283 72.3559 165.145 72.1223 164.967 71.9229C164.788 71.7295 164.571 71.5759 164.331 71.4717C164.081 71.3606 163.798 71.3074 163.487 71.3074C163.175 71.3074 162.893 71.3606 162.643 71.4717C162.402 71.576 162.186 71.7296 162.006 71.9229C161.834 72.1127 161.699 72.3433 161.605 72.6101C161.507 72.8931 161.458 73.1914 161.461 73.4916C161.461 73.809 161.509 74.1053 161.605 74.3721C161.699 74.643 161.834 74.8704 162.006 75.0611C162.18 75.2527 162.392 75.4022 162.643 75.5106C162.893 75.6216 163.175 75.6776 163.487 75.6776ZM175.33 71.9301C175.188 71.7501 175.013 71.5991 174.815 71.4851C174.613 71.3651 174.364 71.3083 174.07 71.3083C173.793 71.3083 173.553 71.366 173.35 71.4851C173.145 71.606 173.045 71.7788 173.045 72.0107C173.045 72.1951 173.102 72.3437 173.219 72.4601C173.34 72.5778 173.481 72.6717 173.635 72.7372C173.794 72.8089 173.964 72.8595 174.148 72.8962C174.329 72.9311 174.486 72.9624 174.614 72.9888C174.864 73.052 175.1 73.1272 175.322 73.2163C175.543 73.3027 175.733 73.4164 175.894 73.5592C176.053 73.7006 176.179 73.8721 176.269 74.0749C176.36 74.2795 176.406 74.5262 176.406 74.8171C176.406 75.1686 176.332 75.4712 176.185 75.7246C176.042 75.9703 175.847 76.18 175.613 76.3383C175.37 76.502 175.099 76.6193 174.814 76.6844C174.518 76.7534 174.216 76.7885 173.912 76.7891C173.4 76.7891 172.953 76.7086 172.568 76.5514C172.184 76.3907 171.84 76.102 171.535 75.6771L172.419 74.9367C172.609 75.1283 172.821 75.3011 173.056 75.4524C173.289 75.601 173.575 75.6771 173.912 75.6771C174.059 75.6771 174.21 75.6615 174.36 75.6306C174.511 75.5997 174.646 75.55 174.764 75.4837C174.879 75.4175 174.975 75.3351 175.049 75.2344C175.121 75.1319 175.158 75.015 175.158 74.8838C175.158 74.7057 175.103 74.5584 174.997 74.4451C174.886 74.3294 174.753 74.2375 174.606 74.1747C174.451 74.1068 174.291 74.0538 174.126 74.0162C173.956 73.976 173.808 73.9428 173.677 73.9155C173.436 73.8565 173.198 73.7858 172.964 73.7038C172.75 73.6295 172.548 73.5215 172.367 73.3837C172.193 73.2513 172.051 73.0792 171.953 72.8809C171.848 72.6781 171.797 72.427 171.797 72.1262C171.797 71.7998 171.864 71.5151 171.997 71.2729C172.132 71.0307 172.309 70.8306 172.529 70.6694C172.758 70.5069 173.014 70.3864 173.284 70.3135C173.96 70.1205 174.68 70.1619 175.33 70.4313C175.71 70.5897 176.013 70.8561 176.237 71.225L175.33 71.9301ZM178.706 73.9298C178.706 74.2034 178.763 74.4518 178.881 74.6766C178.996 74.9022 179.151 75.0956 179.341 75.2527C179.538 75.4163 179.763 75.5422 180.004 75.6243C180.254 75.7112 180.518 75.7555 180.782 75.7555C181.146 75.7555 181.463 75.6713 181.731 75.4976C182.012 75.3138 182.262 75.0838 182.47 74.8171L183.353 75.5061C182.704 76.3603 181.796 76.7896 180.628 76.7896C180.142 76.7896 179.703 76.705 179.308 76.538C178.931 76.3803 178.591 76.1431 178.31 75.8419C178.034 75.5397 177.819 75.1841 177.679 74.7961C177.53 74.3779 177.455 73.9358 177.459 73.4907C177.459 73.0238 177.54 72.5873 177.699 72.1879C177.851 71.7985 178.076 71.4432 178.362 71.1422C178.647 70.8425 178.989 70.6056 179.367 70.446C179.771 70.276 180.204 70.1904 180.641 70.1945C181.186 70.1945 181.646 70.2925 182.023 70.4836C182.4 70.6797 182.708 70.9331 182.951 71.2469C183.194 71.5609 183.373 71.9212 183.477 72.3066C183.584 72.6965 183.638 73.0996 183.638 73.5046V73.9285H178.706V73.9298H178.706ZM182.394 72.9759C182.388 72.7276 182.346 72.4816 182.27 72.2457C182.2 72.033 182.087 71.8376 181.938 71.6722C181.785 71.5033 181.597 71.3721 181.386 71.2886C181.166 71.1968 180.909 71.148 180.614 71.148C180.328 71.148 180.067 71.2066 179.829 71.315C179.602 71.4159 179.397 71.5618 179.225 71.7443C179.063 71.9166 178.933 72.117 178.841 72.3361C178.753 72.5377 178.707 72.7556 178.706 72.9763H182.394V72.9759ZM185.133 66.6193H186.302V76.6316H185.133V66.6193ZM189.041 73.9298C189.041 74.2034 189.101 74.4518 189.215 74.6766C189.333 74.9022 189.486 75.0956 189.678 75.2527C189.868 75.4125 190.088 75.5379 190.338 75.6243C190.59 75.711 190.854 75.7553 191.119 75.7555C191.481 75.7555 191.798 75.6713 192.065 75.4976C192.347 75.3136 192.598 75.0837 192.806 74.8171L193.69 75.5061C193.04 76.3603 192.13 76.7896 190.961 76.7896C190.477 76.7896 190.037 76.705 189.644 76.538C189.266 76.3806 188.925 76.1433 188.644 75.8419C188.367 75.5402 188.153 75.1844 188.015 74.7961C187.864 74.3782 187.789 73.9359 187.793 73.4907C187.793 73.0238 187.874 72.5873 188.035 72.1879C188.186 71.7985 188.411 71.4432 188.696 71.1422C188.981 70.8417 189.324 70.6047 189.704 70.446C190.107 70.2759 190.539 70.1903 190.975 70.1945C191.52 70.1945 191.982 70.2925 192.357 70.4836C192.734 70.6797 193.043 70.9331 193.286 71.2469C193.529 71.5604 193.708 71.9208 193.811 72.3066C193.92 72.6963 193.975 73.0994 193.975 73.5046V73.9285H189.041V73.9298ZM192.729 72.9759C192.723 72.7276 192.681 72.4816 192.604 72.2457C192.535 72.0332 192.423 71.8379 192.275 71.6722C192.122 71.5038 191.933 71.3727 191.723 71.2886C191.501 71.1968 191.243 71.148 190.949 71.148C190.69 71.1471 190.434 71.1994 190.195 71.3019C189.956 71.4043 189.74 71.5548 189.56 71.7443C189.399 71.9165 189.269 72.117 189.178 72.3361C189.089 72.5375 189.043 72.7555 189.041 72.9763H192.729V72.9759ZM199.779 72.0236C199.584 71.8091 199.354 71.6315 199.099 71.499C198.859 71.3781 198.576 71.3217 198.248 71.3217C197.927 71.3217 197.648 71.3794 197.409 71.499C197.171 71.6198 196.972 71.7832 196.813 71.9878C196.65 72.2022 196.527 72.4453 196.449 72.705C196.366 72.9771 196.324 73.2604 196.325 73.5453C196.325 73.8363 196.373 74.1143 196.469 74.3735C196.563 74.6358 196.698 74.8624 196.87 75.0553C197.045 75.2503 197.257 75.4059 197.494 75.5119C197.737 75.623 198.009 75.6789 198.312 75.6789C198.641 75.6789 198.923 75.6185 199.155 75.4989C199.391 75.3808 199.607 75.2053 199.805 74.9761L200.636 75.8235C200.35 76.1565 199.986 76.4118 199.579 76.5666C199.168 76.7172 198.735 76.7933 198.299 76.7914C197.823 76.7914 197.39 76.7108 196.994 76.5537C196.614 76.4026 196.268 76.1748 195.976 75.8839C195.686 75.5911 195.459 75.2384 195.313 74.8494C195.157 74.4487 195.08 74.0037 195.08 73.5193C195.08 73.0341 195.157 72.59 195.313 72.1835C195.459 71.7922 195.683 71.4357 195.969 71.1359C196.258 70.8411 196.603 70.6094 196.982 70.455C197.376 70.2907 197.814 70.2101 198.299 70.2101C198.75 70.2101 199.18 70.2907 199.592 70.455C199.999 70.6176 200.366 70.873 200.662 71.2017L199.779 72.0236ZM204.934 71.3871H203.26V74.2338C203.26 74.4098 203.265 74.5852 203.273 74.7567C203.282 74.9282 203.315 75.0831 203.372 75.2218C203.426 75.3575 203.513 75.4658 203.631 75.5504C203.747 75.6346 203.919 75.6771 204.144 75.6771C204.281 75.6771 204.425 75.6632 204.571 75.6368C204.713 75.6128 204.85 75.5637 204.975 75.4918V76.5778C204.836 76.6584 204.656 76.7117 204.436 76.7421C204.215 76.7735 204.043 76.7887 203.923 76.7887C203.472 76.7887 203.123 76.7238 202.877 76.5944C202.63 76.4677 202.449 76.3016 202.331 76.1011C202.213 75.891 202.143 75.6569 202.124 75.4157C202.102 75.1628 202.091 74.909 202.092 74.6551V71.3857H200.742V70.352H202.092V68.5918H203.26V70.352H204.934V71.3871ZM206.258 68.1029C206.258 67.8643 206.343 67.6597 206.511 67.4865C206.589 67.4037 206.683 67.3381 206.787 67.2938C206.891 67.2494 207.002 67.2272 207.115 67.2286C207.348 67.2286 207.551 67.3132 207.719 67.4865C207.89 67.6597 207.972 67.8643 207.972 68.1029C207.972 68.3406 207.889 68.5452 207.719 68.7185C207.641 68.8012 207.547 68.8667 207.443 68.911C207.339 68.9554 207.228 68.9776 207.115 68.9763C206.882 68.9763 206.682 68.8899 206.511 68.7185C206.43 68.6388 206.366 68.5431 206.323 68.4373C206.279 68.3314 206.257 68.2177 206.258 68.1029ZM206.531 70.3538H207.699V76.6316H206.531V70.3538ZM209.259 73.492C209.259 73.0341 209.342 72.6061 209.512 72.2085C209.676 71.8176 209.911 71.4621 210.206 71.161C210.504 70.859 210.857 70.6188 211.245 70.4537C211.642 70.2804 212.072 70.1958 212.53 70.1958C212.991 70.1958 213.417 70.2804 213.817 70.4537C214.204 70.6194 214.557 70.8595 214.855 71.161C215.149 71.4628 215.385 71.8181 215.551 72.2085C215.719 72.6065 215.803 73.0341 215.803 73.492C215.806 73.9267 215.724 74.3577 215.561 74.7594C215.398 75.1611 215.158 75.5255 214.855 75.8311C214.555 76.1294 214.203 76.3672 213.817 76.5322C213.41 76.7057 212.972 76.7935 212.53 76.79C212.089 76.7933 211.652 76.7056 211.245 76.5322C210.858 76.3676 210.506 76.1297 210.206 75.8311C209.909 75.532 209.673 75.176 209.512 74.7836C209.341 74.3754 209.255 73.9357 209.259 73.492ZM210.504 73.492C210.504 73.8094 210.551 74.1058 210.648 74.3726C210.742 74.6434 210.876 74.8709 211.049 75.0616C211.223 75.2532 211.435 75.4027 211.685 75.511C211.936 75.6221 212.217 75.678 212.53 75.678C212.842 75.678 213.123 75.6221 213.374 75.511C213.615 75.4093 213.832 75.2561 214.01 75.0616C214.189 74.8619 214.326 74.6276 214.414 74.3726C214.51 74.0895 214.558 73.7916 214.555 73.492C214.555 73.1755 214.508 72.8827 214.414 72.6106C214.325 72.3565 214.188 72.1229 214.01 71.9234C213.831 71.73 213.614 71.5764 213.374 71.4721C213.123 71.3611 212.842 71.3078 212.53 71.3078C212.217 71.3078 211.936 71.3611 211.685 71.4721C211.445 71.5764 211.229 71.73 211.049 71.9234C210.876 72.1132 210.742 72.3437 210.648 72.6106C210.55 72.8936 210.501 73.1919 210.504 73.492ZM217.271 70.3538H218.44V71.3208H218.464C218.612 70.985 218.868 70.7142 219.231 70.5069C219.594 70.2979 220.014 70.1958 220.49 70.1958C220.784 70.1958 221.067 70.2415 221.34 70.3341C221.607 70.423 221.851 70.5705 222.056 70.7661C222.259 70.9595 222.42 71.2075 222.542 71.5137C222.664 71.8182 222.723 72.1772 222.723 72.5944V76.6325H221.556V72.9235C221.556 72.6343 221.517 72.3822 221.438 72.1759C221.359 71.9668 221.257 71.7998 221.127 71.6731C221 71.5464 220.847 71.4507 220.679 71.3933C220.508 71.3371 220.33 71.3087 220.151 71.3092C219.909 71.3092 219.685 71.3486 219.477 71.4291C219.27 71.507 219.087 71.6337 218.933 71.8052C218.776 71.9766 218.656 72.196 218.569 72.461C218.481 72.7261 218.44 73.0399 218.44 73.4002V76.6338H217.271V70.3538Z" fill="#007DC3"/>
</g>
<defs>
<clipPath id="clip0_10_388">
<rect width="223" height="77" fill="white"/>
</clipPath>
</defs>
</svg>
