<svg width="104" height="111" viewBox="0 0 104 111" fill="none" xmlns="http://www.w3.org/2000/svg">
<g clip-path="url(#clip0_28_902)">
<path d="M-0.144043 58.5023L2.04447 58.1869C2.17551 59.2841 2.44416 60.0856 2.84386 60.6046C3.25011 61.117 3.79396 61.3732 4.47541 61.3732C5.20273 61.3732 5.74658 61.1433 6.11352 60.69C6.48045 60.2301 6.66392 59.698 6.66392 59.0804C6.66392 58.6928 6.58529 58.3578 6.43459 58.0818C6.27733 57.8059 6.00868 57.5628 5.62209 57.3592C5.35999 57.2212 4.76372 56.9847 3.82017 56.6365C2.61453 56.1898 1.76926 55.6379 1.28438 54.9941C0.602933 54.0744 0.255655 52.9641 0.255655 51.6436C0.255655 50.8027 0.419465 50.0078 0.740533 49.272C1.0616 48.5362 1.52682 47.9712 2.12965 47.5902C2.73902 47.2026 3.46634 47.0121 4.32471 47.0121C5.72037 47.0121 6.77531 47.4654 7.48297 48.3785C8.19063 49.2983 8.55757 50.5202 8.59688 52.0444L6.34285 52.1889C6.25112 51.3349 6.04144 50.7239 5.72692 50.3494C5.41241 49.9749 4.93408 49.7844 4.30505 49.7844C3.64981 49.7844 3.13872 49.9881 2.76523 50.3888C2.52934 50.645 2.4114 50.9867 2.4114 51.4203C2.4114 51.8144 2.52279 52.1495 2.74557 52.432C3.02733 52.7867 3.71533 53.1546 4.80959 53.5422C5.90384 53.9233 6.71634 54.324 7.24053 54.7379C7.76473 55.1452 8.17098 55.7102 8.47239 56.4263C8.76725 57.1358 8.9114 58.0227 8.9114 59.0738C8.9114 60.0264 8.73448 60.9133 8.38066 61.7477C8.02682 62.5754 7.52884 63.193 6.88015 63.6003C6.23146 64.001 5.41896 64.2047 4.45576 64.2047C3.04698 64.2047 1.96584 63.7185 1.20576 62.7528C0.452227 61.7805 0.000110254 60.3615 -0.144043 58.5023ZM0.596381 65.5777C5.18963 89.5831 26.5046 107.741 52.1115 107.741C77.7184 107.741 99.0268 89.5896 103.627 65.5909V65.5777H87.3832C83.1044 80.8652 68.9316 92.0861 52.1115 92.0861C35.2914 92.0861 21.1251 80.8652 16.8398 65.5777H0.596381ZM52.1115 24.8725C38.6201 24.8725 27.1206 33.2947 22.6911 45.12H33.6992C37.4275 38.8986 44.2748 34.7335 52.1115 34.7335C59.9482 34.7335 66.802 38.8986 70.5303 45.12H81.5384C77.109 33.2947 65.6095 24.8725 52.1115 24.8725ZM81.9185 65.5777C77.8035 77.9614 66.0157 86.9092 52.1115 86.9092C38.2138 86.9092 26.426 77.9614 22.3111 65.5777H33.0898C36.6412 72.3904 43.8292 77.0483 52.1115 77.0483C60.4003 77.0483 67.5818 72.3904 71.1397 65.5777H81.9185ZM52.1115 4.04028C77.3383 4.04028 98.3912 21.6534 103.41 45.12H87.0621C82.4295 30.391 68.5319 19.6956 52.1115 19.6956C35.6911 19.6956 21.8 30.391 17.1609 45.12H0.819162C5.83176 21.6534 26.8912 4.04028 52.1115 4.04028ZM76.4341 63.9091V50.1063H73.1251V47.2945H81.984V50.1063H78.6816V63.9091H76.4341ZM62.9754 58.5023L65.1639 58.1869C65.295 59.2841 65.5636 60.0856 65.9633 60.6046C66.3696 61.117 66.9134 61.3732 67.5949 61.3732C68.3222 61.3732 68.866 61.1433 69.233 60.69C69.5999 60.2301 69.7834 59.698 69.7834 59.0804C69.7834 58.6928 69.7047 58.3578 69.554 58.0818C69.3968 57.8059 69.1281 57.5628 68.7415 57.3592C68.4794 57.2212 67.8766 56.9847 66.9396 56.6365C65.734 56.1898 64.8887 55.6379 64.4038 54.9941C63.7224 54.0744 63.3751 52.9641 63.3751 51.6436C63.3751 50.8027 63.5389 50.0078 63.86 49.272C64.1811 48.5362 64.6463 47.9712 65.2491 47.5902C65.8585 47.2026 66.5858 47.0121 67.4442 47.0121C68.8398 47.0121 69.8948 47.4654 70.6024 48.3785C71.3101 49.2983 71.677 50.5202 71.7163 52.0444L69.4623 52.1889C69.3706 51.3349 69.1609 50.7239 68.8464 50.3494C68.5319 49.9749 68.0535 49.7844 67.418 49.7844C66.7693 49.7844 66.2582 49.9881 65.8847 50.3888C65.6488 50.645 65.5309 50.9867 65.5309 51.4203C65.5309 51.8144 65.6422 52.1495 65.865 52.432C66.1468 52.7867 66.8348 53.1546 67.929 53.5422C69.0233 53.9233 69.8358 54.324 70.36 54.7379C70.8842 55.1452 71.2904 55.7102 71.5853 56.4263C71.8867 57.1358 72.0309 58.0227 72.0309 59.0738C72.0309 60.0264 71.8539 60.9133 71.5001 61.7477C71.1463 62.5754 70.6483 63.193 69.9996 63.6003C69.3509 64.001 68.5384 64.2047 67.5752 64.2047C66.1664 64.2047 65.0853 63.7185 64.3252 62.7528C63.5717 61.7805 63.1196 60.3615 62.9754 58.5023ZM58.2118 57.3395L56.6785 51.1706L55.1715 57.3395H58.2118ZM62.3529 63.9091H59.9023L58.9326 60.1381H54.4769L53.5596 63.9091H51.1745L55.5122 47.2945H57.8907L62.3529 63.9091ZM42.8595 63.9091V47.4325H45.107V61.1104H50.7027V63.9091H42.8595ZM34.669 50.1063V54.8233H35.9008C36.7854 54.8233 37.3817 54.7313 37.6765 54.5605C37.9779 54.3831 38.2138 54.1138 38.3776 53.7459C38.548 53.3714 38.6332 52.9444 38.6332 52.4517C38.6332 51.8473 38.5152 51.348 38.2793 50.9538C38.0369 50.5596 37.7355 50.3166 37.3751 50.218C37.1065 50.1392 36.5626 50.1063 35.7567 50.1063H34.669ZM32.4215 63.9091V47.2945H36.0319C37.3948 47.2945 38.2859 47.3799 38.7052 47.5442C39.3408 47.7938 39.8781 48.3325 40.304 49.1669C40.7365 50.0078 40.9527 51.0852 40.9527 52.4057C40.9527 53.424 40.8282 54.2846 40.5792 54.981C40.3302 55.6774 40.0157 56.2226 39.6357 56.6168C39.2491 57.011 38.8625 57.2803 38.4694 57.4052C37.9321 57.5628 37.1523 57.6417 36.1367 57.6417H34.669V63.9091H32.4215ZM22.1735 55.5919C22.1735 57.4709 22.4684 58.903 23.0515 59.8688C23.6281 60.8411 24.3686 61.3272 25.2662 61.3272C26.1639 61.3272 26.8978 60.8476 27.4744 59.8819C28.051 58.9162 28.3393 57.4709 28.3393 55.546C28.3393 53.6408 28.0576 52.2217 27.5006 51.2823C26.9371 50.3494 26.1967 49.8764 25.2662 49.8764C24.3423 49.8764 23.5954 50.3494 23.0253 51.302C22.4552 52.248 22.1735 53.6802 22.1735 55.5919ZM19.8539 55.7036C19.8539 54.0152 20.0243 52.5896 20.365 51.44C20.6206 50.5991 20.9679 49.837 21.4069 49.1669C21.8393 48.4902 22.3242 47.9909 22.8418 47.669C23.5364 47.2288 24.3358 47.0121 25.2466 47.0121C26.8847 47.0121 28.2017 47.7676 29.1846 49.2851C30.1674 50.8093 30.6654 52.9181 30.6654 55.6248C30.6654 58.3118 30.174 60.4075 29.1977 61.925C28.2214 63.4361 26.9109 64.1981 25.2728 64.1981C23.6216 64.1981 22.3045 63.4426 21.3217 61.9316C20.3454 60.4272 19.8539 58.3512 19.8539 55.7036ZM10.864 63.9091V47.4325H13.1181V61.1104H18.7073V63.9091H10.864Z" fill="#273752"/>
</g>
<defs>
<clipPath id="clip0_28_902">
<rect width="104" height="111" fill="white"/>
</clipPath>
</defs>
</svg>
