<svg width="40" height="40" viewBox="0 0 40 40" fill="none" xmlns="http://www.w3.org/2000/svg">
<g clip-path="url(#clip0_28_891)">
<path d="M39.4183 2.57136L10.5728 10.6482C10.0185 10.8142 9.96136 11.209 10.4457 11.5254L16.7789 15.664C17.2632 15.9805 17.2204 16.4165 16.6839 16.6329L1.08138 22.9258C0.544696 23.1422 0.565629 23.4319 1.12746 23.5694L14.9129 26.9447C15.4749 27.0823 15.5266 27.4347 15.0278 27.728L0.251947 36.3379C-0.246767 36.6311 0.0583944 37.581 0.620118 37.4424L33.7328 29.7021C34.2945 29.5636 34.3778 29.163 33.9178 28.812L25.9974 22.7686C25.5374 22.4176 25.5922 21.9347 26.1189 21.6956L39.0681 15.8162C39.5949 15.5771 39.5741 15.2402 39.0218 15.0679L29.0785 11.9643C28.5262 11.7919 28.4613 11.3783 28.9342 11.045L39.7516 3.36029C40.2244 3.02705 39.9726 2.40536 39.4183 2.57136ZM33.794 5.68987L25.4101 11.5981C24.9373 11.9314 25.0022 12.3451 25.5545 12.5174L34.6025 15.3416C35.1548 15.514 35.1756 15.8508 34.6488 16.0899L23.0643 21.3497C22.5374 21.5888 22.4827 22.0716 22.9428 22.4226L30.3428 28.0689C30.8028 28.4199 30.7195 28.8205 30.1578 28.959L6.86356 34.7064C6.30184 34.8449 6.2503 34.7185 6.74901 34.4252L19.1766 27.1192C19.6753 26.8259 19.6235 26.4734 19.0616 26.336L6.25861 23.2012C5.69667 23.0637 5.67595 22.774 6.21253 22.5577L20.0774 16.9655C20.614 16.7491 20.6567 16.3131 20.1724 15.9966L14.1522 12.0625C13.6678 11.7461 13.725 11.3513 14.2794 11.1853L33.6461 5.38566C34.2004 5.21966 34.2669 5.35652 33.794 5.68987Z" fill="#FFAB00"/>
<path d="M35.1756 20.8622C33.3521 20.8622 31.9092 21.8193 31.4999 23.3002C31.4517 23.4739 31.324 23.9354 31.6263 24.3329C31.8392 24.6127 32.1838 24.7546 32.6506 24.7546H37.4894C38.1551 24.7546 38.4941 24.4763 38.6611 24.2427C38.8805 23.9362 38.9321 23.5204 38.799 23.1304C38.3219 21.7313 36.9334 20.8622 35.1756 20.8622ZM37.404 23.4923H33.0276C32.7646 23.4923 32.828 23.336 32.8683 23.2621C33.253 22.5599 34.1135 22.1245 35.1756 22.1245C36.2646 22.1245 37.1314 22.5699 37.5051 23.3031C37.5354 23.3627 37.588 23.4923 37.404 23.4923Z" fill="#FFAB00"/>
<path d="M4.72221 17.5741H9.56103C10.2268 17.5741 10.5657 17.2957 10.7329 17.0623C10.9522 16.7557 11.0037 16.34 10.8708 15.95C10.3936 14.5509 9.0053 13.6818 7.24734 13.6818C5.42373 13.6818 3.98092 14.6388 3.57162 16.1197C3.52344 16.2935 3.39574 16.755 3.69817 17.1525C3.91087 17.4322 4.25537 17.5741 4.72221 17.5741ZM4.97488 16.0208C5.37513 15.3545 6.21625 14.9442 7.24723 14.9442C8.27748 14.9442 9.10892 15.343 9.51212 16.0068C9.56965 16.1016 9.68389 16.3119 9.42964 16.3119H5.09701C4.83403 16.3118 4.91955 16.113 4.97488 16.0208Z" fill="#FFAB00"/>
</g>
<defs>
<clipPath id="clip0_28_891">
<rect width="40" height="40" fill="white"/>
</clipPath>
</defs>
</svg>
