<svg width="30" height="40" viewBox="0 0 30 40" fill="none" xmlns="http://www.w3.org/2000/svg">
<path d="M29.9424 23.8116L29.9139 23.4202C29.4557 17.4552 26.6783 13.7159 24.2281 10.4177C21.9593 7.36358 19.9997 4.72618 19.9997 0.834679C19.9997 0.522191 19.8248 0.236577 19.5473 0.0933006C19.2689 -0.0507565 18.9345 -0.0271637 18.6814 0.156814C15.0016 2.79015 11.9312 7.2285 10.8587 11.4633C10.1141 14.4117 10.0156 17.7262 10.0018 19.9152C6.60345 19.1893 5.83363 14.1057 5.82551 14.0504C5.78723 13.7867 5.62614 13.5572 5.39177 13.4319C5.15498 13.3082 4.87664 13.2992 4.63657 13.418C4.45837 13.5043 0.26251 15.6364 0.018378 24.1501C0.00126921 24.4333 0.000488281 24.7164 0.000488281 25.0004C0.000488281 33.2708 6.72954 39.9999 14.9999 39.9999C23.2703 39.9999 29.9994 33.2708 29.9994 25.0004C29.9994 24.5854 29.9709 24.1981 29.9424 23.8116ZM14.9999 38.3333C12.2428 38.3333 10.0001 35.9441 10.0001 33.0072C10.0001 32.9071 9.99934 32.8061 10.0066 32.6825C10.04 31.4439 10.2752 30.5984 10.5331 30.0361C11.0166 31.0745 11.8815 32.029 13.2845 32.029C13.7451 32.029 14.1179 31.6563 14.1179 31.1957C14.1179 30.0091 14.1423 28.6404 14.4377 27.4051C14.7006 26.309 15.3287 25.1444 16.1247 24.2102C16.4786 25.4228 17.1688 26.4041 17.8426 27.362C18.8069 28.7324 19.8037 30.1491 19.9787 32.5652C19.9893 32.7084 19.9999 32.8525 19.9999 33.0071C19.9997 35.9441 17.757 38.3333 14.9999 38.3333ZM20.2663 37.2445C21.1313 36.0649 21.6664 34.6069 21.6664 33.0072C21.6664 32.8111 21.6542 32.6287 21.6298 32.2878C21.432 29.5674 20.2496 27.8861 19.2056 26.4026C18.3161 25.1396 17.5487 24.0484 17.5487 22.5006C17.5487 22.184 17.3697 21.8951 17.0865 21.7544C16.8049 21.6127 16.4648 21.6445 16.2133 21.8358C14.6151 23.0434 13.2821 25.0762 12.8167 27.0171C12.579 28.0123 12.496 29.0889 12.4667 29.9743C11.889 29.3526 11.7099 28.2003 11.7083 28.1848C11.6709 27.9171 11.5065 27.6835 11.2665 27.5591C11.028 27.4354 10.7424 27.4321 10.5024 27.5558C10.2924 27.6632 8.4476 28.7211 8.34182 32.6126C8.33448 32.7444 8.33369 32.8762 8.33369 33.0072C8.33369 34.6069 8.86883 36.065 9.7338 37.2446C4.9946 35.1982 1.6673 30.4821 1.6673 25.0006C1.6673 24.7507 1.66652 24.5018 1.68355 24.2242C1.82675 19.2292 3.42505 16.7521 4.46829 15.6593C5.19576 18.2633 7.10163 21.6673 10.8336 21.6673C11.2942 21.6673 11.6669 21.2946 11.6669 20.834C11.6669 18.0452 11.7296 14.8227 12.475 11.8719C13.3213 8.52892 15.6398 4.91906 18.4383 2.47532C18.903 6.04456 20.8471 8.66165 22.8905 11.4113C25.3196 14.681 27.8309 18.0622 28.2516 23.5374L28.2801 23.9361C28.3062 24.2828 28.333 24.6286 28.333 25.0005C28.3328 30.482 25.0055 35.1981 20.2663 37.2445Z" fill="#FFAB00"/>
</svg>
