<svg width="33" height="40" viewBox="0 0 33 40" fill="none" xmlns="http://www.w3.org/2000/svg">
<path d="M29.6875 18.9844C29.6875 18.5529 29.3378 18.2031 28.9062 18.2031C28.4747 18.2031 28.125 18.5529 28.125 18.9844C28.125 21.5692 26.0223 23.6719 23.4375 23.6719C23.006 23.6719 22.6562 24.0216 22.6562 24.4531C22.6562 24.8846 23.006 25.2344 23.4375 25.2344C26.8839 25.2344 29.6875 22.4307 29.6875 18.9844Z" fill="#FFAB00"/>
<path d="M13.4113 26.5994C12.9984 27.2223 9.375 32.7527 9.375 35.0781C9.375 37.746 11.5216 40 14.0625 40C16.6034 40 18.75 37.746 18.75 35.0781C18.75 32.7527 15.1266 27.2223 14.7137 26.5994C14.5688 26.3812 14.3243 26.25 14.0625 26.25C13.8007 26.25 13.5562 26.3812 13.4113 26.5994ZM17.1875 35.0781C17.1875 36.8677 15.7272 38.4375 14.0625 38.4375C12.3978 38.4375 10.9375 36.8677 10.9375 35.0781C10.9375 33.8742 12.6535 30.7321 14.0625 28.4763C15.4715 30.7321 17.1875 33.8742 17.1875 35.0781Z" fill="#FFAB00"/>
<path d="M5.46875 12.9688C5.2121 12.9688 4.97192 13.0948 4.82605 13.306C4.33197 14.021 0 20.372 0 23.125C0 26.1404 2.45331 28.5938 5.46875 28.5938C8.48419 28.5938 10.9375 26.1404 10.9375 23.125C10.9375 20.372 6.60553 14.021 6.11145 13.306C5.96558 13.0948 5.7254 12.9688 5.46875 12.9688ZM5.46875 27.0312C3.31482 27.0312 1.5625 25.2789 1.5625 23.125C1.5625 21.6141 3.74725 17.7783 5.46875 15.1508C7.19025 17.778 9.375 21.6132 9.375 23.125C9.375 25.2789 7.62268 27.0312 5.46875 27.0312Z" fill="#FFAB00"/>
<path d="M15.625 18.2031C15.625 18.6346 15.2753 18.9844 14.8438 18.9844C14.4122 18.9844 14.0625 18.6346 14.0625 18.2031C14.0625 17.7716 14.4122 17.4219 14.8438 17.4219C15.2753 17.4219 15.625 17.7716 15.625 18.2031Z" fill="#FFAB00"/>
<path d="M24.0962 0.360718C23.9524 0.136108 23.7043 0 23.4376 0C23.1709 0 22.9228 0.136108 22.779 0.360718C22.5541 0.713196 17.2437 9.0567 15.0269 14.939C14.8747 15.3427 15.0788 15.7935 15.4826 15.9454C15.886 16.0977 16.3368 15.8939 16.489 15.4901C18.1962 10.9595 21.927 4.71161 23.4397 2.25433C26.1106 6.57349 31.2501 15.5865 31.2501 18.9844C31.2501 23.2922 27.7455 26.7969 23.4376 26.7969C19.9497 26.7969 16.8565 24.4547 15.915 21.1008C15.7984 20.6854 15.3672 20.4431 14.9516 20.5597C14.5362 20.6763 14.2942 21.1078 14.4105 21.5231C15.5406 25.5481 19.2527 28.3594 23.4376 28.3594C28.607 28.3594 32.8126 24.1537 32.8126 18.9844C32.8126 14.678 26.3246 3.84491 24.0962 0.360718Z" fill="#FFAB00"/>
</svg>
