<svg width="40" height="40" viewBox="0 0 40 40" fill="none" xmlns="http://www.w3.org/2000/svg">
<path d="M38.0417 13.5337C36.0417 11.8171 36.0917 11.8671 36 11.8004C35.5714 11.545 35.0698 11.44 34.5747 11.5019C34.0796 11.5638 33.6193 11.789 33.2667 12.1421C33.182 12.2209 33.0761 12.2731 32.9621 12.2924C32.848 12.3116 32.7308 12.297 32.625 12.2504C32.471 11.1856 32.0139 10.1876 31.3083 9.3754L31.8333 9.10873C32.2848 8.88044 32.6641 8.53132 32.929 8.10023C33.1938 7.66914 33.3338 7.17301 33.3333 6.66707C33.3327 6.46803 33.3878 6.2728 33.4924 6.10345C33.5969 5.93409 33.7468 5.79736 33.925 5.70873L35.2333 5.05873C35.4311 4.95928 35.5813 4.78532 35.6509 4.57512C35.7204 4.36492 35.7036 4.13571 35.6042 3.9379C35.5047 3.74009 35.3307 3.5899 35.1205 3.52035C34.9104 3.45081 34.6811 3.46761 34.4833 3.56707C33.2083 4.16707 31.6667 4.7004 31.6667 6.66707C31.6667 7.5004 31.0833 7.61707 29.925 8.2004C29.2631 7.76785 28.5154 7.48357 27.7333 7.36707C27.6808 7.2625 27.6629 7.14389 27.6824 7.02849C27.7019 6.91309 27.7577 6.80691 27.8417 6.7254C28.2101 6.35492 28.4376 5.86737 28.4848 5.34699C28.5319 4.8266 28.3958 4.30609 28.1 3.8754L26.4333 1.9504C26.3622 1.86723 26.2754 1.79888 26.1778 1.74927C26.0803 1.69965 25.9739 1.66973 25.8648 1.66122C25.7557 1.6527 25.646 1.66577 25.5419 1.69966C25.4379 1.73355 25.3415 1.7876 25.2583 1.85873C25.1752 1.92987 25.1068 2.01668 25.0572 2.11423C25.0076 2.21178 24.9777 2.31814 24.9691 2.42725C24.9606 2.53636 24.9737 2.64607 25.0076 2.75014C25.0415 2.8542 25.0955 2.95056 25.1667 3.03373L26.7583 4.89207C27.1083 5.63373 25.85 5.7254 26.0167 7.39207C24.9685 7.52316 23.9797 7.95107 23.1667 8.6254C22.8907 7.90299 22.3561 7.30896 21.6667 6.95873C20.5083 6.38373 20.9583 5.21707 21.175 4.15873C21.2181 3.93772 21.1716 3.70864 21.0458 3.52188C20.92 3.33513 20.7252 3.206 20.5042 3.1629C20.2832 3.1198 20.0541 3.16627 19.8673 3.29207C19.6806 3.41788 19.5514 3.61272 19.5083 3.83373L19.2583 5.10873C19.1315 5.77026 19.226 6.45515 19.5272 7.05761C19.8285 7.66008 20.3197 8.14661 20.925 8.44207C21.0921 8.52748 21.2407 8.64506 21.3623 8.78807C21.4839 8.93108 21.576 9.09669 21.6333 9.2754L21.85 9.93373L19.575 12.2087C18.3333 9.9004 16.6667 11.2754 15.875 8.99207C15.8405 8.8881 15.7859 8.79195 15.7143 8.70909C15.6426 8.62623 15.5554 8.5583 15.4575 8.50916C15.3596 8.46002 15.253 8.43064 15.1438 8.42271C15.0345 8.41477 14.9248 8.42843 14.8208 8.4629C14.7169 8.49737 14.6207 8.55198 14.5379 8.62362C14.455 8.69525 14.3871 8.7825 14.3379 8.88039C14.2888 8.97828 14.2594 9.08489 14.2515 9.19413C14.2435 9.30337 14.2572 9.4131 14.2917 9.51707C15.4417 12.9671 17.625 11.3504 18.3 13.2921C18.3583 13.4587 18.6333 13.1171 15.675 16.0754C15.0167 16.7337 15.25 16.7254 15.05 16.6587C14.8707 16.6026 14.7045 16.511 14.5613 16.3893C14.4181 16.2676 14.3009 16.1183 14.2167 15.9504C13.9212 15.3451 13.4347 14.8539 12.8322 14.5526C12.2297 14.2514 11.5449 14.1569 10.8833 14.2837L9.60833 14.5337C9.38732 14.5768 9.19248 14.706 9.06667 14.8927C8.94087 15.0795 8.8944 15.3086 8.9375 15.5296C8.9806 15.7506 9.10973 15.9454 9.29648 16.0712C9.48324 16.197 9.71232 16.2435 9.93333 16.2004C11.025 15.9837 12.1667 15.5587 12.7333 16.7004C13.0723 17.3644 13.6409 17.8826 14.3333 18.1587C14.1785 18.5556 14.0722 18.9697 14.0167 19.3921C13.69 19.3693 13.3621 19.413 13.0527 19.5204C12.7433 19.6278 12.459 19.7967 12.2167 20.0171C11.8083 20.4254 11.5417 20.1171 9.50833 18.9004C9.32238 18.8238 9.11498 18.8169 8.92441 18.8812C8.73383 18.9455 8.57293 19.0766 8.4714 19.2502C8.36987 19.4238 8.33455 19.6283 8.37197 19.8259C8.40939 20.0235 8.51702 20.2009 8.675 20.3254L10.6833 21.5337C11.112 21.7891 11.6136 21.8942 12.1087 21.8323C12.6038 21.7704 13.0641 21.5451 13.4167 21.1921C13.5013 21.1133 13.6072 21.061 13.7213 21.0418C13.8353 21.0225 13.9525 21.0371 14.0583 21.0837C14.1669 21.8964 14.4513 22.6755 14.8917 23.3671C14.4248 23.5882 14.0305 23.9375 13.7546 24.3743C13.4787 24.811 13.3326 25.3172 13.3333 25.8337C13.3339 26.0328 13.2789 26.228 13.1743 26.3974C13.0697 26.5667 12.9199 26.7034 12.7417 26.7921L11.4167 27.5004C11.2189 27.5999 11.0687 27.7738 10.9991 27.984C10.9296 28.1942 10.9464 28.4234 11.0458 28.6212C11.1453 28.819 11.3192 28.9692 11.5294 29.0388C11.7396 29.1083 11.9689 29.0915 12.1667 28.9921C13.4583 28.3337 15 27.8004 15 25.8337C15 25.1671 15.425 24.9587 16.0583 24.6421C16.8811 25.328 17.8749 25.7774 18.9333 25.9421C18.9834 26.0472 18.9998 26.1652 18.9805 26.28C18.9611 26.3948 18.9068 26.5009 18.825 26.5837C18.472 26.9366 18.2474 27.3975 18.187 27.8929C18.1265 28.3883 18.2338 28.8897 18.4917 29.3171L19.6917 31.3254C19.8161 31.4834 19.9936 31.591 20.1912 31.6284C20.3888 31.6658 20.5933 31.6305 20.7669 31.529C20.9405 31.4275 21.0716 31.2666 21.1358 31.076C21.2001 30.8854 21.1933 30.678 21.1167 30.4921L19.9167 28.4921C19.475 27.7504 20.8083 27.6587 20.6333 25.9921C21.0534 25.9436 21.4653 25.8399 21.8583 25.6837C22.1461 26.368 22.6694 26.9267 23.3333 27.2587C25.225 28.2004 22.775 30.6921 24.4833 31.0337C24.5906 31.0556 24.7011 31.0562 24.8086 31.0354C24.916 31.0146 25.0183 30.9728 25.1097 30.9124C25.201 30.8521 25.2795 30.7743 25.3408 30.6836C25.402 30.5929 25.4448 30.491 25.4667 30.3837L25.7167 29.1087C25.8435 28.4472 25.749 27.7623 25.4478 27.1599C25.1465 26.5574 24.6553 26.0709 24.05 25.7754C23.8684 25.6839 23.7084 25.5549 23.5805 25.3969C23.4527 25.2388 23.3599 25.0554 23.3083 24.8587C23.7083 24.5837 23.6833 24.5754 26.5917 21.6671C28.7083 22.3754 27.0417 24.5671 30.4833 25.7171C30.5873 25.7515 30.697 25.7652 30.8063 25.7573C30.9155 25.7493 31.0221 25.7199 31.12 25.6708C31.2179 25.6217 31.3051 25.5537 31.3768 25.4709C31.4484 25.388 31.503 25.2919 31.5375 25.1879C31.572 25.0839 31.5856 24.9742 31.5777 24.865C31.5698 24.7557 31.5404 24.6491 31.4912 24.5512C31.4421 24.4533 31.3742 24.3661 31.2913 24.2945C31.2085 24.2228 31.1123 24.1682 31.0083 24.1337C28.6833 23.3587 30.175 21.7421 27.85 20.4087L30.125 18.1337C30.9583 18.4254 31.3167 18.4837 31.6 19.0587C31.8585 19.5626 32.2515 19.985 32.7355 20.2792C33.2194 20.5734 33.7753 20.7278 34.3417 20.7254C34.9755 20.6862 35.6037 20.5829 36.2167 20.4171C36.3261 20.3957 36.4303 20.353 36.5232 20.2914C36.6161 20.2299 36.696 20.1506 36.7583 20.0581C36.8206 19.9656 36.8641 19.8618 36.8863 19.7525C36.9084 19.6432 36.9088 19.5307 36.8875 19.4212C36.8662 19.3118 36.8235 19.2076 36.7619 19.1147C36.7003 19.0218 36.621 18.9419 36.5285 18.8796C36.436 18.8173 36.3322 18.7738 36.2229 18.7516C36.1137 18.7295 36.0011 18.7291 35.8917 18.7504C34.8167 18.9587 33.6667 19.4004 33.0917 18.2504C32.7414 17.5609 32.1474 17.0263 31.425 16.7504C32.0951 15.9275 32.5248 14.9354 32.6667 13.8837C34.2833 14.0337 34.4083 12.8171 35.125 13.1587C37.1083 14.9254 37.0917 15.0004 37.5 15.0004C37.6704 15.0004 37.8366 14.9482 37.9764 14.8508C38.1162 14.7535 38.2228 14.6156 38.2818 14.4558C38.3408 14.296 38.3494 14.1219 38.3065 13.9571C38.2636 13.7922 38.1711 13.6445 38.0417 13.5337ZM17.5 20.8337C17.279 20.8337 17.067 20.7459 16.9107 20.5897C16.7545 20.4334 16.6667 20.2214 16.6667 20.0004C16.6667 19.7794 16.7545 19.5674 16.9107 19.4111C17.067 19.2549 17.279 19.1671 17.5 19.1671C17.721 19.1671 17.933 19.2549 18.0893 19.4111C18.2455 19.5674 18.3333 19.7794 18.3333 20.0004C18.3333 20.2214 18.2455 20.4334 18.0893 20.5897C17.933 20.7459 17.721 20.8337 17.5 20.8337ZM22.5 20.8337C22.279 20.8337 22.067 20.7459 21.9107 20.5897C21.7545 20.4334 21.6667 20.2214 21.6667 20.0004C21.6667 19.7794 21.7545 19.5674 21.9107 19.4111C22.067 19.2549 22.279 19.1671 22.5 19.1671C22.721 19.1671 22.933 19.2549 23.0893 19.4111C23.2455 19.5674 23.3333 19.7794 23.3333 20.0004C23.3333 20.2214 23.2455 20.4334 23.0893 20.5897C22.933 20.7459 22.721 20.8337 22.5 20.8337ZM22.5 15.0004C22.279 15.0004 22.067 14.9126 21.9107 14.7563C21.7545 14.6 21.6667 14.3881 21.6667 14.1671C21.6667 13.9461 21.7545 13.7341 21.9107 13.5778C22.067 13.4215 22.279 13.3337 22.5 13.3337C22.721 13.3337 22.933 13.4215 23.0893 13.5778C23.2455 13.7341 23.3333 13.9461 23.3333 14.1671C23.3333 14.3881 23.2455 14.6 23.0893 14.7563C22.933 14.9126 22.721 15.0004 22.5 15.0004ZM27.5 14.1671C27.1704 14.1671 26.8481 14.0693 26.574 13.8862C26.3 13.703 26.0863 13.4427 25.9602 13.1382C25.8341 12.8337 25.801 12.4986 25.8654 12.1753C25.9297 11.8519 26.0884 11.555 26.3215 11.3219C26.5546 11.0888 26.8515 10.9301 27.1748 10.8658C27.4981 10.8014 27.8333 10.8345 28.1378 10.9606C28.4423 11.0867 28.7026 11.3004 28.8858 11.5744C29.0689 11.8485 29.1667 12.1708 29.1667 12.5004C29.1667 12.9424 28.9911 13.3664 28.6785 13.6789C28.3659 13.9915 27.942 14.1671 27.5 14.1671Z" fill="black"/>
<path d="M10.0417 35.5251C10.1376 35.1622 10.1082 34.7775 9.95833 34.4334L10.525 33.9834C10.6974 33.8442 10.8074 33.6422 10.8308 33.4218C10.8543 33.2015 10.7892 32.9808 10.65 32.8084C10.5108 32.636 10.3087 32.526 10.0884 32.5026C9.86802 32.4791 9.64738 32.5442 9.47499 32.6834L8.86666 33.1751L8.43333 32.7418L8.92499 32.2584C9.08191 32.1015 9.17007 31.8887 9.17007 31.6668C9.17007 31.4448 9.08191 31.232 8.92499 31.0751C8.76807 30.9182 8.55524 30.83 8.33333 30.83C8.11141 30.83 7.89858 30.9182 7.74166 31.0751L7.25833 31.5668L6.82499 31.1334L7.31666 30.5251C7.4559 30.3527 7.52095 30.1321 7.49751 29.9117C7.47407 29.6913 7.36405 29.4893 7.19166 29.3501C7.01927 29.2109 6.79863 29.1458 6.57827 29.1692C6.35791 29.1927 6.1559 29.3027 6.01666 29.4751L5.56666 30.0418C5.21779 29.9056 4.83323 29.8909 4.47499 30.0001L3.92499 29.4501C3.76807 29.2932 3.55524 29.205 3.33333 29.205C3.11141 29.205 2.89858 29.2932 2.74166 29.4501C2.58474 29.607 2.49658 29.8198 2.49658 30.0418C2.49658 30.2637 2.58474 30.4765 2.74166 30.6334L3.29166 31.1834C3.19571 31.5463 3.22508 31.931 3.37499 32.2751L2.80833 32.7251C2.68867 32.8367 2.60451 32.981 2.56633 33.1401C2.52815 33.2992 2.53765 33.466 2.59363 33.6197C2.64961 33.7734 2.7496 33.9073 2.88114 34.0046C3.01268 34.1018 3.16994 34.1583 3.33333 34.1668C3.68333 34.1668 3.79166 34.0334 4.46666 33.4918L4.89999 33.9251L4.40833 34.4084C4.2908 34.525 4.21065 34.6739 4.17809 34.8362C4.14553 34.9985 4.16204 35.1668 4.22552 35.3197C4.28899 35.4725 4.39655 35.603 4.53448 35.6945C4.67241 35.786 4.83447 35.8344 4.99999 35.8334C5.41666 35.8334 5.55833 35.6251 6.07499 35.1001L6.50833 35.5334L6.01666 36.1418C5.91731 36.2642 5.85475 36.4124 5.83624 36.569C5.81774 36.7256 5.84405 36.8842 5.91212 37.0265C5.98019 37.1687 6.08722 37.2887 6.22079 37.3726C6.35435 37.4564 6.50896 37.5006 6.66666 37.5001C7.14166 37.5001 7.28333 37.2334 7.76666 36.6668C8.11078 36.8167 8.49543 36.846 8.85833 36.7501L9.40833 37.3001C9.56525 37.457 9.77807 37.5452 9.99999 37.5452C10.2219 37.5452 10.4347 37.457 10.5917 37.3001C10.7486 37.1432 10.8367 36.9303 10.8367 36.7084C10.8367 36.4865 10.7486 36.2737 10.5917 36.1168L10.0417 35.5251Z" fill="black"/>
<path d="M34.1667 35.0003C35.0871 35.0003 35.8333 34.2541 35.8333 33.3337C35.8333 32.4132 35.0871 31.667 34.1667 31.667C33.2462 31.667 32.5 32.4132 32.5 33.3337C32.5 34.2541 33.2462 35.0003 34.1667 35.0003Z" fill="black"/>
<path d="M24.1667 39.1668C25.0871 39.1668 25.8333 38.4206 25.8333 37.5002C25.8333 36.5797 25.0871 35.8335 24.1667 35.8335C23.2462 35.8335 22.5 36.5797 22.5 37.5002C22.5 38.4206 23.2462 39.1668 24.1667 39.1668Z" fill="black"/>
<path d="M2.49992 17.5003C3.42039 17.5003 4.16659 16.7541 4.16659 15.8337C4.16659 14.9132 3.42039 14.167 2.49992 14.167C1.57944 14.167 0.833252 14.9132 0.833252 15.8337C0.833252 16.7541 1.57944 17.5003 2.49992 17.5003Z" fill="black"/>
<path d="M2.49984 5.8335C3.69984 5.8335 3.43317 5.75016 3.58317 6.07516L2.88317 6.76683C2.72625 6.92375 2.63809 7.13658 2.63809 7.3585C2.63809 7.58041 2.72625 7.79324 2.88317 7.95016C3.04009 8.10708 3.25292 8.19524 3.47484 8.19524C3.69676 8.19524 3.90958 8.10708 4.0665 7.95016C4.89984 7.11683 4.67484 7.2335 4.99984 7.35016V8.3335C4.99984 8.55451 5.08764 8.76647 5.24392 8.92275C5.4002 9.07903 5.61216 9.16683 5.83317 9.16683C6.05418 9.16683 6.26615 9.07903 6.42243 8.92275C6.57871 8.76647 6.6665 8.55451 6.6665 8.3335V7.35016C6.99984 7.2335 6.7665 7.1085 7.59984 7.95016C7.75676 8.10708 7.96959 8.19524 8.1915 8.19524C8.41342 8.19524 8.62625 8.10708 8.78317 7.95016C8.94009 7.79324 9.02825 7.58041 9.02825 7.3585C9.02825 7.13658 8.94009 6.92375 8.78317 6.76683L8.08317 6.07516C8.23317 5.75016 7.9665 5.8335 9.1665 5.8335C9.38752 5.8335 9.59948 5.7457 9.75576 5.58942C9.91204 5.43314 9.99984 5.22118 9.99984 5.00016C9.99984 4.77915 9.91204 4.56719 9.75576 4.41091C9.59948 4.25463 9.38752 4.16683 9.1665 4.16683C7.9665 4.16683 8.23317 4.25016 8.08317 3.92516L8.78317 3.2335C8.94009 3.07658 9.02825 2.86375 9.02825 2.64183C9.02825 2.41991 8.94009 2.20708 8.78317 2.05016C8.62625 1.89324 8.41342 1.80509 8.1915 1.80509C7.96959 1.80509 7.75676 1.89324 7.59984 2.05016L6.90817 2.75016C6.58317 2.60016 6.6665 2.86683 6.6665 1.66683C6.6665 1.44582 6.57871 1.23385 6.42243 1.07757C6.26615 0.921293 6.05418 0.833496 5.83317 0.833496C5.61216 0.833496 5.4002 0.921293 5.24392 1.07757C5.08764 1.23385 4.99984 1.44582 4.99984 1.66683C4.99984 2.86683 5.08317 2.60016 4.75817 2.75016L4.0665 2.05016C3.98881 1.97246 3.89656 1.91083 3.79505 1.86878C3.69353 1.82673 3.58472 1.80509 3.47484 1.80509C3.36495 1.80509 3.25615 1.82673 3.15463 1.86878C3.05311 1.91083 2.96087 1.97246 2.88317 2.05016C2.72625 2.20708 2.63809 2.41991 2.63809 2.64183C2.63809 2.86375 2.72625 3.07658 2.88317 3.2335L3.58317 3.92516C3.43317 4.25016 3.69984 4.16683 2.49984 4.16683C2.27882 4.16683 2.06686 4.25463 1.91058 4.41091C1.7543 4.56719 1.6665 4.77915 1.6665 5.00016C1.6665 5.22118 1.7543 5.43314 1.91058 5.58942C2.06686 5.7457 2.27882 5.8335 2.49984 5.8335Z" fill="black"/>
</svg>
