<svg width="40" height="40" viewBox="0 0 40 40" fill="none" xmlns="http://www.w3.org/2000/svg">
<path d="M29.5633 25.9833C29.55 25.9867 29.5333 25.9867 29.52 25.9867C28.47 25.9867 27.9167 25.7233 27.43 25.49C26.99 25.28 26.61 25.0967 25.8 25.0967C24.99 25.0967 24.61 25.28 24.17 25.49C23.6833 25.7233 23.13 25.9867 22.08 25.9867C21.03 25.9867 20.4767 25.7233 19.99 25.49C19.55 25.28 19.17 25.0967 18.36 25.0967C17.55 25.0967 17.17 25.28 16.73 25.49C16.2433 25.7233 15.69 25.9867 14.64 25.9867C13.59 25.9867 13.0367 25.7233 12.55 25.49C12.1367 25.2933 11.78 25.12 11.07 25.1L4.89668 33.6867C4.42001 34.35 4.35668 35.18 4.73001 35.9067C5.10335 36.6333 5.81335 37.0667 6.63001 37.0667H33.3633C34.18 37.0667 34.89 36.6333 35.2633 35.9067C35.6367 35.18 35.5734 34.35 35.0967 33.6867L29.5633 25.9833ZM9.14001 35.11C8.23335 35.11 7.49335 34.37 7.49335 33.4633C7.49335 32.5567 8.23335 31.8167 9.14001 31.8167C10.0467 31.8167 10.7867 32.5567 10.7867 33.4633C10.7867 34.37 10.05 35.11 9.14001 35.11ZM13.7267 33.1067C13.3833 33.1067 13.1033 32.8267 13.1033 32.4833C13.1033 32.14 13.3833 31.86 13.7267 31.86C14.07 31.86 14.35 32.14 14.35 32.4833C14.35 32.8267 14.07 33.1067 13.7267 33.1067ZM13.19 30.6567C12.2833 30.6567 11.5433 29.9167 11.5433 29.01C11.5433 28.1033 12.2833 27.3633 13.19 27.3633C14.0967 27.3633 14.8367 28.1033 14.8367 29.01C14.8367 29.92 14.1 30.6567 13.19 30.6567ZM16.4833 28.9667C16.4833 28.6233 16.7633 28.3433 17.1067 28.3433C17.45 28.3433 17.73 28.6233 17.73 28.9667C17.73 29.31 17.45 29.59 17.1067 29.59C16.7633 29.59 16.4833 29.31 16.4833 28.9667ZM19.6 35.11C18.4233 35.11 17.4633 34.15 17.4633 32.9733C17.4633 31.7967 18.4233 30.8367 19.6 30.8367C20.7767 30.8367 21.7367 31.7967 21.7367 32.9733C21.7367 34.15 20.7767 35.11 19.6 35.11ZM21.7367 28.61C21.3933 28.61 21.1133 28.33 21.1133 27.9867C21.1133 27.6433 21.3933 27.3633 21.7367 27.3633C22.08 27.3633 22.36 27.6433 22.36 27.9867C22.36 28.33 22.08 28.61 21.7367 28.61ZM25.6533 34.3967C25.31 34.3967 25.03 34.1167 25.03 33.7733C25.03 33.43 25.31 33.15 25.6533 33.15C25.9967 33.15 26.2767 33.43 26.2767 33.7733C26.2733 34.1167 25.9967 34.3967 25.6533 34.3967ZM25.4733 30.6133C24.5667 30.6133 23.8267 29.8733 23.8267 28.9667C23.8267 28.06 24.5667 27.32 25.4733 27.32C26.38 27.32 27.12 28.06 27.12 28.9667C27.12 29.8767 26.38 30.6133 25.4733 30.6133ZM30.4133 33.73C29.5067 33.73 28.7667 32.99 28.7667 32.0833C28.7667 31.1767 29.5067 30.4367 30.4133 30.4367C31.32 30.4367 32.06 31.1767 32.06 32.0833C32.06 32.99 31.32 33.73 30.4133 33.73Z" fill="black"/>
<path d="M14.64 24.9164C15.45 24.9164 15.83 24.7331 16.27 24.5231C16.7567 24.2898 17.31 24.0264 18.36 24.0264C19.41 24.0264 19.9634 24.2898 20.45 24.5231C20.89 24.7331 21.27 24.9164 22.08 24.9164C22.89 24.9164 23.27 24.7331 23.71 24.5231C24.1967 24.2898 24.75 24.0264 25.8 24.0264C26.85 24.0264 27.4034 24.2898 27.89 24.5231C28.16 24.6531 28.4067 24.7698 28.7467 24.8431L23.6834 17.8031C23.6167 17.7131 23.5834 17.6031 23.5834 17.4898V5.20311C23.5834 4.90644 23.8234 4.66977 24.1167 4.66977H24.7634C24.9567 4.66977 25.12 4.50644 25.12 4.31311V3.28977C25.12 3.09644 24.9567 2.93311 24.7634 2.93311H15.2367C15.0434 2.93311 14.88 3.09644 14.88 3.28977V4.31311C14.88 4.50644 15.0434 4.66977 15.2367 4.66977H15.8834C16.18 4.66977 16.4167 4.90977 16.4167 5.20311V17.4931C16.4167 17.6064 16.38 17.7131 16.3167 17.8064L11.79 24.0998C12.3167 24.1931 12.68 24.3664 13.01 24.5264C13.4534 24.7364 13.8334 24.9164 14.64 24.9164ZM17.5734 7.35311C17.5734 7.05977 17.8134 6.81977 18.1067 6.81977C18.4 6.81977 18.64 7.05977 18.64 7.35311V7.61977C18.64 7.91644 18.4 8.15311 18.1067 8.15311C17.8134 8.15311 17.5734 7.91311 17.5734 7.61977V7.35311ZM17.5734 9.25311C17.5734 8.95644 17.8134 8.71977 18.1067 8.71977C18.4 8.71977 18.64 8.95977 18.64 9.25311V15.3498C18.64 15.6464 18.4 15.8831 18.1067 15.8831C17.8134 15.8831 17.5734 15.6431 17.5734 15.3498V9.25311Z" fill="black"/>
<circle cx="11" cy="11" r="1" fill="black"/>
<circle cx="8.5" cy="8.5" r="0.5" fill="black"/>
<circle cx="12.5" cy="6.5" r="0.5" fill="black"/>
<circle cx="31.5" cy="7.5" r="0.5" fill="black"/>
<circle cx="27" cy="13" r="1" fill="black"/>
<circle cx="26" cy="8" r="1" fill="black"/>
<circle cx="29.5" cy="10.5" r="0.5" fill="black"/>
</svg>
