<svg width="40" height="40" viewBox="0 0 40 40" fill="none" xmlns="http://www.w3.org/2000/svg">
<g clip-path="url(#clip0_21_496)">
<path d="M11.6443 12.3306L21.059 21.7453C21.2726 19.4272 21.7087 10.9442 17.2443 6.4798C15.7281 4.96368 13.7231 3.99048 11.6443 3.37158V12.3306Z" fill="black"/>
<path d="M0.0649852 4.06543C-0.0451832 5.72803 -0.20357 10.6819 1.36198 15.0029H11.0025L0.0649852 4.06543Z" fill="black"/>
<path d="M9.3006 9.98728V2.81626C6.02881 2.21811 2.96149 2.32645 1.72217 2.40854L9.3006 9.98728Z" fill="black"/>
<path d="M13.3459 17.3467H2.44043C2.91254 18.1642 3.47192 18.9232 4.13629 19.5876C7.47491 22.9262 13.0602 23.5244 16.6348 23.5244C17.8405 23.5244 18.8168 23.456 19.4018 23.4023L13.3459 17.3467Z" fill="black"/>
<path d="M37.8937 9.3006C38.4918 6.02881 38.3832 2.96149 38.3014 1.72217L30.7227 9.3006H37.8937Z" fill="black"/>
<path d="M25.7068 11.0025L36.6443 0.0649852C34.9817 -0.0451832 30.0278 -0.20357 25.7068 1.36198V11.0025Z" fill="black"/>
<path d="M28.3793 11.644L23.4385 16.5848C23.5712 18.4135 23.5267 20.0284 23.4565 21.1329C26.9269 20.94 31.3907 20.0831 34.2298 17.244C35.7459 15.7279 36.7194 13.7229 37.3383 11.644H28.3793Z" fill="black"/>
<path d="M23.0729 13.6364L23.3632 13.3462V2.44043C22.5456 2.91223 21.7866 3.47192 21.1219 4.13629C20.6129 4.64532 20.1689 5.20715 19.7798 5.8053C20.7811 7.05164 21.5922 8.54578 22.1974 10.2651C22.5639 11.3067 22.8566 12.4349 23.0729 13.6364Z" fill="black"/>
<path d="M5.61029 31.8485H8.57874C9.08655 31.8485 9.37952 32.3368 9.37952 32.8641C9.37952 33.3134 9.12561 33.8407 8.57874 33.8407H5.61029V37.7659H11.137C11.6448 37.7659 11.9378 38.2932 11.9378 38.8987C11.9378 39.426 11.6839 39.9924 11.137 39.9924H4.18451C3.61841 39.9924 3.07153 39.719 3.07153 39.1917V26.5171C3.07153 25.9897 3.61841 25.7163 4.18451 25.7163H11.137C11.6839 25.7163 11.9378 26.2827 11.9378 26.8101C11.9378 27.4152 11.6448 27.9426 11.137 27.9426H5.61029V31.8485Z" fill="black"/>
<path d="M18.8513 27.833C17.5427 27.833 16.8008 28.5554 16.8008 30.0788V35.5274C16.8008 37.0508 17.5427 37.7735 18.8903 37.7735C20.6674 37.7735 20.8236 36.504 20.8822 35.6837C20.9213 35.0785 21.4681 34.8832 22.1322 34.8832C23.0111 34.8832 23.4213 35.1371 23.4213 36.1329C23.4213 38.4962 21.4877 39.9998 18.7536 39.9998C16.293 39.9998 14.2617 38.7888 14.2617 35.5274V30.0788C14.2617 26.8174 16.3125 25.6064 18.7731 25.6064C21.4877 25.6064 23.4213 27.0518 23.4213 29.3171C23.4213 30.3327 23.0111 30.5671 22.1517 30.5671C21.4291 30.5671 20.9017 30.3522 20.8822 29.7663C20.8431 29.1608 20.7064 27.833 18.8513 27.833Z" fill="black"/>
<path d="M25.9597 35.5274V30.0788C25.9597 26.8174 27.9519 25.6064 30.5297 25.6064C33.1075 25.6064 35.119 26.8174 35.119 30.0788V35.5274C35.119 38.7888 33.1075 39.9998 30.5297 39.9998C27.9519 39.9998 25.9597 38.7888 25.9597 35.5274ZM32.5802 30.0788C32.5802 28.5358 31.799 27.833 30.5297 27.833C29.2407 27.833 28.4985 28.5358 28.4985 30.0788V35.5274C28.4985 37.0704 29.2407 37.7735 30.5297 37.7735C31.799 37.7735 32.5802 37.0704 32.5802 35.5274V30.0788Z" fill="black"/>
</g>
<defs>
<clipPath id="clip0_21_496">
<rect width="40" height="40" fill="white"/>
</clipPath>
</defs>
</svg>
