<svg width="40" height="40" viewBox="0 0 40 40" fill="none" xmlns="http://www.w3.org/2000/svg">
<path d="M32.1887 13.3465C32.0776 13.3436 31.9689 13.3128 31.8727 13.2571C31.7764 13.2015 31.6957 13.1226 31.6377 13.0277C31.5797 12.9328 31.5464 12.8249 31.5407 12.7139C31.5351 12.6028 31.5573 12.4921 31.6054 12.3919C31.8968 11.7824 32.0291 11.109 31.9899 10.4346C31.9508 9.76022 31.7414 9.10671 31.3814 8.53506C31.0215 7.96341 30.5226 7.49225 29.9313 7.16551C29.34 6.83877 28.6756 6.6671 28.0001 6.66652C26.4627 6.66652 26.1561 7.40986 25.5667 7.12852C25.4737 7.08434 25.3922 7.01921 25.3286 6.93824C25.265 6.85728 25.221 6.76268 25.2001 6.66186C24.871 5.04125 23.9514 3.60079 22.6198 2.62023C21.2882 1.63967 19.6397 1.18901 17.9944 1.35578C16.3492 1.52255 14.8246 2.29484 13.7169 3.52266C12.6091 4.75048 11.9973 6.34618 12.0001 7.99986C11.9997 8.09997 11.9787 8.19894 11.9386 8.29067C11.8985 8.38239 11.84 8.46493 11.7667 8.53319C11.3981 8.84719 11.2101 8.66652 10.6667 8.66652C10.1334 8.66763 9.6082 8.79668 9.1351 9.04284C8.66201 9.28899 8.25488 9.64507 7.94791 10.0812C7.64094 10.5173 7.44308 11.0206 7.37096 11.549C7.29883 12.0775 7.35455 12.6154 7.53342 13.1179C7.57195 13.2232 7.58331 13.3365 7.56644 13.4473C7.54956 13.5582 7.505 13.663 7.43688 13.752C7.36875 13.8411 7.27927 13.9115 7.1767 13.9568C7.07413 14.0021 6.96179 14.0208 6.85008 14.0112C5.73154 13.9694 4.62834 14.2817 3.6976 14.9035C2.76686 15.5253 2.05604 16.4249 1.66638 17.4742C1.27672 18.5235 1.22809 19.669 1.52741 20.7476C1.82672 21.8261 2.45873 22.7828 3.33342 23.4812V21.9999C3.33342 21.823 3.40365 21.6535 3.52868 21.5285C3.6537 21.4034 3.82327 21.3332 4.00008 21.3332C4.17689 21.3332 4.34646 21.4034 4.47149 21.5285C4.59651 21.6535 4.66675 21.823 4.66675 21.9999V37.3332C4.66675 37.6868 4.80722 38.026 5.05727 38.276C5.30732 38.5261 5.64646 38.6665 6.00008 38.6665C6.3537 38.6665 6.69284 38.5261 6.94289 38.276C7.19294 38.026 7.33342 37.6868 7.33342 37.3332V23.3332C7.33342 23.1564 7.40365 22.9868 7.52868 22.8618C7.6537 22.7368 7.82327 22.6665 8.00008 22.6665C8.17689 22.6665 8.34646 22.7368 8.47149 22.8618C8.59651 22.9868 8.66675 23.1564 8.66675 23.3332V24.7825C8.71636 24.856 8.7506 24.9388 8.76742 25.0259C9.01214 26.2605 9.68475 27.3692 10.6667 28.1565V24.6665C10.6667 24.4897 10.737 24.3201 10.862 24.1951C10.987 24.0701 11.1566 23.9999 11.3334 23.9999C11.5102 23.9999 11.6798 24.0701 11.8048 24.1951C11.9298 24.3201 12.0001 24.4897 12.0001 24.6665V31.9999C12.0001 32.1767 12.0703 32.3462 12.1953 32.4713C12.3204 32.5963 12.4899 32.6665 12.6667 32.6665C12.8436 32.6665 13.0131 32.5963 13.1382 32.4713C13.2632 32.3462 13.3334 32.1767 13.3334 31.9999V27.3332C13.3334 27.1564 13.4037 26.9868 13.5287 26.8618C13.6537 26.7368 13.8233 26.6665 14.0001 26.6665C14.1769 26.6665 14.3465 26.7368 14.4715 26.8618C14.5965 26.9868 14.6667 27.1564 14.6667 27.3332V29.2892C15.1244 29.2299 15.5725 29.112 16.0001 28.9385V25.3332C16.0001 25.1564 16.0703 24.9868 16.1953 24.8618C16.3204 24.7368 16.4899 24.6665 16.6667 24.6665C16.8436 24.6665 17.0131 24.7368 17.1382 24.8618C17.2632 24.9868 17.3334 25.1564 17.3334 25.3332V35.9999C17.3334 36.1767 17.4037 36.3462 17.5287 36.4713C17.6537 36.5963 17.8233 36.6665 18.0001 36.6665C18.1769 36.6665 18.3465 36.5963 18.4715 36.4713C18.5965 36.3462 18.6667 36.1767 18.6667 35.9999V23.9999C18.6667 23.823 18.737 23.6535 18.862 23.5285C18.987 23.4034 19.1566 23.3332 19.3334 23.3332C19.5102 23.3332 19.6798 23.4034 19.8048 23.5285C19.9298 23.6535 20.0001 23.823 20.0001 23.9999V25.8165C20.6712 26.2949 21.4589 26.5833 22.2803 26.6513C23.1016 26.7194 23.9261 26.5646 24.6667 26.2032V23.9999C24.6667 23.823 24.737 23.6535 24.862 23.5285C24.987 23.4034 25.1566 23.3332 25.3334 23.3332C25.5102 23.3332 25.6798 23.4034 25.8048 23.5285C25.9298 23.6535 26.0001 23.823 26.0001 23.9999V35.3332C26.0001 35.6868 26.1406 36.026 26.3906 36.276C26.6407 36.5261 26.9798 36.6665 27.3334 36.6665C27.687 36.6665 28.0262 36.5261 28.2762 36.276C28.5263 36.026 28.6667 35.6868 28.6667 35.3332V21.9999C28.6667 21.823 28.737 21.6535 28.862 21.5285C28.987 21.4034 29.1566 21.3332 29.3334 21.3332C29.5102 21.3332 29.6798 21.4034 29.8048 21.5285C29.9298 21.6535 30.0001 21.823 30.0001 21.9999V26.3505C30.4335 26.4905 30.8804 26.5845 31.3334 26.6312V25.3332C31.3334 25.1564 31.4037 24.9868 31.5287 24.8618C31.6537 24.7368 31.8233 24.6665 32.0001 24.6665C32.1769 24.6665 32.3465 24.7368 32.4715 24.8618C32.5965 24.9868 32.6667 25.1564 32.6667 25.3332V32.6665C32.6667 32.8433 32.737 33.0129 32.862 33.1379C32.987 33.263 33.1566 33.3332 33.3334 33.3332C33.5102 33.3332 33.6798 33.263 33.8048 33.1379C33.9298 33.0129 34.0001 32.8433 34.0001 32.6665V24.6665C34.0001 24.4897 34.0703 24.3201 34.1953 24.1951C34.3204 24.0701 34.4899 23.9999 34.6667 23.9999C34.8436 23.9999 35.0131 24.0701 35.1382 24.1951C35.2632 24.3201 35.3334 24.4897 35.3334 24.6665V25.7765C36.5902 25.0515 37.5759 23.9359 38.1408 22.5995C38.7056 21.263 38.8187 19.7786 38.4628 18.372C38.107 16.9654 37.3016 15.7134 36.1692 14.8063C35.0367 13.8993 33.6391 13.3867 32.1887 13.3465ZM18.6667 3.99986C17.5983 4.00902 16.5771 4.44162 15.8272 5.20275C15.0774 5.96389 14.66 6.9914 14.6667 8.05986C14.6667 8.23667 14.5965 8.40624 14.4715 8.53126C14.3465 8.65629 14.1769 8.72652 14.0001 8.72652C13.8233 8.72652 13.6537 8.65629 13.5287 8.53126C13.4037 8.40624 13.3334 8.23667 13.3334 8.05986C13.3272 6.63794 13.8852 5.2716 14.885 4.26053C15.8848 3.24947 17.2449 2.67622 18.6667 2.66652C18.8436 2.66652 19.0131 2.73676 19.1382 2.86179C19.2632 2.98681 19.3334 3.15638 19.3334 3.33319C19.3334 3.51 19.2632 3.67957 19.1382 3.80459C19.0131 3.92962 18.8436 3.99986 18.6667 3.99986Z" fill="black"/>
<path d="M7.3335 5.33301C8.43807 5.33301 9.3335 4.43758 9.3335 3.33301C9.3335 2.22844 8.43807 1.33301 7.3335 1.33301C6.22893 1.33301 5.3335 2.22844 5.3335 3.33301C5.3335 4.43758 6.22893 5.33301 7.3335 5.33301Z" fill="black"/>
<path d="M36.0002 7.33333C37.4729 7.33333 38.6668 6.13943 38.6668 4.66667C38.6668 3.19391 37.4729 2 36.0002 2C34.5274 2 33.3335 3.19391 33.3335 4.66667C33.3335 6.13943 34.5274 7.33333 36.0002 7.33333Z" fill="black"/>
</svg>
