<svg width="40" height="40" viewBox="0 0 40 40" fill="none" xmlns="http://www.w3.org/2000/svg">
<g clip-path="url(#clip0_21_873)">
<path d="M3.36262 24.4734C4.28582 24.8868 5.36918 24.677 6.07129 23.9487C6.83254 23.1813 7.71762 22.5475 8.68926 22.074C9.36965 21.7112 10.1229 21.5061 10.8932 21.474C10.3757 19.4793 10.9311 17.359 12.3599 15.874C10.7624 14.4628 8.76543 13.5835 6.6459 13.358C5.28239 13.1874 3.91582 13.6513 2.93793 14.6167C2.20106 15.351 1.62864 16.2337 1.25864 17.206C0.479104 18.9024 0.516682 20.862 1.36067 22.5273C1.74207 23.4168 2.4627 24.1173 3.36262 24.4734Z" fill="black"/>
<path d="M16.6998 24.6669C16.9229 24.6681 17.1458 24.6526 17.3665 24.6202V15.3802C17.1458 15.3479 16.9229 15.3322 16.6998 15.3336C14.1225 15.3336 12.0332 17.4229 12.0332 20.0002C12.0332 22.5775 14.1225 24.6669 16.6998 24.6669ZM15.8731 16.7736C16.2302 16.6833 16.5929 16.8997 16.6831 17.2569C16.7734 17.614 16.557 17.9767 16.1998 18.0669C15.3171 18.2935 14.7 19.089 14.7 20.0003C14.7 20.9115 15.3171 21.7071 16.1998 21.9337C16.5569 22.0239 16.7733 22.3865 16.6831 22.7437C16.5929 23.1008 16.2302 23.3172 15.8731 23.227C14.403 22.8458 13.3763 21.5191 13.3763 20.0004C13.3763 18.4816 14.403 17.1547 15.8731 16.7736Z" fill="black"/>
<path d="M14.6266 11.9867C14.9959 12.6658 15.2034 13.4209 15.2333 14.1933C15.7121 14.0675 16.2049 14.0026 16.6999 14C16.9227 13.9998 17.1454 14.0132 17.3666 14.04V4.12005C16.2739 3.95223 15.1563 4.14161 14.1799 4.66005C13.2904 5.03622 12.5924 5.75833 12.2466 6.66005C11.8164 7.57739 12.0204 8.66708 12.7532 9.36669C13.5247 10.125 14.1585 11.0115 14.6266 11.9867Z" fill="black"/>
<path d="M11.3133 33.7665C12.0522 34.4998 12.9353 35.0718 13.9066 35.4465C14.9859 35.9521 16.2005 36.0925 17.3666 35.8465V25.9598C17.1455 25.9866 16.9228 26 16.7 25.9998C15.1619 25.9992 13.6834 25.4045 12.5733 24.3398C11.1608 25.9378 10.2842 27.9381 10.0667 30.0598C9.88522 31.4219 10.3457 32.7909 11.3133 33.7665Z" fill="black"/>
<path d="M37.9467 18.6468H34.1067L36.8067 16.2868C37.3682 15.7971 37.4264 14.9449 36.9367 14.3834C36.447 13.8219 35.5948 13.7637 35.0333 14.2534L30.0067 18.6534H23.3933L26.7 12.9268L33.02 10.7668C33.1044 10.7422 33.1851 10.7063 33.26 10.6601C33.864 10.3134 34.1051 9.56412 33.8167 8.93021C33.5283 8.2963 32.8049 7.98584 32.1467 8.21349L28.7533 9.36685L30.6733 6.04685C30.9203 5.62841 30.9234 5.10959 30.6815 4.68826C30.4395 4.26693 29.9898 4.0081 29.504 4.0106C29.0181 4.0131 28.5711 4.27638 28.3333 4.70013L26.4133 8.02013L25.72 4.50677C25.6324 4.02873 25.2949 3.63459 24.8361 3.47443C24.3772 3.31427 23.8677 3.41287 23.5018 3.73255C23.1358 4.05224 22.9697 4.54388 23.0667 5.02005L24.3601 11.5734L21.3667 16.7601V23.2334L24.3601 28.4268L23.0667 34.9734C22.9616 35.4953 23.1728 36.0303 23.606 36.3397C24.0392 36.6492 24.6137 36.6754 25.0733 36.4068C25.4075 36.2065 25.6421 35.8751 25.72 35.4934L26.4133 31.9801L28.3333 35.3001C28.7094 35.9371 29.5281 36.1529 30.1693 35.7839C30.8104 35.4149 31.0352 34.5986 30.6733 33.9534L28.7533 30.6268L32.1467 31.7868C32.8547 32.0172 33.6175 31.6418 33.8667 30.9401C34.0997 30.2337 33.7228 29.4708 33.0201 29.2268L26.7001 27.0734L23.3934 21.3468H30.0068L35.0334 25.7468C35.4674 26.1315 36.0997 26.1934 36.6001 25.9001C36.723 25.8219 36.8351 25.7278 36.9334 25.6201C37.171 25.3499 37.2912 24.9962 37.2674 24.6372C37.2437 24.2781 37.0779 23.9433 36.8068 23.7068L34.1068 21.3534H37.9468C38.1837 21.3509 38.4158 21.2865 38.6201 21.1668C39.1522 20.8632 39.4127 20.2391 39.2546 19.6473C39.0964 19.0555 38.5593 18.6446 37.9467 18.6468Z" fill="black"/>
<path d="M20.0332 39.3334V0.666641C20.0332 0.298438 19.7348 0 19.3666 0C18.9984 0 18.7 0.298516 18.7 0.666641V39.3333C18.7 39.7015 18.9985 39.9999 19.3666 39.9999C19.7347 39.9999 20.0332 39.7016 20.0332 39.3334Z" fill="black"/>
</g>
<defs>
<clipPath id="clip0_21_873">
<rect width="40" height="40" fill="white"/>
</clipPath>
</defs>
</svg>
