<svg width="40" height="40" viewBox="0 0 40 40" fill="none" xmlns="http://www.w3.org/2000/svg">
<g clip-path="url(#clip0_21_845)">
<path d="M4.68147 9.80293L3.26538 8.98535L2.09351 11.015L3.5071 11.8312C3.8539 11.1329 4.24522 10.4553 4.68147 9.80293Z" fill="black"/>
<path d="M11.831 3.50734L11.0148 2.09375L8.98511 3.26562L9.80269 4.68164C10.455 4.24547 11.1326 3.85406 11.831 3.50734Z" fill="black"/>
<path d="M20 1.6032C20.3927 1.6032 20.7834 1.6168 21.1719 1.64109V0H18.8281V1.64109C19.2166 1.6168 19.6073 1.6032 20 1.6032Z" fill="black"/>
<path d="M20.0001 3.94678C11.1484 3.94678 3.94702 11.1481 3.94702 19.9998C3.94702 28.8515 11.1484 36.0529 20.0001 36.0529C28.8517 36.0529 36.0531 28.8515 36.0531 19.9998C36.0531 11.1481 28.8517 3.94678 20.0001 3.94678ZM20.0001 32.9393C12.8652 32.9393 7.06062 27.1347 7.06062 19.9998C7.06062 12.865 12.8652 7.06037 20.0001 7.06037C27.1349 7.06037 32.9395 12.865 32.9395 19.9998C32.9395 27.1347 27.1349 32.9393 20.0001 32.9393Z" fill="black"/>
<path d="M36.4927 11.8312L37.9063 11.015L36.7345 8.98535L35.3184 9.80293C35.7547 10.4553 36.146 11.1329 36.4927 11.8312Z" fill="black"/>
<path d="M20 9.4043C14.1575 9.4043 9.4043 14.1575 9.4043 20C9.4043 25.8425 14.1575 30.5957 20 30.5957C25.8425 30.5957 30.5957 25.8425 30.5957 20C30.5957 14.1575 25.8425 9.4043 20 9.4043ZM19.301 20.5908C19.301 22.5347 17.7195 24.1162 15.7756 24.1162C13.8317 24.1162 12.2502 22.5347 12.2502 20.5908V15.8837H14.594V20.5908C14.594 21.2423 15.1241 21.7724 15.7756 21.7724C16.4272 21.7724 16.9573 21.2423 16.9573 20.5908V15.8837H19.301V20.5908ZM25.1571 23.84H23.2916L20.699 19.6063V15.8838H23.0427V18.9457L24.2244 20.8752L25.406 18.9457V15.8838H27.7498V19.6063L25.1571 23.84Z" fill="black"/>
<path d="M30.1972 4.68164L31.0148 3.26562L28.9851 2.09375L28.1689 3.50734C28.8673 3.85406 29.5449 4.24547 30.1972 4.68164Z" fill="black"/>
<path d="M1.6032 20C1.6032 19.6073 1.6168 19.2166 1.64109 18.8281H0V21.1719H1.64109C1.6168 20.7834 1.6032 20.3927 1.6032 20Z" fill="black"/>
<path d="M38.3589 18.8281C38.3832 19.2166 38.3968 19.6073 38.3968 20C38.3968 20.3927 38.3832 20.7834 38.3589 21.1719H40V18.8281H38.3589Z" fill="black"/>
<path d="M35.3186 30.1972L36.7347 31.0148L37.9066 28.9851L36.493 28.1689C36.1462 28.8673 35.7549 29.5449 35.3186 30.1972Z" fill="black"/>
<path d="M28.1689 36.4927L28.9851 37.9062L31.0148 36.7344L30.1972 35.3184C29.5449 35.7545 28.8673 36.1459 28.1689 36.4927Z" fill="black"/>
<path d="M3.50718 28.1689L2.09351 28.9851L3.26538 31.0148L4.68147 30.1972C4.24522 29.5449 3.8539 28.8673 3.50718 28.1689Z" fill="black"/>
<path d="M9.80269 35.3184L8.98511 36.7344L11.0148 37.9062L11.831 36.4927C11.1326 36.1459 10.455 35.7545 9.80269 35.3184Z" fill="black"/>
<path d="M20 38.3968C19.6073 38.3968 19.2166 38.3832 18.8281 38.3589V40H21.1719V38.3589C20.7834 38.3832 20.3927 38.3968 20 38.3968Z" fill="black"/>
</g>
<defs>
<clipPath id="clip0_21_845">
<rect width="40" height="40" fill="white"/>
</clipPath>
</defs>
</svg>
