<svg width="40" height="26" viewBox="0 0 40 26" fill="none" xmlns="http://www.w3.org/2000/svg">
<path fill-rule="evenodd" clip-rule="evenodd" d="M0.749985 13C0.749985 13.3646 0.894848 13.7144 1.15271 13.9722C1.41057 14.2301 1.76031 14.375 2.12498 14.375L34.5557 14.375L25.9015 23.0265C25.7736 23.1543 25.6722 23.3061 25.603 23.4731C25.5339 23.6402 25.4982 23.8192 25.4982 24C25.4982 24.1808 25.5339 24.3598 25.603 24.5268C25.6722 24.6939 25.7736 24.8456 25.9015 24.9735C26.0293 25.1013 26.1811 25.2027 26.3481 25.2719C26.5152 25.3411 26.6942 25.3767 26.875 25.3767C27.0558 25.3767 27.2348 25.3411 27.4018 25.2719C27.5689 25.2027 27.7206 25.1013 27.8485 24.9735L38.8485 13.9735C38.9765 13.8457 39.0781 13.694 39.1474 13.527C39.2168 13.3599 39.2524 13.1808 39.2524 13C39.2524 12.8191 39.2168 12.64 39.1474 12.473C39.0781 12.3059 38.9765 12.1542 38.8485 12.0265L27.8485 1.02647C27.7206 0.89863 27.5689 0.79722 27.4018 0.728033C27.2348 0.658846 27.0558 0.623236 26.875 0.623238C26.6942 0.623236 26.5152 0.658846 26.3481 0.728033C26.1811 0.79722 26.0293 0.89863 25.9015 1.02647C25.7736 1.15431 25.6722 1.30608 25.603 1.47312C25.5339 1.64015 25.4982 1.81918 25.4982 1.99997C25.4982 2.18077 25.5339 2.35979 25.603 2.52683C25.6722 2.69386 25.7736 2.84563 25.9015 2.97347L34.5557 11.625L2.12498 11.625C1.76031 11.625 1.41057 11.7698 1.15271 12.0277C0.894848 12.2856 0.749985 12.6353 0.749985 13Z" fill="#334483"/>
</svg>
