<?xml version="1.0" encoding="UTF-8"?> <svg xmlns="http://www.w3.org/2000/svg" width="1958" height="1147" viewBox="0 0 1958 1147" fill="none"> <path d="M0 675.737L1255.9 0L1957.8 181.941L746.838 1034.96L0 675.737Z" fill="#1886D3"></path> <path d="M746.519 1033.01L1957.8 181.944L1950.57 254.757L746.519 1104.42V1033.01Z" fill="#18659C"></path> <path d="M0 675.737L746.52 1033.01V1104.66L2.75852 743.276L0 675.737Z" fill="#46ADF5"></path> <path d="M1285.02 759.055L1285.91 748.151L1283.82 745.211L1267.71 756.662L1270.32 760.344L1281.07 752.71L1280.23 762.913L1282.37 765.918L1284.53 764.383C1288.11 761.839 1290.65 762.12 1292.16 764.248C1293.72 766.442 1292.85 769.148 1289.71 771.383C1287.04 773.277 1283.82 774.192 1281.12 773.973L1281.66 778.729C1285.08 778.892 1289.14 777.528 1292.49 775.15C1298.84 770.637 1299.4 765.054 1296.56 761.068C1294.04 757.523 1289.89 756.462 1285.02 759.055Z" fill="#212121"></path> <path d="M1314.59 759.449C1320.23 755.441 1321.36 748.023 1315.84 740.255C1310.32 732.484 1302.94 731.117 1297.3 735.128C1291.69 739.113 1290.55 746.528 1296.08 754.299C1301.6 762.067 1308.98 763.434 1314.59 759.449ZM1311.87 755.632C1308.66 757.913 1304.56 756.861 1300.5 751.153C1296.45 745.445 1296.8 741.226 1300.01 738.944C1303.26 736.638 1307.36 737.69 1311.41 743.398C1315.47 749.109 1315.12 753.329 1311.87 755.632Z" fill="#212121"></path> <path d="M1324.31 730.218L1322.05 731.826L1318.66 725.996L1328.83 718.768L1326.22 715.085L1312.33 724.954L1320.26 738.689L1325.97 734.631C1330.87 731.152 1333.33 731.535 1334.94 733.801C1336.52 736.03 1335.65 738.735 1332.51 740.967C1329.84 742.864 1326.62 743.776 1323.89 743.582L1324.46 748.313C1327.85 748.501 1331.94 747.115 1335.29 744.737C1341.64 740.224 1342.2 734.641 1339.24 730.487C1336.27 726.299 1331.3 725.25 1324.31 730.218Z" fill="#212121"></path> <path d="M1357.04 729.276C1362.68 725.269 1363.82 717.85 1358.3 710.083C1352.78 702.312 1345.4 700.945 1339.76 704.955C1334.15 708.94 1333.01 716.355 1338.53 724.126C1344.06 731.894 1351.43 733.261 1357.04 729.276ZM1354.33 725.459C1351.12 727.74 1347.02 726.689 1342.96 720.981C1338.9 715.273 1339.26 711.053 1342.47 708.772C1345.71 706.466 1349.82 707.517 1353.87 713.225C1357.93 718.936 1357.57 723.156 1354.33 725.459Z" fill="#212121"></path> <path d="M1401.91 696.884L1389.06 678.871L1385.11 681.68L1386.4 697.74L1371.96 691.017L1367.54 694.163L1380.35 712.202L1384.21 709.465L1375.69 697.471L1388.84 703.323L1390.67 702.028L1389.59 687.64L1398.09 699.596L1401.91 696.884Z" fill="#212121"></path> <path d="M1429.13 677.544L1416.28 659.527L1412.32 662.336L1413.62 678.396L1399.18 671.677L1394.76 674.82L1407.57 692.862L1411.43 690.125L1402.91 678.131L1416.06 683.983L1417.89 682.688L1416.81 668.297L1425.31 680.256L1429.13 677.544Z" fill="#212121"></path> <path fill-rule="evenodd" clip-rule="evenodd" d="M749.363 1143.41C748.736 1143.3 748.318 1142.71 748.424 1142.08L750.196 1131.87C750.306 1131.24 750.902 1130.83 751.526 1130.94C752.153 1131.04 752.571 1131.64 752.465 1132.26L751.17 1139.74L1268.39 775.421L1269.71 777.303L752.493 1141.62L759.965 1142.91C760.592 1143.02 761.011 1143.62 760.901 1144.25C760.795 1144.87 760.199 1145.29 759.572 1145.18L749.363 1143.41Z" fill="#212121"></path> <path fill-rule="evenodd" clip-rule="evenodd" d="M1940.57 292.26L1950.78 294.03C1951.4 294.136 1951.83 294.732 1951.72 295.359L1949.95 305.568C1949.84 306.195 1949.24 306.613 1948.62 306.507C1947.99 306.398 1947.57 305.802 1947.68 305.174L1948.97 297.706L1428.58 664.49L1427.26 662.605L1947.65 295.824L1940.18 294.529C1939.55 294.42 1939.13 293.824 1939.24 293.2C1939.35 292.572 1939.94 292.151 1940.57 292.26Z" fill="#212121"></path> <path d="M298.09 905.486L296.116 909.55L301.633 912.231L290.925 934.261L295.771 936.614L308.452 910.524L298.09 905.486Z" fill="#212121"></path> <path d="M320.627 928.79C317.718 927.376 314.788 927.058 312.335 928.122L312.353 928.085C315.234 922.158 319.812 920.607 324.731 922.998C326.56 923.884 328.111 925.054 329.075 926.674L332.64 923.89C331.432 921.921 329.203 920.148 326.594 918.881C319.029 915.202 311.417 917.586 307.07 926.534C302.994 934.92 304.941 941.533 312.06 944.994C317.391 947.584 323.196 946.352 325.714 941.171C328.089 936.287 325.77 931.29 320.627 928.79ZM313.649 941.065C310.181 939.379 309.186 936.499 310.381 934.04C311.629 931.468 314.716 930.616 317.846 932.139C321.017 933.678 322.231 936.39 320.911 939.111C319.588 941.832 316.667 942.531 313.649 941.065Z" fill="#212121"></path> <path d="M335.021 956.151C341.244 959.178 348.298 956.613 352.464 948.04C356.631 939.467 354.29 932.339 348.064 929.315C341.878 926.306 334.824 928.872 330.658 937.445C326.491 946.018 328.832 953.146 335.021 956.151ZM337.068 951.941C333.526 950.218 332.481 946.114 335.542 939.816C338.604 933.519 342.477 931.805 346.016 933.528C349.596 935.266 350.641 939.37 347.58 945.668C344.518 951.966 340.645 953.679 337.068 951.941Z" fill="#212121"></path> <path d="M360.101 968.341C366.324 971.365 373.378 968.803 377.544 960.23C381.711 951.657 379.37 944.529 373.143 941.505C366.958 938.496 359.904 941.058 355.738 949.631C351.571 958.204 353.912 965.332 360.101 968.341ZM362.148 964.128C358.606 962.408 357.56 958.304 360.622 952.006C363.684 945.705 367.557 943.995 371.096 945.715C374.676 947.456 375.721 951.557 372.66 957.858C369.598 964.156 365.725 965.869 362.148 964.128Z" fill="#212121"></path> <path d="M410.052 992.156L419.69 972.236L415.33 970.114L401.86 978.958L400.83 963.067L395.945 960.695L386.27 980.6L390.521 982.666L396.95 969.433L398.133 983.783L400.146 984.763L412.252 976.914L405.839 990.109L410.052 992.156Z" fill="#212121"></path> <path d="M440.082 1006.75L449.72 986.829L445.36 984.71L431.89 993.554L430.86 977.663L425.975 975.291L416.304 995.196L420.551 997.259L426.983 984.026L428.163 998.379L430.176 999.356L442.286 991.51L435.872 1004.71L440.082 1006.75Z" fill="#212121"></path> <path fill-rule="evenodd" clip-rule="evenodd" d="M6.2116 785.948C6.0035 785.349 6.32187 784.693 6.92265 784.484L16.7132 781.095C17.314 780.886 17.9697 781.204 18.1778 781.803C18.3859 782.406 18.0675 783.061 17.4667 783.27L10.3025 785.751L285.244 919.228L284.238 921.3L9.29689 787.82L11.7782 794.986C11.9863 795.585 11.668 796.244 11.0672 796.45C10.4664 796.659 9.8107 796.34 9.60259 795.738L6.2116 785.948Z" fill="#212121"></path> <path fill-rule="evenodd" clip-rule="evenodd" d="M745.162 1142.07C745.371 1142.67 745.053 1143.32 744.454 1143.53L734.666 1146.94C734.064 1147.14 733.409 1146.83 733.199 1146.22C732.99 1145.63 733.309 1144.97 733.911 1144.76L741.07 1142.27L451.158 1001.88L452.16 999.812L742.075 1140.2L739.588 1133.04C739.379 1132.44 739.694 1131.78 740.296 1131.57C740.896 1131.36 741.554 1131.68 741.76 1132.28L745.162 1142.07Z" fill="#212121"></path> </svg> 