<svg width="659" height="439" viewBox="0 0 659 439" fill="none" xmlns="http://www.w3.org/2000/svg">
<g clip-path="url(#clip0_21_211)">
<path d="M0 280.406L422.696 53L658.933 114.229L251.362 401.295L0 280.406Z" fill="#566EAE"/>
<path d="M251.254 400.639L658.933 114.23L656.499 138.733L251.254 424.671V400.639Z" fill="#2A3F78"/>
<path d="M0 280.406L251.255 400.639V424.751L0.928429 303.135L0 280.406Z" fill="#6883CC"/>
<path d="M432.496 308.445L432.796 304.775L432.093 303.786L426.67 307.639L427.549 308.879L431.167 306.31L430.884 309.743L431.605 310.754L432.332 310.238C433.536 309.382 434.391 309.476 434.9 310.192C435.425 310.931 435.132 311.841 434.075 312.594C433.176 313.231 432.093 313.539 431.184 313.465L431.366 315.066C432.517 315.121 433.883 314.662 435.011 313.861C437.148 312.343 437.336 310.464 436.38 309.122C435.532 307.929 434.136 307.572 432.496 308.445Z" fill="#212121"/>
<path d="M442.449 308.577C444.347 307.229 444.727 304.732 442.869 302.118C441.012 299.503 438.528 299.043 436.629 300.393C434.741 301.734 434.358 304.229 436.219 306.844C438.077 309.458 440.561 309.919 442.449 308.577ZM441.533 307.293C440.453 308.061 439.073 307.707 437.706 305.786C436.343 303.865 436.461 302.445 437.542 301.677C438.635 300.901 440.015 301.255 441.378 303.176C442.745 305.098 442.627 306.518 441.533 307.293Z" fill="#212121"/>
<path d="M445.72 298.74L444.959 299.281L443.818 297.319L447.241 294.887L446.363 293.648L441.688 296.969L444.357 301.591L446.279 300.225C447.928 299.055 448.756 299.184 449.298 299.946C449.83 300.696 449.537 301.607 448.48 302.358C447.581 302.996 446.498 303.303 445.579 303.238L445.771 304.83C446.912 304.893 448.288 304.427 449.416 303.626C451.553 302.108 451.741 300.229 450.745 298.831C449.745 297.421 448.073 297.068 445.72 298.74Z" fill="#212121"/>
<path d="M456.736 298.423C458.635 297.075 459.018 294.578 457.161 291.964C455.303 289.349 452.819 288.889 450.921 290.239C449.032 291.58 448.649 294.075 450.507 296.69C452.368 299.304 454.848 299.764 456.736 298.423ZM455.824 297.139C454.744 297.906 453.364 297.553 451.998 295.632C450.631 293.711 450.752 292.291 451.833 291.523C452.923 290.747 454.306 291.101 455.669 293.022C457.036 294.944 456.915 296.364 455.824 297.139Z" fill="#212121"/>
<path d="M471.838 287.522L467.513 281.46L466.184 282.406L466.618 287.81L461.758 285.548L460.27 286.607L464.581 292.677L465.881 291.756L463.013 287.72L467.439 289.689L468.055 289.253L467.691 284.411L470.552 288.435L471.838 287.522Z" fill="#212121"/>
<path d="M480.999 281.014L476.675 274.951L475.342 275.896L475.779 281.301L470.919 279.04L469.432 280.097L473.743 286.169L475.042 285.248L472.175 281.211L476.601 283.181L477.216 282.745L476.853 277.902L479.714 281.927L480.999 281.014Z" fill="#212121"/>
<path fill-rule="evenodd" clip-rule="evenodd" d="M252.212 437.792C252.001 437.755 251.86 437.556 251.896 437.344L252.492 433.908C252.529 433.696 252.73 433.558 252.94 433.595C253.151 433.629 253.291 433.831 253.256 434.04L252.82 436.557L426.9 313.953L427.344 314.586L253.265 437.189L255.78 437.624C255.991 437.661 256.132 437.863 256.095 438.075C256.059 438.283 255.859 438.425 255.648 438.388L252.212 437.792Z" fill="#212121"/>
<path fill-rule="evenodd" clip-rule="evenodd" d="M653.134 151.354L656.57 151.95C656.779 151.986 656.924 152.186 656.887 152.397L656.291 155.833C656.254 156.044 656.052 156.185 655.843 156.149C655.631 156.112 655.49 155.912 655.527 155.7L655.961 153.187L480.814 276.621L480.37 275.987L655.517 152.554L653.003 152.118C652.791 152.081 652.649 151.881 652.686 151.671C652.723 151.459 652.922 151.318 653.134 151.354Z" fill="#212121"/>
<path d="M100.328 357.723L99.6631 359.091L101.52 359.993L97.916 367.407L99.547 368.199L103.815 359.419L100.328 357.723Z" fill="#212121"/>
<path d="M107.913 365.566C106.934 365.09 105.948 364.983 105.122 365.341L105.128 365.329C106.098 363.334 107.638 362.812 109.294 363.617C109.91 363.915 110.432 364.308 110.756 364.854L111.956 363.917C111.549 363.254 110.799 362.657 109.921 362.231C107.375 360.993 104.813 361.795 103.35 364.807C101.978 367.629 102.633 369.854 105.029 371.019C106.824 371.891 108.777 371.476 109.625 369.732C110.424 368.089 109.644 366.407 107.913 365.566ZM105.564 369.697C104.397 369.129 104.062 368.16 104.464 367.333C104.884 366.467 105.923 366.18 106.977 366.693C108.044 367.211 108.453 368.123 108.008 369.039C107.563 369.955 106.58 370.19 105.564 369.697Z" fill="#212121"/>
<path d="M112.757 374.774C114.852 375.792 117.226 374.929 118.628 372.044C120.03 369.159 119.242 366.76 117.147 365.742C115.065 364.73 112.691 365.593 111.289 368.478C109.886 371.363 110.674 373.762 112.757 374.774ZM113.446 373.357C112.254 372.777 111.902 371.396 112.933 369.276C113.963 367.157 115.267 366.58 116.458 367.16C117.663 367.745 118.014 369.126 116.984 371.246C115.954 373.365 114.65 373.942 113.446 373.357Z" fill="#212121"/>
<path d="M121.199 378.876C123.293 379.893 125.667 379.031 127.069 376.146C128.472 373.261 127.684 370.862 125.588 369.845C123.506 368.832 121.132 369.694 119.73 372.579C118.328 375.464 119.116 377.863 121.199 378.876ZM121.888 377.458C120.695 376.879 120.343 375.498 121.374 373.379C122.404 371.258 123.708 370.683 124.899 371.262C126.104 371.847 126.456 373.227 125.426 375.348C124.395 377.467 123.091 378.044 121.888 377.458Z" fill="#212121"/>
<path d="M138.01 386.89L141.254 380.187L139.787 379.473L135.253 382.449L134.906 377.101L133.262 376.303L130.006 383.001L131.437 383.697L133.6 379.243L133.999 384.073L134.676 384.402L138.751 381.761L136.592 386.201L138.01 386.89Z" fill="#212121"/>
<path d="M148.118 391.802L151.362 385.098L149.894 384.385L145.361 387.361L145.014 382.013L143.37 381.215L140.115 387.913L141.544 388.608L143.709 384.154L144.106 388.985L144.784 389.313L148.859 386.673L146.701 391.115L148.118 391.802Z" fill="#212121"/>
<path fill-rule="evenodd" clip-rule="evenodd" d="M2.09054 317.495C2.0205 317.294 2.12765 317.073 2.32985 317.002L5.62504 315.862C5.82725 315.792 6.04794 315.899 6.11798 316.1C6.18802 316.303 6.08085 316.524 5.87864 316.594L3.4674 317.429L96.0039 362.348L95.6653 363.045L3.12895 318.125L3.96408 320.537C4.03412 320.738 3.92699 320.96 3.72478 321.029C3.52257 321.1 3.30188 320.992 3.23184 320.79L2.09054 317.495Z" fill="#212121"/>
<path fill-rule="evenodd" clip-rule="evenodd" d="M250.798 437.341C250.868 437.543 250.761 437.762 250.559 437.832L247.265 438.98C247.062 439.047 246.842 438.943 246.771 438.737C246.701 438.539 246.808 438.317 247.011 438.246L249.42 437.408L151.845 390.163L152.182 389.467L249.759 436.712L248.922 434.302C248.851 434.1 248.957 433.878 249.16 433.807C249.362 433.737 249.583 433.844 249.653 434.046L250.798 437.341Z" fill="#212121"/>
</g>
<g clip-path="url(#clip1_21_211)">
<path d="M495.416 17.7236L494.983 19.3577L497.197 19.9473L494.845 28.8069L496.79 29.3249L499.573 18.8311L495.416 17.7236Z" fill="#212121"/>
<path d="M504.956 24.9039L508.303 22.553L508.649 21.2488L501.515 19.3485L501.082 20.9826L505.837 22.2494L502.708 24.4492L502.355 25.7835L503.313 26.0384C504.899 26.4607 505.423 27.2586 505.171 28.203C504.913 29.1774 503.928 29.573 502.537 29.2024C501.357 28.8878 500.326 28.1802 499.744 27.3514L498.508 28.6424C499.277 29.6659 500.638 30.51 502.12 30.9044C504.929 31.6533 506.667 30.4788 507.134 28.7099C507.55 27.1358 506.865 25.6847 504.956 24.9039Z" fill="#212121"/>
<path d="M511.898 33.5098C514.395 34.1751 516.798 32.7283 517.708 29.2804C518.622 25.8325 517.258 23.3817 514.758 22.7164C512.278 22.0551 509.876 23.5019 508.962 26.9499C508.048 30.3978 509.415 32.8486 511.898 33.5098ZM512.345 31.8159C510.927 31.4375 510.249 30.0053 510.921 27.4718C511.593 24.9383 512.89 24.032 514.311 24.4104C515.746 24.7929 516.421 26.225 515.749 28.7586C515.081 31.292 513.784 32.1984 512.345 31.8159Z" fill="#212121"/>
<path d="M521.959 36.1903C524.456 36.8556 526.859 35.4087 527.773 31.961C528.687 28.5131 527.319 26.0622 524.822 25.397C522.339 24.7356 519.94 26.1825 519.022 29.6304C518.112 33.0784 519.479 35.529 521.959 36.1903ZM522.41 34.4965C520.988 34.1182 520.313 32.6858 520.981 30.1523C521.653 27.6188 522.951 26.7124 524.372 27.0909C525.807 27.4733 526.486 28.9056 525.814 31.439C525.141 33.9726 523.844 34.8788 522.41 34.4965Z" fill="#212121"/>
<path d="M541.967 41.3596L544.074 33.3506L542.323 32.8845L538.022 37.0988L536.506 31.3348L534.547 30.8129L532.427 38.8179L534.13 39.2723L535.542 33.9504L537 39.1379L537.807 39.3528L541.684 35.6028L540.276 40.9095L541.967 41.3596Z" fill="#212121"/>
<path d="M554.013 44.5693L556.12 36.5601L554.369 36.0939L550.068 40.3082L548.553 34.5443L546.594 34.0225L544.473 42.0276L546.177 42.4817L547.588 37.1598L549.047 42.3473L549.856 42.5625L553.731 38.8121L552.323 44.1192L554.013 44.5693Z" fill="#212121"/>
<path fill-rule="evenodd" clip-rule="evenodd" d="M411.6 2.32972C411.493 2.14438 411.556 1.90712 411.741 1.79989L414.755 0.0521637C414.94 -0.0550649 415.175 0.00832772 415.283 0.193665C415.391 0.379002 415.327 0.616275 415.142 0.723501L412.938 2.00236L491.72 23.0889L491.522 23.8382L412.736 2.7517L414.013 4.9623C414.12 5.14762 414.057 5.38491 413.872 5.49214C413.687 5.59936 413.452 5.53606 413.344 5.35061L411.6 2.32972Z" fill="#212121"/>
<path fill-rule="evenodd" clip-rule="evenodd" d="M644.946 64.0091C645.054 64.1941 644.993 64.4316 644.808 64.539L641.797 66.2911C641.613 66.3986 641.374 66.3359 641.267 66.1506C641.159 65.9653 641.223 65.7278 641.408 65.6204L643.612 64.3382L558.438 41.6758L558.637 40.9263L643.81 63.5887L642.53 61.3798C642.423 61.1949 642.486 60.9574 642.671 60.8499C642.856 60.7425 643.091 60.8055 643.199 60.9907L644.946 64.0091Z" fill="#212121"/>
<path d="M24.5935 225.825L411.096 15.4612L639.482 77.1027L254.933 335.408L24.5935 225.825Z" fill="#9BBD3A"/>
<path d="M254.931 335.408L639.479 77.1028L637.826 90.7609L254.825 348.805L254.931 335.408Z" fill="#6F920E"/>
<path d="M24.5935 225.825L254.933 335.409L254.826 348.805L25.261 237.154L24.5935 225.825Z" fill="#B9DE4F"/>
<path fill-rule="evenodd" clip-rule="evenodd" d="M22.2769 213.073C22.0721 213.012 21.9553 212.796 22.0161 212.59L23.0065 209.245C23.0672 209.039 23.2826 208.923 23.4874 208.984C23.6922 209.045 23.8089 209.26 23.7481 209.466L23.0234 211.914L181.975 125.496L182.344 126.179L23.3922 212.596L25.8345 213.322C26.0393 213.383 26.1561 213.598 26.0953 213.805C26.0345 214.009 25.8193 214.126 25.6144 214.065L22.2769 213.073Z" fill="#212121"/>
<path fill-rule="evenodd" clip-rule="evenodd" d="M409.419 3.26038L249.262 90.1164L248.895 89.4339L409.053 2.57821L406.61 1.84916C406.405 1.78797 406.287 1.57205 406.348 1.36674C406.408 1.16153 406.627 1.04474 406.832 1.10581L410.169 2.1022C410.37 2.16328 410.488 2.37931 410.427 2.58452L409.433 5.92931C409.372 6.13453 409.157 6.25142 408.952 6.19025C408.747 6.12917 408.63 5.91314 408.693 5.70791L409.419 3.26038Z" fill="#212121"/>
<path d="M190.417 119.921L191.226 115.907L190.581 114.722L184.104 118.27L184.912 119.753L189.231 117.389L188.473 121.144L189.134 122.355L190.004 121.879C191.442 121.091 192.371 121.307 192.838 122.165C193.32 123.049 192.878 124.016 191.615 124.708C190.543 125.296 189.31 125.493 188.319 125.294L188.309 127.085C189.569 127.296 191.136 126.968 192.48 126.231C195.034 124.833 195.485 122.783 194.61 121.177C193.831 119.747 192.335 119.17 190.417 119.921Z" fill="#212121"/>
<path d="M201.361 121.367C203.629 120.126 204.375 117.419 202.669 114.288C200.963 111.157 198.288 110.325 196.02 111.567C193.766 112.801 193.019 115.509 194.725 118.639C196.432 121.77 199.107 122.602 201.361 121.367ZM200.523 119.829C199.233 120.536 197.758 119.965 196.504 117.665C195.251 115.364 195.569 113.812 196.859 113.105C198.162 112.391 199.637 112.962 200.891 115.263C202.144 117.563 201.827 119.115 200.523 119.829Z" fill="#212121"/>
<path d="M206.249 110.931L205.34 111.43L204.342 109.113L208.428 106.874L207.62 105.39L202.04 108.447L204.377 113.901L206.672 112.644C208.641 111.565 209.536 111.817 210.033 112.729C210.522 113.628 210.08 114.595 208.817 115.287C207.745 115.874 206.513 116.072 205.509 115.879L205.511 117.664C206.758 117.881 208.338 117.546 209.683 116.81C212.236 115.412 212.687 113.362 211.775 111.687C210.855 109.999 209.061 109.391 206.249 110.931Z" fill="#212121"/>
<path d="M218.427 112.021C220.694 110.779 221.441 108.072 219.735 104.941C218.029 101.811 215.354 100.978 213.085 102.22C210.832 103.455 210.085 106.161 211.791 109.291C213.498 112.423 216.173 113.254 218.427 112.021ZM217.589 110.482C216.299 111.189 214.824 110.618 213.57 108.318C212.317 106.017 212.634 104.465 213.924 103.757C215.228 103.044 216.702 103.615 217.957 105.916C219.21 108.216 218.893 109.769 217.589 110.482Z" fill="#212121"/>
<path d="M236.484 101.954L232.508 94.6935L230.92 95.5629L230.696 101.59L225.639 98.456L223.859 99.4306L227.821 106.699L229.368 105.852L226.735 101.019L231.357 103.773L232.09 103.372L232.323 97.9766L234.95 102.795L236.484 101.954Z" fill="#212121"/>
<path d="M247.423 95.9626L243.447 88.7013L241.859 89.5718L241.636 95.5977L236.578 92.4648L234.798 93.4384L238.76 100.708L240.308 99.8595L237.675 95.0278L242.296 97.781L243.029 97.3795L243.263 91.9844L245.889 96.8034L247.423 95.9626Z" fill="#212121"/>
</g>
<defs>
<clipPath id="clip0_21_211">
<rect width="659" height="386" fill="white" transform="translate(0 53)"/>
</clipPath>
<clipPath id="clip1_21_211">
<rect width="623" height="349" fill="white" transform="translate(22)"/>
</clipPath>
</defs>
</svg>
