<?xml version="1.0" encoding="UTF-8"?> <svg xmlns="http://www.w3.org/2000/svg" width="1854" height="1036" viewBox="0 0 1854 1036" fill="none"> <path d="M1408.85 52.6123L1407.56 57.4631L1414.15 59.2131L1407.15 85.5127L1412.94 87.0503L1421.22 55.8999L1408.85 52.6123Z" fill="#212121"></path> <path d="M1437.24 73.9267L1447.2 66.948L1448.23 63.0765L1427 57.4356L1425.71 62.2863L1439.86 66.0467L1430.55 72.577L1429.5 76.5377L1432.35 77.2945C1437.07 78.548 1438.63 80.9166 1437.88 83.7199C1437.11 86.6124 1434.18 87.7867 1430.04 86.6867C1426.53 85.7527 1423.46 83.6522 1421.73 81.1919L1418.05 85.0243C1420.34 88.0626 1424.39 90.5682 1428.8 91.739C1437.16 93.9622 1442.33 90.4758 1443.72 85.2247C1444.96 80.5521 1442.92 76.2444 1437.24 73.9267Z" fill="#212121"></path> <path d="M1457.9 99.4733C1465.33 101.448 1472.48 97.1534 1475.19 86.9183C1477.91 76.6832 1473.85 69.408 1466.41 67.4333C1459.03 65.4701 1451.88 69.765 1449.16 80.0001C1446.44 90.2353 1450.51 97.5104 1457.9 99.4733ZM1459.23 94.445C1455.01 93.3216 1452.99 89.07 1454.99 81.5496C1456.99 74.0288 1460.85 71.3385 1465.08 72.4619C1469.35 73.5972 1471.36 77.8485 1469.36 85.3692C1467.37 92.8897 1463.51 95.5803 1459.23 94.445Z" fill="#212121"></path> <path d="M1487.84 107.43C1495.27 109.405 1502.42 105.11 1505.14 94.8754C1507.86 84.6403 1503.79 77.3651 1496.36 75.3903C1488.97 73.4271 1481.83 77.7221 1479.1 87.9572C1476.39 98.1923 1480.46 105.467 1487.84 107.43ZM1489.18 102.402C1484.95 101.279 1482.94 97.027 1484.93 89.5063C1486.93 81.9858 1490.79 79.2952 1495.02 80.4186C1499.29 81.5539 1501.31 85.8055 1499.31 93.326C1497.31 100.847 1493.45 103.537 1489.18 102.402Z" fill="#212121"></path> <path d="M1547.38 122.775L1553.65 99.0005L1548.44 97.6168L1535.64 110.127L1531.13 93.0167L1525.3 91.4673L1518.99 115.23L1524.06 116.579L1528.26 100.781L1532.6 116.18L1535 116.818L1546.54 105.686L1542.35 121.439L1547.38 122.775Z" fill="#212121"></path> <path d="M1583.23 132.303L1589.5 108.528L1584.29 107.144L1571.49 119.654L1566.98 102.544L1561.15 100.995L1554.84 124.758L1559.91 126.106L1564.11 110.308L1568.45 125.707L1570.86 126.346L1582.39 115.213L1578.2 130.967L1583.23 132.303Z" fill="#212121"></path> <path fill-rule="evenodd" clip-rule="evenodd" d="M1159.42 6.91573C1159.1 6.36556 1159.29 5.66124 1159.84 5.34293L1168.81 0.154847C1169.36 -0.163459 1170.06 0.0247208 1170.38 0.574891C1170.7 1.12506 1170.51 1.8294 1169.96 2.1477L1163.4 5.94397L1397.85 68.5389L1397.26 70.7633L1162.8 8.16837L1166.6 14.7305C1166.92 15.2806 1166.73 15.985 1166.18 16.3033C1165.63 16.6216 1164.93 16.4337 1164.61 15.8832L1159.42 6.91573Z" fill="#212121"></path> <path fill-rule="evenodd" clip-rule="evenodd" d="M1853.84 190.01C1854.16 190.559 1853.98 191.264 1853.43 191.583L1844.47 196.784C1843.92 197.103 1843.21 196.917 1842.89 196.367C1842.57 195.817 1842.76 195.112 1843.31 194.793L1849.87 190.987L1596.4 123.714L1596.99 121.489L1850.46 188.762L1846.65 182.205C1846.33 181.656 1846.52 180.951 1847.07 180.632C1847.62 180.313 1848.32 180.5 1848.64 181.05L1853.84 190.01Z" fill="#212121"></path> <path d="M7.718 670.357L1157.92 45.8964L1837.58 228.878L693.19 995.653L7.718 670.357Z" fill="#CFBEAB"></path> <path d="M693.183 995.653L1837.57 228.878L1832.65 269.422L692.868 1035.42L693.183 995.653Z" fill="#9A948E"></path> <path d="M7.718 670.356L693.19 995.656L692.871 1035.42L9.70441 703.988L7.718 670.356Z" fill="#DED1C3"></path> <path fill-rule="evenodd" clip-rule="evenodd" d="M0.823967 632.503C0.214487 632.322 -0.133007 631.682 0.0478707 631.071L2.99522 621.141C3.17604 620.529 3.81679 620.183 4.4263 620.364C5.03575 620.545 5.38321 621.184 5.20233 621.796L3.04565 629.064L476.073 372.534L477.172 374.559L4.14322 631.086L11.4113 633.243C12.0207 633.424 12.3682 634.063 12.1874 634.675C12.0065 635.283 11.3658 635.63 10.7563 635.449L0.823967 632.503Z" fill="#212121"></path> <path fill-rule="evenodd" clip-rule="evenodd" d="M1152.93 9.67843L676.316 267.509L675.221 265.483L1151.84 7.65343L1144.57 5.48926C1143.96 5.30763 1143.61 4.66666 1143.79 4.0572C1143.97 3.44805 1144.62 3.10134 1145.23 3.28265L1155.16 6.24041C1155.76 6.42172 1156.11 7.063 1155.93 7.67215L1152.97 17.6011C1152.79 18.2103 1152.15 18.5573 1151.54 18.3757C1150.93 18.1944 1150.58 17.5531 1150.77 16.9439L1152.93 9.67843Z" fill="#212121"></path> <path d="M501.195 355.982L503.604 344.068L501.685 340.551L482.408 351.083L484.814 355.486L497.666 348.468L495.412 359.615L497.378 363.21L499.966 361.796C504.247 359.455 507.012 360.098 508.401 362.645C509.836 365.269 508.519 368.14 504.762 370.194C501.57 371.938 497.903 372.525 494.954 371.932L494.922 377.249C498.674 377.877 503.336 376.903 507.337 374.715C514.936 370.565 516.278 364.48 513.675 359.711C511.356 355.467 506.903 353.754 501.195 355.982Z" fill="#212121"></path> <path d="M533.766 360.276C540.513 356.591 542.735 348.555 537.658 339.262C532.58 329.968 524.619 327.497 517.869 331.186C511.163 334.849 508.941 342.885 514.018 352.178C519.096 361.471 527.056 363.943 533.766 360.276ZM531.27 355.711C527.431 357.808 523.043 356.113 519.311 349.285C515.582 342.457 516.527 337.848 520.366 335.751C524.245 333.632 528.633 335.327 532.365 342.155C536.094 348.983 535.152 353.592 531.27 355.711Z" fill="#212121"></path> <path d="M548.312 329.298L545.607 330.777L542.636 323.899L554.797 317.252L552.391 312.849L535.786 321.923L542.742 338.113L549.57 334.381C555.431 331.179 558.093 331.928 559.572 334.634C561.029 337.302 559.712 340.173 555.955 342.226C552.763 343.971 549.096 344.558 546.109 343.986L546.115 349.282C549.826 349.928 554.529 348.933 558.53 346.748C566.129 342.598 567.471 336.512 564.756 331.541C562.019 326.53 556.679 324.726 548.312 329.298Z" fill="#212121"></path> <path d="M584.553 332.531C591.3 328.845 593.522 320.809 588.445 311.516C583.367 302.223 575.406 299.751 568.656 303.437C561.95 307.104 559.728 315.136 564.805 324.429C569.883 333.726 577.844 336.194 584.553 332.531ZM582.057 327.965C578.218 330.062 573.83 328.368 570.098 321.54C566.369 314.709 567.314 310.102 571.153 308.002C575.032 305.883 579.42 307.578 583.152 314.409C586.881 321.237 585.939 325.846 582.057 327.965Z" fill="#212121"></path> <path d="M638.286 302.65L626.456 281.096L621.728 283.677L621.063 301.568L606.012 292.265L600.716 295.158L612.506 316.734L617.112 314.219L609.276 299.873L623.029 308.049L625.21 306.857L625.906 290.842L633.721 305.144L638.286 302.65Z" fill="#212121"></path> <path d="M670.841 284.863L659.01 263.308L654.283 265.892L653.618 283.78L638.566 274.48L633.271 277.37L645.061 298.949L649.667 296.431L641.831 282.088L655.584 290.261L657.765 289.069L658.461 273.054L666.276 287.359L670.841 284.863Z" fill="#212121"></path> </svg> 