<svg width="168" height="63" viewBox="0 0 168 63" fill="none" xmlns="http://www.w3.org/2000/svg">
<g clip-path="url(#clip0_14_268)">
<path d="M36.5221 43.9538C36.2971 45.9888 34.4051 48.0498 32.1311 48.0898C26.3601 48.1938 20.5871 48.1248 14.6211 48.1248C14.6211 44.9238 14.5921 41.9138 14.6751 38.9068C14.6821 38.6568 15.4481 38.2248 15.8661 38.2198C20.5221 38.1598 25.1791 38.1568 29.8361 38.1648C30.8231 38.1658 31.8251 38.1738 32.7931 38.3418C34.8351 38.6958 36.8951 40.5988 36.5221 43.9538ZM45.3361 30.0628C44.0061 28.5938 42.3101 27.4558 40.7511 26.1388C42.4321 21.4338 42.5051 16.7328 40.6001 11.9008C37.8631 4.9618 30.6071 -0.124198 22.6441 0.00180222C18.7221 0.0648022 14.7971 0.0148022 10.8731 0.0158022C7.85408 0.0168022 4.83408 0.0198022 1.81508 0.0128022C1.10108 0.0108022 0.55308 0.0698023 0.60208 1.0468C0.85108 5.9608 3.27608 9.5608 7.30308 12.1698C9.56508 13.6348 12.1381 14.1408 14.7891 14.1968C17.5911 14.2548 20.3971 14.1668 23.1991 14.2358C25.8551 14.3018 27.7541 16.2678 27.9591 18.6998C28.2101 21.6668 25.6821 24.1258 22.7411 24.0798C15.8851 23.9738 9.02408 24.0718 2.16608 24.0258C0.94508 24.0168 0.49308 24.3738 0.50008 25.6328C0.54408 33.0508 0.52008 40.4708 0.53008 47.8898C0.53408 50.9748 1.25008 53.8768 3.15508 56.3438C5.73208 59.6838 9.00508 61.9368 13.3861 61.9818C19.7681 62.0458 26.1521 62.0788 32.5321 61.9588C34.3881 61.9248 36.3451 61.6048 38.0651 60.9298C44.1051 58.5588 48.2121 54.3138 49.9021 47.9138C51.6981 41.1078 49.9681 35.1798 45.3361 30.0628Z" fill="black"/>
</g>
<path d="M68.26 62.24C67.04 62.24 65.88 62.21 64.78 62.15C63.7 62.09 62.84 62.02 62.2 61.94V41.06C62.9 40.98 63.77 40.91 64.81 40.85C65.85 40.79 67.04 40.76 68.38 40.76C70.94 40.76 72.91 41.25 74.29 42.23C75.67 43.19 76.36 44.5 76.36 46.16C76.36 47.26 76.06 48.2 75.46 48.98C74.88 49.74 74.03 50.37 72.91 50.87C74.27 51.35 75.3 52.02 76 52.88C76.7 53.72 77.05 54.76 77.05 56C77.05 57.9 76.3 59.42 74.8 60.56C73.3 61.68 71.12 62.24 68.26 62.24ZM65.05 50.06H68.35C69.93 50.06 71.18 49.73 72.1 49.07C73.04 48.41 73.51 47.56 73.51 46.52C73.51 45.4 73.05 44.55 72.13 43.97C71.21 43.37 69.95 43.07 68.35 43.07C67.69 43.07 67.09 43.09 66.55 43.13C66.01 43.15 65.51 43.18 65.05 43.22V50.06ZM68.47 59.87C70.25 59.87 71.64 59.55 72.64 58.91C73.64 58.27 74.14 57.34 74.14 56.12C74.14 54.92 73.65 53.98 72.67 53.3C71.69 52.62 70.29 52.28 68.47 52.28H65.05V59.69C66.11 59.81 67.25 59.87 68.47 59.87ZM81.0965 62V41H93.6965V43.46H83.9465V49.85H92.3465V52.25H83.9465V59.54H93.6965V62H81.0965ZM97.7371 62V41H100.587V59.45H110.217V62H97.7371ZM113.059 62V41H116.839L126.109 58.46V41H128.809V62H125.089L115.759 44.66V62H113.059ZM134.212 62V41H146.812V43.46H137.062V49.85H145.462V52.25H137.062V59.54H146.812V62H134.212ZM163.092 62.36L160.482 56.66C159.822 55.24 158.992 54.23 157.992 53.63C156.992 53.03 155.712 52.73 154.152 52.73H153.702V62H150.852V41.06C151.912 40.96 152.922 40.89 153.882 40.85C154.862 40.79 155.902 40.76 157.002 40.76C159.562 40.76 161.482 41.28 162.762 42.32C164.062 43.36 164.712 44.7 164.712 46.34C164.712 47.8 164.272 48.98 163.392 49.88C162.532 50.76 161.282 51.42 159.642 51.86C160.182 52.1 160.662 52.39 161.082 52.73C161.502 53.05 161.902 53.49 162.282 54.05C162.682 54.59 163.082 55.3 163.482 56.18L165.762 61.1L163.092 62.36ZM153.702 50.33H157.002C158.442 50.33 159.612 50.01 160.512 49.37C161.412 48.73 161.862 47.81 161.862 46.61C161.862 45.61 161.442 44.79 160.602 44.15C159.762 43.49 158.562 43.16 157.002 43.16C156.322 43.16 155.712 43.17 155.172 43.19C154.632 43.21 154.142 43.24 153.702 43.28V50.33Z" fill="black"/>
<defs>
<clipPath id="clip0_14_268">
<rect width="51" height="63" fill="white" transform="translate(0.5)"/>
</clipPath>
</defs>
</svg>
