<svg width="189" height="52" viewBox="0 0 189 52" fill="none" xmlns="http://www.w3.org/2000/svg">
<path d="M0 0.849609H24.45V7.14961H7.05V13.7496H22.35V20.0496H7.05V26.7996H24.6V33.0996H0V0.849609Z" fill="#FFCC00"/>
<path d="M26.8501 20.9499C26.8501 13.7499 32.2501 7.8999 39.9001 7.8999C44.5501 7.8999 47.5501 9.5499 49.8001 12.0999L45.4501 16.7499C43.8001 15.0999 42.3001 14.0499 39.7501 14.0499C36.3001 14.0499 33.7501 17.1999 33.7501 20.7999V20.9499C33.7501 24.6999 36.1501 27.8499 40.0501 27.8499C42.4501 27.8499 44.1001 26.7999 45.7501 25.1499L49.9501 29.3499C47.5501 32.0499 44.7001 33.8499 39.7501 33.8499C32.2501 33.8499 26.8501 28.1499 26.8501 20.9499Z" fill="#FFCC00"/>
<path d="M50.7002 20.9499C50.7002 13.7499 56.4002 7.8999 64.2002 7.8999C71.8502 7.8999 77.5502 13.5999 77.5502 20.7999V20.9499C77.5502 28.1499 71.8502 33.8499 64.0502 33.8499C56.4002 33.8499 50.7002 28.1499 50.7002 20.9499ZM70.6502 20.9499C70.6502 17.1999 67.9502 14.0499 64.0502 14.0499C60.0002 14.0499 57.6002 17.1999 57.6002 20.7999V20.9499C57.6002 24.5499 60.3002 27.8499 64.2002 27.8499C68.2502 27.6999 70.6502 24.6999 70.6502 20.9499Z" fill="#FFCC00"/>
<path d="M80.8501 8.3499H87.9001V11.9499C89.5501 9.6999 91.9501 7.8999 95.7001 7.8999C101.55 7.8999 106.95 12.3999 106.95 20.7999V20.9499C106.95 29.1999 101.55 33.8499 95.7001 33.8499C91.9501 33.8499 89.7001 32.1999 87.9001 30.0999V40.7499H80.8501V8.3499ZM99.9001 20.9499C99.9001 16.7499 97.0501 14.0499 93.9001 14.0499C90.6001 14.0499 87.9001 16.7499 87.9001 20.9499V21.0999C87.9001 25.2999 90.6001 27.9999 93.9001 27.9999C97.0501 27.6999 99.9001 24.9999 99.9001 20.9499Z" fill="#FFCC00"/>
<path d="M110.25 0.699707H117.3V11.9497C118.95 9.84971 121.05 7.89971 124.65 7.89971C130.05 7.89971 133.05 11.3497 133.05 17.1997V33.2497H126V19.4497C126 16.1497 124.35 14.3497 121.8 14.3497C119.1 14.3497 117.45 15.9997 117.45 19.4497V33.2497H110.4V0.699707H110.25Z" fill="#FFCC00"/>
<path d="M136.05 20.9499C136.05 13.7499 141.75 7.8999 149.55 7.8999C157.2 7.8999 162.9 13.5999 162.9 20.7999V20.9499C162.9 28.1499 157.2 33.8499 149.4 33.8499C141.75 33.8499 136.05 28.1499 136.05 20.9499ZM156 20.9499C156 17.1999 153.3 14.0499 149.4 14.0499C145.35 14.0499 142.95 17.1999 142.95 20.7999V20.9499C142.95 24.5499 145.65 27.8499 149.55 27.8499C153.6 27.6999 156 24.6999 156 20.9499Z" fill="#FFCC00"/>
<path d="M166.2 8.34951H173.25V11.7995C174.9 9.69951 177 7.74951 180.6 7.74951C186 7.74951 189 11.1995 189 17.0495V33.0995H181.95V19.2995C181.95 15.9995 180.3 14.1995 177.75 14.1995C175.05 14.1995 173.4 15.8495 173.4 19.2995V33.0995H166.35V8.34951H166.2Z" fill="#FFCC00"/>
<path d="M105.3 46.8995C104.1 46.5995 103.5 46.2995 103.5 45.5495C103.5 44.9495 104.25 44.6495 105 44.6495C105.6 44.6495 106.35 44.7995 106.8 45.0995C106.95 45.0995 107.1 45.2495 107.1 45.0995C107.25 45.0995 107.4 44.9495 107.4 44.7995L107.55 44.3495C107.7 44.1995 107.55 43.8995 107.4 43.7495C106.8 43.2995 105.9 42.9995 105 42.9995C103.2 42.9995 102 43.8995 102 45.2495C102 47.0495 103.5 47.4995 104.7 47.7995C105.9 48.0995 106.5 48.3995 106.5 49.1495C106.5 49.8995 105.6 50.1995 104.85 50.1995C104.1 50.1995 103.2 49.7495 102.75 49.2995C102.6 49.1495 102.45 49.1495 102.45 49.1495C102.3 49.1495 102.15 49.2995 102.15 49.2995L101.85 49.7495C101.7 49.8995 101.7 50.1995 101.85 50.3495C102.6 51.0995 103.8 51.5495 104.85 51.5495C106.65 51.5495 107.85 50.6495 107.85 49.1495C108 47.6495 106.5 47.1995 105.3 46.8995Z" fill="#777776"/>
<path d="M113.4 43.5993C113.4 43.4493 113.1 43.2993 112.95 43.2993H112.5C112.35 43.2993 112.2 43.4493 112.05 43.5993L108.6 51.0993C108.6 51.2493 108.6 51.3993 108.6 51.5493C108.75 51.6993 108.75 51.6993 109.05 51.6993H109.5C109.65 51.6993 109.8 51.5493 109.95 51.3993L110.85 49.4493H114.75L115.65 51.3993C115.65 51.5493 115.95 51.6993 116.1 51.6993H116.55C116.7 51.6993 116.85 51.5493 117 51.5493C117.15 51.3993 117.15 51.2493 117 51.0993L113.4 43.5993ZM111.45 48.3993L112.8 45.5493L114.15 48.3993H111.45Z" fill="#777776"/>
<path d="M119.1 43.4497H118.65C118.35 43.4497 118.2 43.5997 118.2 43.8997V51.3997C118.2 51.6997 118.35 51.8497 118.65 51.8497H119.1C119.4 51.8497 119.55 51.6997 119.55 51.3997V43.8997C119.55 43.5997 119.4 43.4497 119.1 43.4497Z" fill="#777776"/>
<path d="M128.55 43.4497H128.1C127.8 43.4497 127.65 43.5997 127.65 43.8997V49.4497L123.45 43.7497C123.3 43.5997 123.3 43.5997 123.15 43.5997H122.55C122.25 43.5997 122.1 43.7497 122.1 44.0497V51.5497C122.1 51.8497 122.25 51.9997 122.55 51.9997H123C123.3 51.9997 123.45 51.8497 123.45 51.5497V45.9997L127.65 51.6997C127.8 51.8497 127.8 51.8497 127.95 51.8497H128.55C128.85 51.8497 129 51.6997 129 51.3997V43.8997C129 43.5997 128.85 43.4497 128.55 43.4497Z" fill="#777776"/>
<path d="M136.35 43.4497H130.8C130.5 43.4497 130.35 43.5997 130.35 43.8997V44.3497C130.35 44.6497 130.5 44.7997 130.8 44.7997H132.9V51.3997C132.9 51.6997 133.05 51.8497 133.35 51.8497H133.8C134.1 51.8497 134.25 51.6997 134.25 51.3997V44.7997H136.35C136.65 44.7997 136.8 44.6497 136.8 44.3497V43.8997C136.8 43.5997 136.65 43.4497 136.35 43.4497Z" fill="#777776"/>
<path d="M139.65 47.4995H137.25C136.95 47.4995 136.8 47.6495 136.8 47.9495V48.2495C136.8 48.5495 136.95 48.6995 137.25 48.6995H139.65C139.95 48.6995 140.1 48.5495 140.1 48.2495V47.9495C140.1 47.6495 139.95 47.4995 139.65 47.4995Z" fill="#777776"/>
<path d="M149.1 47.1996H148.65H147.3C147 47.1996 146.85 47.3496 146.85 47.6496V48.0996C146.85 48.3996 147 48.5496 147.3 48.5496H148.2V49.8996C147.6 50.1996 147 50.4996 146.4 50.4996C144.75 50.4996 143.4 49.1496 143.4 47.6496C143.4 45.9996 144.75 44.7996 146.4 44.7996C147.15 44.7996 147.9 45.0996 148.5 45.5496C148.65 45.6996 148.65 45.6996 148.8 45.6996C148.95 45.6996 149.1 45.6996 149.1 45.5496L149.4 45.2496C149.55 45.0996 149.55 44.7996 149.4 44.6496C148.65 43.8996 147.6 43.5996 146.4 43.5996C144 43.5996 142.05 45.5496 142.05 47.7996C142.05 50.1996 144 51.9996 146.4 51.9996C147.45 51.9996 148.5 51.5496 149.4 50.9496C149.55 50.7996 149.55 50.7996 149.55 50.6496V47.9496C149.55 47.4996 149.25 47.1996 149.1 47.1996Z" fill="#777776"/>
<path d="M155.4 43.4497C153 43.4497 151.05 45.3997 151.05 47.6497C151.05 50.0497 153 51.8497 155.4 51.8497C157.8 51.8497 159.75 49.8997 159.75 47.6497C159.75 45.2497 157.8 43.4497 155.4 43.4497ZM155.4 50.4997C153.75 50.4997 152.4 49.1497 152.4 47.6497C152.4 45.9997 153.75 44.7997 155.4 44.7997C157.05 44.7997 158.4 46.1497 158.4 47.6497C158.4 49.1497 157.05 50.4997 155.4 50.4997Z" fill="#777776"/>
<path d="M166.95 47.3497C167.4 46.8997 167.7 46.4497 167.7 45.6997C167.7 44.1997 166.65 43.4497 164.85 43.4497H161.7C161.4 43.4497 161.25 43.5997 161.25 43.8997V51.3997C161.25 51.6997 161.4 51.8497 161.7 51.8497H164.85C166.8 51.8497 168 50.9497 168 49.2997C168 48.5497 167.55 47.7997 166.95 47.3497ZM164.85 46.7497H162.6V44.6497H164.85C165.45 44.6497 166.35 44.7997 166.35 45.6997C166.2 46.4497 165.75 46.7497 164.85 46.7497ZM162.6 48.0997H164.85C165.6 48.0997 166.65 48.2497 166.65 49.2997C166.65 50.3497 165.6 50.4997 164.85 50.4997H162.6V48.0997Z" fill="#777776"/>
<path d="M173.4 43.5993C173.4 43.4493 173.1 43.2993 172.95 43.2993H172.5C172.35 43.2993 172.2 43.4493 172.05 43.5993L168.6 51.0993C168.6 51.2493 168.6 51.3993 168.6 51.5493C168.75 51.6993 168.75 51.6993 169.05 51.6993H169.5C169.65 51.6993 169.8 51.5493 169.95 51.3993L170.85 49.4493H174.75L175.65 51.3993C175.65 51.5493 175.95 51.6993 176.1 51.6993H176.55C176.7 51.6993 176.85 51.5493 177 51.5493C177.15 51.3993 177.15 51.2493 177 51.0993L173.4 43.5993ZM171.45 48.3993L172.8 45.5493L174.15 48.3993H171.45Z" fill="#777776"/>
<path d="M179.1 43.4497H178.65C178.35 43.4497 178.2 43.5997 178.2 43.8997V51.3997C178.2 51.6997 178.35 51.8497 178.65 51.8497H179.1C179.4 51.8497 179.55 51.6997 179.55 51.3997V43.8997C179.55 43.5997 179.4 43.4497 179.1 43.4497Z" fill="#777776"/>
<path d="M188.55 43.4497H188.1C187.8 43.4497 187.65 43.5997 187.65 43.8997V49.4497L183.45 43.7497C183.3 43.5997 183.3 43.5997 183.15 43.5997H182.55C182.25 43.5997 182.1 43.7497 182.1 44.0497V51.5497C182.1 51.8497 182.25 51.9997 182.55 51.9997H183C183.3 51.9997 183.45 51.8497 183.45 51.5497V45.9997L187.65 51.6997C187.8 51.8497 187.8 51.8497 187.95 51.8497H188.55C188.85 51.8497 189 51.6997 189 51.3997V43.8997C189 43.5997 188.85 43.4497 188.55 43.4497Z" fill="#777776"/>
</svg>
