<svg width="250" height="64" viewBox="0 0 250 64" fill="none" xmlns="http://www.w3.org/2000/svg">
<path d="M120.784 24.3272C120.784 25.6652 121.303 26.8546 122.339 27.8953L120.71 29.2333C119.97 28.5643 119.452 27.8953 119.156 27.2263C118.786 26.4829 118.638 25.5166 118.638 24.4016V5H120.71V24.3272H120.784Z" fill="#050303"/>
<path d="M138.332 27.6721C136.407 28.5642 134.186 29.0102 131.742 29.0102C129.373 29.0102 127.67 28.6385 126.634 27.8209C125.597 27.0031 125.079 25.5165 125.079 23.4351C125.079 21.2793 125.671 19.7926 126.929 18.9006C127.448 18.529 128.188 18.3059 129.003 18.1572C129.669 18.0086 130.557 17.9342 131.594 17.9342C133.074 17.9342 134.629 18.0828 136.259 18.4546C136.259 16.4475 135.888 15.1095 135.222 14.4405C134.629 13.8458 133.297 13.5484 131.372 13.5484C130.557 13.5484 129.743 13.6228 128.928 13.7715C128.041 13.9201 127.225 14.0688 126.634 14.3661L126.115 12.4334C126.929 12.2104 127.67 11.9874 128.484 11.9131C129.521 11.7644 130.557 11.6157 131.594 11.6157C134.038 11.6157 135.814 12.0617 136.777 12.9538C137.887 13.9201 138.405 15.5555 138.405 18.0086V27.6721H138.332ZM136.259 20.313C135.148 20.0156 133.667 19.867 131.817 19.867C130.114 19.867 128.928 20.0156 128.411 20.3873C127.743 20.8333 127.448 21.7997 127.448 23.2121C127.448 24.8475 127.743 25.8881 128.336 26.3341C128.855 26.7801 130.039 27.0031 131.817 27.0031C133.371 27.0031 134.852 26.7801 136.259 26.2597V20.313Z" fill="#050303"/>
<path d="M153.509 14.5148C151.954 13.9201 150.4 13.6228 148.845 13.6228C147.364 13.6228 146.253 13.7715 145.662 14.1431C144.995 14.5891 144.625 15.4068 144.625 16.5962C144.625 18.0828 145.957 18.975 148.697 19.1236C152.769 19.421 154.767 20.982 154.767 23.8811C154.767 25.8137 154.249 27.1519 153.214 27.8951C152.25 28.6385 150.622 29.0102 148.401 29.0102C147.512 29.0102 146.549 28.9359 145.439 28.7872C144.255 28.6385 143.293 28.4155 142.477 28.1181L143.143 26.1111C144.477 26.7059 146.253 27.0775 148.401 27.0775C149.881 27.0775 150.843 26.9289 151.436 26.5571C152.102 26.1111 152.473 25.2935 152.473 24.0297C152.473 23.1377 152.177 22.4687 151.659 22.0227C151.066 21.5767 150.029 21.2793 148.474 21.1306C146.401 20.982 144.846 20.6103 143.959 20.0156C142.922 19.3466 142.404 18.2316 142.404 16.7449C142.404 14.8865 142.922 13.5484 144.032 12.7308C145.069 11.9874 146.698 11.6157 148.845 11.6157C150.4 11.6157 152.25 11.9131 154.249 12.4334L153.509 14.5148Z" fill="#050303"/>
<path d="M169.132 14.5148C167.577 13.9201 166.022 13.6228 164.467 13.6228C162.985 13.6228 161.876 13.7715 161.283 14.1431C160.616 14.5891 160.246 15.4068 160.246 16.5962C160.246 18.0828 161.58 18.975 164.319 19.1236C168.391 19.421 170.39 20.982 170.39 23.8811C170.39 25.8137 169.871 27.1519 168.835 27.8951C167.873 28.6385 166.243 29.0102 164.022 29.0102C163.135 29.0102 162.171 28.9359 161.061 28.7872C159.877 28.6385 158.914 28.4155 158.099 28.1181L158.766 26.1111C160.098 26.7059 161.875 27.0775 164.022 27.0775C165.504 27.0775 166.466 26.9289 167.059 26.5571C167.725 26.1111 168.095 25.2935 168.095 24.0297C168.095 23.1377 167.798 22.4687 167.28 22.0227C166.688 21.5767 165.652 21.2793 164.097 21.1306C162.023 20.982 160.469 20.6103 159.58 20.0156C158.543 19.3466 158.025 18.2316 158.025 16.7449C158.025 14.8865 158.543 13.5484 159.654 12.7308C160.691 11.9874 162.246 11.6157 164.467 11.6157C166.022 11.6157 167.873 11.9131 169.871 12.4334L169.132 14.5148Z" fill="#050303"/>
<path d="M178.164 22.9893C178.164 25.6653 179.201 27.0033 181.199 27.0033C182.384 27.0033 183.421 26.8547 184.309 26.483L184.828 28.3414C183.643 28.7874 182.459 28.9361 181.199 28.9361C179.274 28.9361 177.942 28.5644 177.201 27.7467C176.387 26.929 176.016 25.2937 176.016 22.9893V13.9947H173.129V12.0619H176.016V8.64252L178.164 7.75049V12.0619H184.235V13.9947H178.164V22.9893Z" fill="#050303"/>
<path d="M196.525 11.6901V13.9201L195.785 13.8458C195.488 13.8458 195.119 13.8458 194.896 13.8458C193.564 13.8458 192.527 13.9945 191.713 14.3661C190.75 14.7378 190.306 15.3325 190.306 16.0015V28.5642H188.158V12.0617H190.306V13.2511C190.677 12.8051 191.195 12.4334 191.934 12.1361C192.823 11.7644 193.785 11.6157 194.896 11.6157C195.488 11.6157 196.006 11.6157 196.525 11.6901Z" fill="#050303"/>
<path d="M200.819 27.1519C199.634 25.8137 198.968 23.5094 198.968 20.2386C198.968 16.9679 199.561 14.7378 200.819 13.3998C201.93 12.2104 203.781 11.6157 206.446 11.6157C209.112 11.6157 210.963 12.2104 212.074 13.3998C213.258 14.6635 213.924 16.9679 213.924 20.2386C213.924 23.5094 213.332 25.8137 212.074 27.1519C210.963 28.4155 209.037 29.0102 206.446 29.0102C203.781 29.0102 201.856 28.3412 200.819 27.1519ZM202.374 14.8122C201.634 15.7042 201.264 17.5626 201.264 20.313C201.264 22.9147 201.634 24.7731 202.374 25.6651C203.115 26.5571 204.447 27.0031 206.372 27.0031C208.371 27.0031 209.703 26.5571 210.37 25.6651C211.11 24.6987 211.481 22.9147 211.481 20.313C211.481 17.5626 211.11 15.7785 210.37 14.8122C209.703 13.9945 208.371 13.5484 206.372 13.5484C204.447 13.5484 203.115 13.9945 202.374 14.8122Z" fill="#050303"/>
<path d="M220.217 28.5642H218.144V12.9538C220.07 12.0617 222.291 11.6157 224.734 11.6157C227.177 11.6157 228.806 12.1361 229.768 13.1768C230.731 14.2918 231.248 16.2989 231.248 19.2722V28.5642H229.102V19.644C229.102 17.1909 228.806 15.5555 228.14 14.7378C227.547 13.9945 226.288 13.6228 224.364 13.6228C222.809 13.6228 221.402 13.7715 220.217 14.1431V28.5642Z" fill="#050303"/>
<path d="M249.462 27.3007C249.462 30.1998 248.722 32.2812 247.316 33.4706C246.057 34.5856 244.058 35.106 241.319 35.106C239.319 35.106 237.543 34.8086 236.061 34.1396L236.654 32.1326C237.172 32.4298 237.986 32.6528 238.948 32.8016C239.912 32.9502 240.652 33.0246 241.319 33.0246C243.391 33.0246 244.872 32.6528 245.761 31.9096C246.798 31.0918 247.316 29.6051 247.316 27.5237C246.798 27.8954 246.279 28.1927 245.613 28.4157C244.798 28.7131 243.836 28.8618 242.799 28.8618C240.134 28.8618 238.282 28.2671 237.172 27.0033C235.988 25.6653 235.322 23.3609 235.322 20.0902C235.322 16.8194 235.913 14.5894 237.172 13.2513C238.282 12.062 240.134 11.4673 242.799 11.4673C245.316 11.4673 247.537 11.9133 249.388 12.8053V27.3007H249.462ZM238.875 14.8124C238.134 15.7044 237.764 17.5628 237.764 20.2389C237.764 22.8406 238.134 24.6247 238.875 25.5911C239.616 26.4831 240.948 26.9291 242.874 26.9291C244.131 26.9291 245.243 26.7061 246.057 26.3343C246.945 25.8883 247.389 25.2937 247.389 24.5503V14.292C246.13 13.846 244.65 13.623 242.874 13.623C240.874 13.623 239.541 14.069 238.875 14.8124Z" fill="#050303"/>
<path d="M111.456 18.2317H105.533V16.3733H113.751V28.267C112.936 28.5643 111.825 28.713 110.419 28.8617C109.235 28.936 108.05 29.0103 106.865 29.0103C103.237 29.0103 100.646 28.1927 99.0914 26.483C97.3884 24.6246 96.5 21.5024 96.5 16.968C96.5 12.5079 97.3884 9.38581 99.0914 7.6761C100.572 6.11505 103.237 5.29736 106.865 5.29736C109.086 5.29736 111.234 5.59471 113.232 6.18939L112.493 8.27077C111.011 7.6761 109.16 7.45308 106.939 7.45308C105.385 7.45308 104.2 7.52742 103.311 7.75043C102.275 8.04777 101.461 8.49379 100.868 9.08846C99.6836 10.4265 99.0914 13.0282 99.0914 17.0424C99.0914 21.0564 99.6836 23.7326 100.868 25.1449C101.905 26.4086 103.978 27.0033 106.939 27.0033C107.754 27.0033 108.642 26.929 109.531 26.7803C110.345 26.706 110.937 26.5573 111.53 26.4086V18.2317H111.456Z" fill="#050303"/>
<path d="M32.8553 22.4194L44.02 33.6291H55.2989L41.8554 47.2409L16.2219 21.6187L26.7032 11.2097H72.7297L61.5648 0H53.3621H22.0322L0.5 21.6187L13.6017 34.773L41.8554 63.1404L82.2995 22.4194H68.6283H32.8553Z" fill="#E01410"/>
</svg>
