<svg width="276" height="40" viewBox="0 0 276 40" fill="none" xmlns="http://www.w3.org/2000/svg">
<g clip-path="url(#clip0_14_567)">
<path d="M92.5 7.2002H104.5V39.0002H92.5V7.2002ZM56.5 0.200195H68.3V26.5002C68.3 26.7654 68.4054 27.0198 68.5929 27.2073C68.7804 27.3948 69.0348 27.5002 69.3 27.5002H89.3V39.0002H64.5C60.5 39.0002 56.7 34.8002 56.7 31.0002L56.5 0.200195ZM227.2 28.8002V27.2002H247.2V13.7002C247.151 12.0353 246.475 10.4505 245.306 9.26349C244.138 8.07651 242.564 7.37519 240.9 7.3002H222.1C220.411 7.32599 218.798 8.00856 217.603 9.20324C216.408 10.3979 215.726 12.0108 215.7 13.7002V32.7002C215.7 34.3976 216.374 36.0254 217.575 37.2257C218.775 38.4259 220.403 39.1002 222.1 39.1002H247.3V30.1002H228.3C228.15 30.1032 228.001 30.0725 227.865 30.0102C227.728 29.948 227.608 29.8558 227.512 29.7406C227.415 29.6253 227.347 29.49 227.31 29.3445C227.273 29.199 227.27 29.0472 227.3 28.9002M227.3 16.9002C227.3 16.635 227.405 16.3806 227.593 16.1931C227.78 16.0056 228.035 15.9002 228.3 15.9002H235.3C235.565 15.9002 235.82 16.0056 236.007 16.1931C236.195 16.3806 236.3 16.635 236.3 16.9002V19.9002H227.3V16.9002ZM176.1 39.0002V0.300195H163.5V7.3002C154.5 7.3002 143.5 5.90019 143.5 16.9002V23.5002C143.5 26.9002 143.1 31.3002 143.8 34.5002C145 40.0002 152 39.2002 156.5 39.2002H171.7L176.1 39.0002ZM163.7 28.0002H156.9C156.4 28.0002 155.6 27.4002 155.6 26.0002L155.8 18.4002C155.8 17.0002 156.5 16.4002 157 16.4002H163.8L163.7 28.0002ZM275.9 7.2002V19.2002H263.1C262.835 19.2002 262.58 19.3056 262.393 19.4931C262.205 19.6806 262.1 19.935 262.1 20.2002V39.0002H250.5V14.8002C250.5 10.8002 254.9 7.2002 258.5 7.2002H275.9ZM212.5 13.7002V39.0002H199.5V20.8002C199.497 20.4924 199.4 20.193 199.221 19.9426C199.042 19.6921 198.79 19.5028 198.5 19.4002H192.5V39.0002H179.7V7.4002H205.9C207.591 7.44904 209.202 8.13604 210.407 9.32321C211.613 10.5104 212.325 12.1098 212.4 13.8002M140.5 13.6002V39.0002H127.5L127.7 20.6002C127.684 20.2665 127.558 19.9476 127.341 19.694C127.123 19.4404 126.827 19.2666 126.5 19.2002H120.5V39.0002H107.5V7.2002H133.7C135.391 7.24904 137.002 7.93604 138.207 9.12321C139.413 10.3104 140.125 11.9098 140.2 13.6002M92.5 0.200195H104.5V4.5002H92.5V0.200195Z" fill="#B41F1B"/>
<path d="M15.3 13.0001H25.7L37.7 1.00008H3.5L15.3 13.0001ZM26.1 13.8001H15.1L2.7 1.80008C2.51511 1.6442 2.39297 1.42661 2.35619 1.18759C2.31942 0.94857 2.37051 0.704323 2.5 0.50008C2.59793 0.326619 2.74543 0.186356 2.9236 0.0972728C3.10176 0.00818979 3.30247 -0.025654 3.5 8.01571e-05H37.5C37.7085 -0.017079 37.9171 0.0315837 38.0965 0.139218C38.2759 0.246852 38.417 0.408036 38.5 0.60008C38.5594 0.769376 38.5722 0.951547 38.5371 1.12749C38.5019 1.30343 38.42 1.46667 38.3 1.60008L26.1 13.8001ZM1.5 2.60008V36.8001L13.3 24.8001V14.6001L1.5 2.50008V2.60008ZM1.5 37.6001C1.23478 37.6001 0.98043 37.4947 0.792893 37.3072C0.605357 37.1196 0.5 36.8653 0.5 36.6001V2.60008C0.5 2.33486 0.605357 2.08051 0.792893 1.89297C0.98043 1.70544 1.23478 1.60008 1.5 1.60008C1.72858 1.62801 1.94051 1.73398 2.1 1.90008L14.3 14.0001V25.0001L14.1 25.2001L2.1 37.2001C1.91537 37.3885 1.66377 37.4963 1.4 37.5001M15.4 26.3001L3.5 38.3001C3.48245 38.3305 3.47321 38.365 3.47321 38.4001C3.47321 38.4352 3.48245 38.4697 3.5 38.5001H37.5L25.8 26.5001L15.4 26.3001ZM23.5 50.6001H3.5C3.27942 50.6102 3.0617 50.547 2.88081 50.4204C2.69991 50.2937 2.56601 50.1108 2.5 49.9001C2.45304 49.7219 2.4562 49.5343 2.50914 49.3578C2.56208 49.1814 2.66273 49.023 2.8 48.9001L15 36.7001H26L38.3 48.7001C37.0137 48.6736 35.7906 48.1371 34.8998 47.2088C34.009 46.2805 33.5235 45.0364 33.55 43.7501C33.5765 42.4638 34.1129 41.2407 35.0412 40.3499C35.9696 39.4591 37.2137 38.9736 38.5 39.0001C38.417 39.1921 38.2759 39.3533 38.0965 39.4609C37.9171 39.5686 37.7085 39.6172 37.5 39.6001" fill="#727777"/>
</g>
<defs>
<clipPath id="clip0_14_567">
<rect width="275.39" height="39.34" fill="white" transform="translate(0.5)"/>
</clipPath>
</defs>
</svg>
