<svg width="147" height="74" viewBox="0 0 147 74" fill="none" xmlns="http://www.w3.org/2000/svg">
<path d="M9.41715 61.533C7.65216 61.533 5.95934 60.8353 4.7106 59.5933C3.46186 58.3513 2.75932 56.6665 2.75732 54.909V10.3053C2.75799 8.54694 3.45994 6.86083 4.70883 5.61771C5.95772 4.3746 7.65129 3.67627 9.41715 3.67627H138.21C139.975 3.67759 141.667 4.37659 142.914 5.61963C144.161 6.86267 144.862 8.54803 144.862 10.3053V54.909C144.861 56.6658 144.16 58.3505 142.913 59.593C141.666 60.8355 139.974 61.5342 138.21 61.5355L9.41715 61.533Z" fill="#09347B"/>
<path d="M144.862 54.9092C144.861 56.6664 144.16 58.3515 142.912 59.5941C141.664 60.8367 139.972 61.535 138.207 61.5357H9.41715C7.65173 61.5357 5.95853 60.8377 4.70971 59.5951C3.4609 58.3526 2.75865 56.6671 2.75732 54.9092V64.7654C2.76064 66.5218 3.46385 68.2051 4.71252 69.4456C5.96119 70.6862 7.65326 71.3826 9.41715 71.3819H138.207C139.972 71.3819 141.665 70.6838 142.913 69.441C144.161 68.1983 144.862 66.5128 144.862 64.7554V54.9092Z" fill="#FF6600"/>
<path d="M116.496 44.2842H126.166V53.9183H116.496V44.2842ZM31.051 13.0135V36.5645H27.4742V16.1134H25.5542V36.5645H22.0401V13.0135H31.051ZM43.8644 24.7566C44.9221 24.7566 46.05 24.6243 46.05 23.7008V18.0926C46.05 15.9137 45.3206 15.8463 43.8644 15.8463V24.7566ZM40.3552 36.567V13.0135H44.0649C47.9074 13.0135 49.5642 14.4661 49.5642 17.6333V22.7124C49.5642 26.5411 47.6417 27.532 43.8669 27.532V36.5695L40.3552 36.567ZM62.4602 32.7408C62.4602 33.9264 62.7911 34.1909 63.518 34.1909C64.2449 34.1909 64.5808 33.9264 64.5808 32.7408V16.8422C64.5808 15.6516 64.2499 15.3871 63.518 15.3871C62.7861 15.3871 62.4602 15.6516 62.4602 16.8422V32.7408ZM58.9511 16.5751C58.9511 13.4727 61.3348 12.5518 63.5205 12.5518C65.7062 12.5518 68.0899 13.4777 68.0899 16.5751V33.0703C68.0899 36.1702 65.7062 37.0262 63.518 37.0262C61.3298 37.0262 58.9486 36.1702 58.9486 33.0703L58.9511 16.5751ZM82.7004 13.0135L83.8283 22.7773C83.9637 24.0976 84.3572 27.5195 84.3572 30.1002H84.5577C84.6229 27.6592 84.6881 24.6892 84.8861 22.7773L85.816 13.0135H91.0496V36.5645H87.9365V25.7449C87.9365 22.977 88.0694 18.3571 88.0694 17.3688H87.9365C87.7385 19.1483 87.2096 25.1509 87.0768 26.4038L85.8812 36.5645H82.6352L81.382 25.2158C81.1163 22.8422 80.7854 19.4154 80.5849 17.3688H80.4596C80.4596 17.9603 80.5899 20.863 80.5899 21.9861V36.5645H77.4668V13.0135H82.7004ZM108.247 13.0135V16.1134H103.938V22.051H108.046V25.1534H103.938V33.4646H108.312V36.5645H100.427V13.0135H108.247ZM126.169 13.0135V16.1134H123.121V36.5645H119.541V16.1134H116.496V13.0135H126.169ZM21.9824 49.2984C21.9824 46.4756 23.3334 44.6411 25.5993 44.6411C26.3207 44.6104 27.0353 44.7908 27.6547 45.1603L27.3514 46.1986C26.8124 45.9359 26.2194 45.8018 25.6194 45.8067C24.2308 45.7942 23.0602 46.7801 23.0602 49.1686C23.0602 51.6121 24.2734 52.6753 25.8174 52.6753C26.3716 52.6814 26.9212 52.5735 27.4316 52.3584L27.6823 53.4216C27.0567 53.7379 26.3607 53.8908 25.6595 53.8659C23.2833 53.8684 21.9824 52.0439 21.9824 49.2984ZM30.4695 45.8816H28.161V44.7684H33.8383V45.8816H31.5323V53.7161H30.477L30.4695 45.8816ZM36.6757 44.7684H38.0342L40.4981 53.7161H39.3752L38.533 50.5888H35.9237L34.9762 53.7161H33.8909L36.6757 44.7684ZM38.2698 49.5405L37.3023 45.6744L36.227 49.5355L38.2698 49.5405ZM40.636 52.7802C41.1373 52.4881 41.7012 52.0064 41.9143 51.4499C42.2276 50.6162 42.4532 48.3001 42.581 44.7684H46.5112V53.7161H45.4535V45.8192H43.4984C43.2753 49.0638 43.1675 51.0605 42.7164 52.2211C42.3959 52.9827 41.8189 53.6093 41.0846 53.9932L40.636 52.7802ZM48.4463 44.7684H49.5116V52.6279H50.5467C51.602 52.6279 52.0908 51.9191 52.0908 50.8559C52.0908 49.6279 51.4466 49.1462 50.3813 49.1462H49.9301V48.0455H50.3613C52.1885 48.0455 53.1861 49.0214 53.1861 50.8933C53.1861 52.563 52.2762 53.7161 50.6445 53.7161H48.4463V44.7684ZM54.4669 44.7684H55.5222V48.6695H59.0614V44.7684H60.1166V53.7161H59.0614V49.7677H55.5222V53.7161H54.4669V44.7684ZM62.0517 44.7684H63.117V52.6279H64.1672C65.2224 52.6279 65.7112 51.9191 65.7112 50.8559C65.7112 49.6279 65.067 49.1462 64.0018 49.1462H63.5506V48.0455H63.9817C65.809 48.0455 66.8066 49.0214 66.8066 50.8933C66.8066 52.563 65.8967 53.7161 64.2649 53.7161H62.0642L62.0517 44.7684ZM67.7415 44.7684H68.7967V53.7161H67.7415V44.7684ZM70.7418 44.7684H74.8099V45.8566H71.8021V48.6919H74.5943V49.7552H71.7995V52.6154H75.0355V53.7161H70.7418V44.7684ZM78.0934 52.6279H78.705C79.0218 51.8886 79.2832 51.1269 79.487 50.3492C79.7026 49.4756 79.9457 47.5014 80.0636 44.7684H83.9687V52.6279H84.8986V55.6579H83.896V53.7211H79.101V55.6579H78.0984L78.0934 52.6279ZM82.9135 52.6279V45.8192H80.996C80.9232 47.3844 80.7558 48.9438 80.4947 50.489C80.337 51.2158 80.1276 51.9306 79.868 52.6279H82.9135ZM86.2371 44.7684H88.2899C89.8841 44.7684 90.616 45.6669 90.616 47.0846C90.616 47.9831 90.235 48.667 89.7262 48.9315V48.9565C90.3729 49.1337 91.1148 49.8176 91.1148 51.1079C91.1148 52.6279 90.4305 53.7161 88.5832 53.7161H86.2371V44.7684ZM88.32 48.627C89.1497 48.627 89.5608 48.1728 89.5608 47.2493C89.5608 46.1736 89.0319 45.8317 88.0568 45.8317H87.3049V48.627H88.32ZM88.4353 52.6204C89.3753 52.6204 90.0495 52.3409 90.0495 51.1504C90.0495 50.0622 89.4129 49.6528 88.295 49.6528H87.2924V52.6279L88.4353 52.6204ZM92.5811 44.7684H96.6467V45.8566H93.6389V48.6919H96.4361V49.7552H93.6364V52.6154H96.8723V53.7161H92.5811V44.7684ZM98.3486 44.7684H100.725C102.151 44.7684 103.088 45.8067 103.088 47.6786C103.088 49.3234 102.161 50.6911 100.216 50.6911H99.7849V49.5904H100.274C101.349 49.5904 101.996 48.9815 101.996 47.7285C101.996 46.4756 101.544 45.8566 100.509 45.8566H99.4139V53.7161H98.3486V44.7684ZM104.369 44.7684H105.425V50.5888L105.397 51.8941L106.011 50.5763L109.072 44.7684H110.127V53.7161H109.072V47.8933L109.112 46.5904L108.633 47.5888L105.425 53.7136H104.369V44.7684Z" fill="white"/>
</svg>
