<svg width="169" height="30" viewBox="0 0 169 30" fill="none" xmlns="http://www.w3.org/2000/svg">
<path d="M10.7 1.04C13.1267 1.04 15.0333 1.30666 16.42 1.84C17.8067 2.34667 18.7933 3.24 19.38 4.52C19.9933 5.77333 20.3 7.56 20.3 9.88C20.3 12.2 20.0067 14 19.42 15.28C18.86 16.56 17.9133 17.4533 16.58 17.96C15.2733 18.4667 13.5267 18.72 11.34 18.72C10.14 18.72 8.98 18.68 7.86 18.6C6.76667 18.52 5.74 18.4133 4.78 18.28C3.84667 18.1467 3.04667 18.0133 2.38 17.88C1.71333 17.72 1.24667 17.5867 0.98 17.48L1.1 14.8C2.62 14.8 4.18 14.8 5.78 14.8C7.40667 14.8 9.02 14.8 10.62 14.8C11.7933 14.7733 12.7133 14.6267 13.38 14.36C14.0733 14.0933 14.5533 13.6133 14.82 12.92C15.1133 12.2 15.26 11.1867 15.26 9.88C15.26 8.57333 15.1133 7.57333 14.82 6.88C14.5533 6.16 14.0733 5.66667 13.38 5.4C12.7133 5.10667 11.7933 4.96 10.62 4.96C8.27333 4.96 6.26 4.97333 4.58 5C2.9 5.02667 1.75333 5.06667 1.14 5.12L0.58 1.4C1.64667 1.29333 2.64667 1.21333 3.58 1.16C4.54 1.10667 5.56667 1.08 6.66 1.08C7.78 1.05333 9.12667 1.04 10.7 1.04ZM5.58 1.4V29H0.58V1.4H5.58ZM34.9978 1.04C37.2911 1.04 39.1445 1.28 40.5578 1.76C41.9978 2.24 43.0378 3.06667 43.6778 4.24C44.3445 5.38667 44.6778 7.01333 44.6778 9.12C44.6778 10.5067 44.5045 11.6933 44.1578 12.68C43.8378 13.64 43.2911 14.4133 42.5178 15C41.7711 15.56 40.7578 15.92 39.4778 16.08V16.28C39.9311 16.3867 40.3978 16.6 40.8778 16.92C41.3845 17.2133 41.8378 17.64 42.2378 18.2C42.6645 18.76 42.9845 19.48 43.1978 20.36L45.7178 29H40.4378L38.1578 20.48C37.8645 19.52 37.4645 18.8533 36.9578 18.48C36.4511 18.08 35.7578 17.88 34.8778 17.88C33.1445 17.88 31.6645 17.88 30.4378 17.88C29.2111 17.8533 28.1845 17.8267 27.3578 17.8C26.5578 17.7733 25.8511 17.76 25.2378 17.76L25.3578 13.96H34.8778C36.0778 13.9333 37.0245 13.8 37.7178 13.56C38.4111 13.2933 38.9045 12.84 39.1978 12.2C39.4911 11.5333 39.6378 10.6 39.6378 9.4C39.6378 8.22667 39.4911 7.32 39.1978 6.68C38.9045 6.04 38.4111 5.6 37.7178 5.36C37.0245 5.09333 36.0778 4.96 34.8778 4.96C32.5311 4.96 30.5178 4.97333 28.8378 5C27.1578 5.02667 26.0111 5.05333 25.3978 5.08L24.8378 1.4C25.9045 1.29333 26.9045 1.21333 27.8378 1.16C28.7978 1.10667 29.8378 1.08 30.9578 1.08C32.0778 1.05333 33.4245 1.04 34.9978 1.04ZM29.7578 1.4V29H24.8378V1.4H29.7578ZM60.6694 0.88C62.8027 0.88 64.6027 1.12 66.0694 1.6C67.536 2.05333 68.7094 2.82667 69.5894 3.92C70.496 5.01333 71.1494 6.48 71.5494 8.32C71.9494 10.16 72.1494 12.4533 72.1494 15.2C72.1494 17.92 71.9494 20.2133 71.5494 22.08C71.1494 23.92 70.496 25.3867 69.5894 26.48C68.7094 27.5733 67.536 28.36 66.0694 28.84C64.6027 29.2933 62.8027 29.52 60.6694 29.52C58.5894 29.52 56.816 29.2933 55.3494 28.84C53.8827 28.36 52.696 27.5733 51.7894 26.48C50.8827 25.3867 50.2294 23.92 49.8294 22.08C49.4294 20.2133 49.2294 17.92 49.2294 15.2C49.2294 12.4533 49.4294 10.16 49.8294 8.32C50.2294 6.48 50.8827 5.01333 51.7894 3.92C52.696 2.82667 53.8827 2.05333 55.3494 1.6C56.816 1.12 58.5894 0.88 60.6694 0.88ZM60.6694 4.96C59.096 4.96 57.856 5.28 56.9494 5.92C56.0694 6.53333 55.4427 7.58667 55.0694 9.08C54.696 10.5467 54.5094 12.5867 54.5094 15.2C54.5094 17.8133 54.696 19.8667 55.0694 21.36C55.4427 22.8267 56.0694 23.88 56.9494 24.52C57.856 25.1333 59.096 25.44 60.6694 25.44C62.2694 25.44 63.5094 25.1333 64.3894 24.52C65.296 23.88 65.936 22.8267 66.3094 21.36C66.6827 19.8667 66.8694 17.8133 66.8694 15.2C66.8694 12.5867 66.6827 10.5467 66.3094 9.08C65.936 7.58667 65.296 6.53333 64.3894 5.92C63.5094 5.28 62.2694 4.96 60.6694 4.96ZM120.096 1.4L115.136 27.6C115.03 28 114.803 28.3333 114.456 28.6C114.136 28.8667 113.736 29 113.256 29H108.296C107.843 29 107.443 28.8667 107.096 28.6C106.75 28.3333 106.55 27.9867 106.496 27.56L102.856 8.4C102.75 7.81333 102.656 7.24 102.576 6.68C102.496 6.12 102.416 5.56 102.336 5H101.536C101.456 5.56 101.363 6.13333 101.256 6.72C101.176 7.28 101.096 7.84 101.016 8.4L97.4163 27.56C97.3363 27.9867 97.1229 28.3333 96.7763 28.6C96.4296 28.8667 96.0296 29 95.5763 29H90.5763C90.0963 29 89.6829 28.8667 89.3363 28.6C89.0163 28.3333 88.8163 28 88.7363 27.6L83.7763 1.4H88.8963L92.3763 21.6C92.4563 22.1333 92.5229 22.72 92.5763 23.36C92.6563 24 92.7363 24.6533 92.8163 25.32H93.6563C93.7629 24.7067 93.8696 24.08 93.9763 23.44C94.0829 22.7733 94.1896 22.1467 94.2963 21.56L97.8563 2.96C97.9096 2.48 98.1096 2.10667 98.4563 1.84C98.8029 1.54666 99.2029 1.4 99.6563 1.4H104.176C104.656 1.4 105.056 1.54666 105.376 1.84C105.696 2.10667 105.91 2.48 106.016 2.96L109.576 21.6C109.71 22.2133 109.816 22.84 109.896 23.48C110.003 24.12 110.096 24.7333 110.176 25.32H111.056C111.11 24.7067 111.176 24.08 111.256 23.44C111.336 22.8 111.416 22.2 111.496 21.64L114.976 1.4H120.096ZM133.342 8.88C134.916 8.88 136.249 9.09333 137.342 9.52C138.436 9.92 139.249 10.6133 139.782 11.6C140.342 12.5867 140.622 13.9467 140.622 15.68V29H136.782L136.102 24.76L135.742 24.2V15.64C135.742 14.6 135.502 13.8533 135.022 13.4C134.542 12.92 133.622 12.68 132.262 12.68C131.249 12.68 129.969 12.72 128.422 12.8C126.902 12.88 125.369 12.9867 123.822 13.12L123.382 9.8C124.316 9.61333 125.369 9.45333 126.542 9.32C127.716 9.18667 128.902 9.08 130.102 9C131.302 8.92 132.382 8.88 133.342 8.88ZM138.542 16.92L138.502 19.92H129.502C128.702 19.9467 128.129 20.16 127.782 20.56C127.436 20.96 127.262 21.5067 127.262 22.2V23.28C127.262 24.08 127.476 24.68 127.902 25.08C128.329 25.48 128.996 25.68 129.902 25.68C130.622 25.68 131.422 25.5467 132.302 25.28C133.182 24.9867 134.049 24.56 134.902 24C135.782 23.44 136.569 22.7733 137.262 22V24.52C136.996 24.92 136.609 25.4 136.102 25.96C135.596 26.4933 134.969 27.0267 134.222 27.56C133.502 28.0933 132.662 28.5333 131.702 28.88C130.769 29.2267 129.729 29.4 128.582 29.4C127.409 29.4 126.356 29.2 125.422 28.8C124.489 28.3733 123.756 27.76 123.222 26.96C122.689 26.1333 122.422 25.12 122.422 23.92V21.84C122.422 20.2933 122.929 19.0933 123.942 18.24C124.982 17.36 126.396 16.92 128.182 16.92H138.542ZM150.764 0.999998L150.724 23.08C150.724 23.8267 150.937 24.4 151.364 24.8C151.791 25.1733 152.404 25.36 153.204 25.36H154.924L155.484 28.76C155.191 28.8933 154.777 29.0133 154.244 29.12C153.737 29.2267 153.204 29.2933 152.644 29.32C152.111 29.3733 151.644 29.4 151.244 29.4C149.617 29.4 148.324 28.96 147.364 28.08C146.404 27.2 145.924 25.9333 145.924 24.28V0.999998H150.764ZM163.381 0.999998L163.341 23.08C163.341 23.8267 163.555 24.4 163.981 24.8C164.408 25.1733 165.021 25.36 165.821 25.36H167.541L168.101 28.76C167.808 28.8933 167.395 29.0133 166.861 29.12C166.355 29.2267 165.821 29.2933 165.261 29.32C164.728 29.3733 164.261 29.4 163.861 29.4C162.235 29.4 160.941 28.96 159.981 28.08C159.021 27.2 158.541 25.9333 158.541 24.28V0.999998H163.381Z" fill="black"/>
</svg>
