<svg width="164" height="70" viewBox="0 0 164 70" fill="none" xmlns="http://www.w3.org/2000/svg">
<g clip-path="url(#clip0_14_550)">
<path fill-rule="evenodd" clip-rule="evenodd" d="M55.7783 16.6875L70.7971 -0.0678711L74.3219 3.11377L59.3024 19.8691L55.7783 16.6875ZM82.8541 -0.058085L67.8375 16.6972L71.3623 19.8783L86.3789 3.12299L82.8541 -0.058085ZM94.9118 -0.0572281L79.8952 16.6981L83.42 19.8792L98.4366 3.12391L94.9118 -0.0572281Z" fill="#EC008C"/>
<path fill-rule="evenodd" clip-rule="evenodd" d="M20.8571 41.8283C20.8571 39.9283 20.4087 38.2283 19.5189 36.7641C18.6292 35.2998 17.4191 34.1569 15.9244 33.3641C14.4225 32.5712 12.7142 32.1641 10.8493 32.1641C8.92037 32.1641 7.16937 32.6141 5.64614 33.4926C4.12291 34.3783 2.9271 35.5641 2.0943 37.0212C1.26151 38.4784 0.841553 40.0998 0.841553 41.8283C0.841553 43.7283 1.28998 45.4284 2.17972 46.8998C3.06946 48.3641 4.2795 49.5069 5.77426 50.2998C7.27614 51.0926 8.98444 51.4998 10.8493 51.4998C12.4437 51.4998 13.9171 51.1855 15.2411 50.5855L17.0775 52.7641L19.9104 50.3569L18.2804 48.4212C18.7929 47.8855 19.2413 47.2926 19.6115 46.6426C20.4371 45.1784 20.8571 43.5641 20.8571 41.8283ZM13.1413 42.3212L10.3084 44.7284L12.4651 47.2926C11.9597 47.4498 11.4188 47.5355 10.8493 47.5355C9.79588 47.5355 8.85631 47.2783 8.05199 46.7783C7.24767 46.2712 6.62129 45.5783 6.1871 44.7141C5.76003 43.8569 5.53937 42.8783 5.53937 41.8141C5.53937 40.6998 5.77426 39.6998 6.23693 38.8426C6.70671 37.9855 7.3402 37.3141 8.1374 36.8426C8.93461 36.3712 9.8457 36.1355 10.8422 36.1355C11.8957 36.1355 12.8352 36.3926 13.6395 36.8926C14.4439 37.3998 15.0702 38.0926 15.5044 38.9569C15.9315 39.8212 16.1522 40.7926 16.1522 41.8569C16.1522 42.9712 15.9173 43.9712 15.4546 44.8284C15.4404 44.8533 15.4261 44.8765 15.412 44.8997L15.4119 44.8998C15.3977 44.923 15.3834 44.9462 15.3692 44.9712L13.1413 42.3212ZM40.6947 68.5712C38.6234 68.5712 36.8937 67.1283 36.8937 64.7569C36.8937 62.3926 38.6234 60.9426 40.6947 60.9426C42.766 60.9426 44.4957 62.3926 44.4957 64.7569C44.4957 67.1212 42.766 68.5712 40.6947 68.5712ZM40.6947 61.8426C39.1928 61.8426 37.9543 62.9212 37.9543 64.7355C37.9543 66.5355 39.1999 67.6283 40.6947 67.6283C42.2037 67.6283 43.4422 66.5355 43.4422 64.7355C43.4351 62.9212 42.1966 61.8426 40.6947 61.8426ZM25.0495 64.3783V61.9141V61.9069H28.1031V61.0426H24.0103V68.4355H25.0495V65.2426H27.9252V64.3783H25.0495ZM31.1567 61.0498V68.4426H34.7868V67.5641H32.1959V61.0498H31.1567ZM47.1506 64.7569C47.1506 67.1283 48.8803 68.5712 50.9516 68.5712C53.0229 68.5712 54.7526 67.1212 54.7526 64.7569C54.7526 62.3926 53.0229 60.9426 50.9516 60.9426C48.8803 60.9426 47.1506 62.3926 47.1506 64.7569ZM48.2112 64.7355C48.2112 62.9212 49.4497 61.8426 50.9516 61.8426C52.4606 61.8426 53.6991 62.9212 53.6991 64.7355C53.6991 66.5355 52.4606 67.6283 50.9516 67.6283C49.4568 67.6283 48.2112 66.5355 48.2112 64.7355ZM61.5786 68.4426L59.6568 65.2569H58.8667V68.4426H57.8275V61.0498H59.9059C61.2227 61.0498 62.3972 61.6641 62.3972 63.1283C62.3972 64.4212 61.5003 65.0069 60.7245 65.1498L62.8314 68.4355H61.5786V68.4426ZM60.8597 62.1641C60.5323 61.9212 60.1337 61.8926 59.6212 61.8926H58.8667V64.3998H59.6283C60.1408 64.3998 60.5323 64.3783 60.8668 64.1426C61.2014 63.8998 61.3366 63.5998 61.3366 63.1426C61.3295 62.7069 61.1943 62.3998 60.8597 62.1641ZM69.4581 68.4426H71.6789C73.8855 68.4426 75.5724 67.0355 75.5724 64.7426C75.5724 62.4498 73.8855 61.0498 71.6789 61.0498H69.4581V68.4426ZM70.4902 61.9355H71.6789C73.3445 61.9355 74.519 63.0283 74.519 64.7355C74.519 66.4426 73.3445 67.5355 71.6789 67.5355H70.4902V61.9355ZM78.6474 61.0498H82.9608V61.9141H79.6795V64.1212H82.7757V64.9998H79.6795V67.5569H83.0391V68.4355H78.6474V61.0498ZM85.7439 67.3284C86.0927 67.7355 86.833 68.5712 88.1213 68.5712C89.4096 68.5712 90.6908 67.8212 90.7051 66.3783C90.7051 65.4998 90.1784 64.8926 89.4239 64.5355L88.0644 63.9712C87.623 63.7855 87.1177 63.5283 87.1177 62.8426C87.1177 62.1569 87.6729 61.8141 88.3989 61.8141C89.1249 61.8141 89.6588 62.2212 90.0218 62.6069L90.5627 61.8998L90.5421 61.8791C90.3129 61.6476 89.6217 60.9498 88.4487 60.9498C87.2743 60.9498 86.0785 61.6069 86.0785 62.9212C86.0785 63.7926 86.5411 64.3783 87.2956 64.7355C87.5732 64.8712 88.0857 65.0783 88.4701 65.2283L88.5156 65.2469C88.9043 65.4026 89.6659 65.7091 89.6659 66.4498C89.6659 67.2283 89.0324 67.6926 88.2281 67.6926C87.4237 67.6926 86.7262 67.1355 86.356 66.6283L85.7439 67.3284ZM93.7587 68.4426V61.0498H94.7979V68.4426H93.7587ZM97.8657 64.7498C97.8657 67.0498 99.5171 68.5712 101.624 68.5712C103.583 68.5712 104.494 67.6383 104.719 67.4083C104.734 67.3926 104.747 67.3798 104.756 67.3712V64.4998H101.766V65.3426H103.752V66.9783C103.752 66.9783 103.204 67.6569 101.681 67.6569C100.143 67.6569 98.9334 66.5641 98.9334 64.7426C98.9334 62.9212 100.094 61.8283 101.61 61.8283C102.763 61.8283 103.446 62.3641 103.887 62.8783L104.592 62.2283C104.571 62.2076 104.547 62.1826 104.521 62.1541C104.183 61.8012 103.364 60.9426 101.61 60.9426C99.5242 60.9426 97.8657 62.4498 97.8657 64.7498ZM113.276 68.4426L109.027 62.5498C109.027 62.5498 109.048 63.5498 109.048 64.5141V68.4426H108.023V61.0498H109.112L113.283 66.8569C113.283 66.8569 113.276 65.9426 113.276 64.9712V61.0498H114.287V68.4426H113.276ZM122.102 61.0498H117.789V68.4355H122.18V67.5569H118.821V64.9998H121.917V64.1212H118.821V61.9141H122.102V61.0498ZM129.078 68.4426L127.156 65.2569H126.366V68.4426H125.327V61.0498H127.405C128.722 61.0498 129.896 61.6641 129.896 63.1283C129.896 64.4212 128.999 65.0069 128.224 65.1498L130.323 68.4355H129.078V68.4426ZM128.359 62.1641C128.031 61.9212 127.633 61.8926 127.12 61.8926H126.359V64.3998H127.12C127.633 64.3998 128.024 64.3783 128.359 64.1426C128.693 63.8998 128.829 63.5998 128.829 63.1426C128.829 62.7069 128.693 62.3998 128.359 62.1641ZM132.516 67.3284C132.864 67.7355 133.605 68.5712 134.893 68.5712C136.188 68.5712 137.47 67.8212 137.477 66.3783C137.477 65.4998 136.95 64.8926 136.196 64.5355L134.836 63.9712C134.395 63.7855 133.889 63.5283 133.889 62.8426C133.889 62.1569 134.445 61.8141 135.171 61.8141C135.897 61.8141 136.43 62.2212 136.794 62.6069L137.334 61.8998L137.314 61.8791C137.085 61.6476 136.393 60.9498 135.22 60.9498C134.046 60.9498 132.85 61.6069 132.85 62.9212C132.85 63.7926 133.313 64.3783 134.067 64.7355C134.345 64.8712 134.857 65.0783 135.242 65.2283L135.287 65.2469C135.676 65.4026 136.438 65.7091 136.438 66.4498C136.438 67.2283 135.804 67.6926 135 67.6926C134.195 67.6926 133.498 67.1355 133.128 66.6283L132.516 67.3284ZM31.9539 47.5355C34.5519 47.5355 35.8688 45.9283 35.8688 42.7569V32.5712H40.4456V43.1141C40.4456 45.7998 39.7124 47.8926 38.2604 49.3355C36.8083 50.7783 34.6872 51.5069 31.9539 51.5069C29.2562 51.5069 27.1493 50.7783 25.6902 49.3355C24.231 47.8998 23.4907 45.8069 23.4907 43.1141V32.5712H28.0675V42.7641C28.0675 44.3426 28.395 45.5426 29.0285 46.3283C29.6762 47.1283 30.6585 47.5355 31.9539 47.5355ZM48.7095 32.5569H44.1326V51.0998H48.7095V32.5569ZM65.4864 46.7855V50.8284C65.3298 50.8712 65.1661 50.9141 64.9952 50.9569C63.8777 51.2355 62.7531 51.3783 61.6498 51.3783C59.6354 51.3783 57.856 50.9998 56.3612 50.2498C54.8736 49.5069 53.6991 48.4141 52.8805 46.9926C52.062 45.5712 51.642 43.8498 51.642 41.8855C51.642 40.5498 51.8698 39.2926 52.3254 38.1426C52.7738 36.9998 53.4429 35.9712 54.3255 35.0998C55.201 34.2212 56.29 33.5283 57.5499 33.0355C58.8169 32.5355 60.2333 32.2855 61.7779 32.2855C62.8527 32.2855 63.9275 32.4141 64.9881 32.6783C65.1589 32.7212 65.3226 32.7641 65.4864 32.8141V36.8283C65.2016 36.7355 64.9169 36.6498 64.6251 36.5783C63.7709 36.3641 62.9097 36.2569 62.084 36.2569C60.3401 36.2569 58.9308 36.7641 57.9058 37.7712C56.8737 38.7783 56.3541 40.1498 56.3541 41.8569C56.3541 43.5641 56.8737 44.9283 57.9058 45.9212C58.9308 46.9069 60.3543 47.4069 62.1338 47.4069C62.931 47.4069 63.8279 47.2712 64.7959 46.9998C65.0308 46.9355 65.2586 46.8641 65.4864 46.7855ZM85.3453 32.5641H79.9784L73.1737 40.6141V32.5641H68.6681V51.0998H73.1737V42.6855L80.256 51.0998H86.1212L77.4302 41.3926L85.3453 32.5641ZM114.038 36.1569H108.236V32.5641H124.415V36.1569H118.614V51.0998H114.038V36.1569ZM130.95 43.5069H138.011V40.0141H130.95V36.1069H138.808V32.5641H126.643V51.0998H139.157V47.5569H130.95V43.5069ZM148.908 32.5641C151.115 32.5641 152.88 33.1284 154.161 34.2426C155.428 35.3498 156.076 36.8855 156.076 38.8141C156.076 40.7712 155.435 42.3212 154.183 43.4284C152.923 44.5426 151.136 45.1069 148.88 45.1069H146.638V51.1069H142.31V32.5641H148.908ZM146.638 41.7569H148.182C150.531 41.7569 151.72 40.7641 151.72 38.8069C151.72 37.8426 151.421 37.1069 150.816 36.6212C150.225 36.1498 149.342 35.9069 148.182 35.9069H146.638V41.7569ZM105.418 41.7855C104.827 41.2069 103.966 40.7069 102.848 40.2926C102.542 40.1712 102.051 39.9855 101.539 39.7926L101.489 39.7784C101.005 39.5998 100.457 39.3926 100.058 39.2355C99.1113 38.8712 98.186 38.4212 98.186 37.3641C98.186 35.8712 99.8658 35.7069 100.592 35.7069C101.93 35.7069 103.581 36.4569 104.706 37.5712L104.756 37.6212L106.642 34.5141L106.614 34.4855C105.275 33.1569 102.791 32.1926 100.699 32.1926C98.6558 32.1926 96.9048 32.7212 95.773 33.6855C95.0399 34.2926 93.8156 35.6283 93.8156 37.7998C93.8156 39.3141 94.2925 40.4998 95.2819 41.4212C95.9795 42.0998 96.798 42.4641 97.282 42.6783L97.5098 42.7855C97.9796 42.9855 98.9334 43.3355 99.574 43.5641L99.7448 43.6283C99.8751 43.6761 100.002 43.7213 100.122 43.7638L100.123 43.7641C100.2 43.7913 100.273 43.8175 100.343 43.8426L100.371 43.8569L100.377 43.8589C101.231 44.1732 102.514 44.6453 102.514 45.8855C102.514 47.0426 101.546 47.7855 100.051 47.7855C98.5917 47.7855 96.5204 46.7855 95.2321 45.4641L95.1823 45.4141L92.9899 48.6569L93.0255 48.6926C93.9366 49.5355 96.4065 51.4998 99.6381 51.4998C101.709 51.4998 103.418 50.9783 104.699 49.9498C106.094 48.8569 106.898 47.2212 106.898 45.4569C106.898 44.0283 106.407 42.8141 105.432 41.8355L105.418 41.7855ZM90.0787 41.3641C90.0787 42.6383 89.0495 43.6712 87.7796 43.6712C86.5098 43.6712 85.4806 42.6383 85.4806 41.3641C85.4806 40.0899 86.5098 39.0569 87.7796 39.0569C89.0495 39.0569 90.0787 40.0899 90.0787 41.3641ZM159.635 33.8355C159.635 33.4712 159.35 33.2712 159.03 33.2712L158.361 33.2641V35.2069H158.66V34.3998H158.902L159.364 35.2069H159.727L159.208 34.3712C159.386 34.3355 159.635 34.1998 159.635 33.8355ZM158.923 34.1569H158.667V33.5284H158.923C159.13 33.5284 159.329 33.5855 159.329 33.8426C159.322 34.0926 159.13 34.1569 158.923 34.1569ZM157.3 34.2426C157.3 33.2998 158.033 32.5641 158.973 32.5641C159.905 32.5641 160.646 33.2998 160.646 34.2426C160.646 35.1855 159.905 35.9212 158.973 35.9212C158.033 35.9212 157.3 35.1855 157.3 34.2426ZM157.521 34.2355C157.521 35.0426 158.169 35.6926 158.973 35.6926C159.77 35.6998 160.425 35.0426 160.425 34.2355C160.425 33.4283 159.77 32.7783 158.973 32.7783C158.169 32.7783 157.521 33.4283 157.521 34.2355Z" fill="#134395"/>
</g>
<defs>
<clipPath id="clip0_14_550">
<rect width="163" height="70" fill="white" transform="translate(0.5)"/>
</clipPath>
</defs>
</svg>
