<svg width="199" height="47" viewBox="0 0 199 47" fill="none" xmlns="http://www.w3.org/2000/svg">
<path d="M59.1249 11.7578H69.2379C70.3718 11.7578 71.5363 11.8806 72.6702 12.0955C73.804 12.3411 74.8153 12.7402 75.7041 13.3235C76.5928 13.9067 77.3283 14.7049 77.8799 15.6873C78.4315 16.6696 78.7073 17.8976 78.7073 19.4018C78.7073 20.8447 78.3702 22.1033 77.6654 23.2085C76.9605 24.3137 75.9492 25.1425 74.6315 25.7565L80.5767 35.2732H71.5363L67.0008 26.831H66.7556V35.2118H59.0942V11.7578H59.1249ZM66.7249 21.6736H68.2572C68.533 21.6736 68.8088 21.6429 69.1153 21.6122C69.4217 21.5815 69.7282 21.4587 70.004 21.3359C70.2798 21.1824 70.4943 20.9982 70.7089 20.7526C70.8927 20.507 70.9847 20.1693 70.9847 19.7395C70.9847 19.3097 70.8927 19.0028 70.7395 18.7572C70.5863 18.5116 70.4024 18.3274 70.1572 18.2046C69.9121 18.0818 69.6669 18.0204 69.3605 17.959C69.0846 17.9283 68.8088 17.8976 68.5637 17.8976H66.6943V21.6736H66.7249Z" fill="#00638E"/>
<path d="M99.2093 26.4321C99.2093 27.9363 98.9335 29.2871 98.4125 30.4536C97.8609 31.6202 97.1561 32.6025 96.2367 33.4314C95.3173 34.2296 94.2447 34.8436 93.0496 35.2734C91.8544 35.7031 90.5673 35.918 89.2495 35.918C87.9318 35.918 86.706 35.7031 85.4802 35.2734C84.285 34.8436 83.2124 34.2296 82.3237 33.4314C81.4043 32.6332 80.6995 31.6202 80.1479 30.4536C79.5962 29.2871 79.3511 27.9363 79.3511 26.4321C79.3511 24.9585 79.6269 23.6385 80.1479 22.4719C80.6995 21.3054 81.4043 20.323 82.3237 19.5248C83.243 18.7266 84.285 18.1127 85.4802 17.7136C86.6753 17.3145 87.9318 17.0996 89.2495 17.0996C90.5673 17.0996 91.8238 17.3145 93.0496 17.7136C94.2447 18.1127 95.3173 18.7266 96.2367 19.5248C97.1561 20.323 97.8916 21.3054 98.4125 22.4719C98.9335 23.6385 99.2093 24.9585 99.2093 26.4321ZM89.2495 23.5771C88.4221 23.5771 87.7173 23.8534 87.2269 24.4366C86.706 25.0199 86.4608 25.6953 86.4608 26.4628C86.4608 27.2916 86.7366 27.967 87.2576 28.5503C87.7786 29.1336 88.4834 29.4099 89.3108 29.4099C90.1383 29.4099 90.8431 29.1336 91.3641 28.5503C91.8851 27.967 92.1609 27.2916 92.1609 26.4628C92.1609 25.6953 91.8851 25.0199 91.3641 24.4366C90.7818 23.8841 90.077 23.5771 89.2495 23.5771Z" fill="#00638E"/>
<path d="M110.579 35.8873C109.108 35.8873 107.729 35.6724 106.503 35.2119C105.277 34.7821 104.204 34.1374 103.285 33.3086C102.366 32.4797 101.661 31.4973 101.17 30.3615C100.649 29.2256 100.404 27.9056 100.404 26.4934C100.404 25.0813 100.649 23.7919 101.17 22.6253C101.691 21.4588 102.427 20.4764 103.346 19.6476C104.266 18.8187 105.369 18.2047 106.595 17.7442C107.851 17.3144 109.2 17.0688 110.64 17.0688C111.222 17.0688 111.835 17.1302 112.448 17.2223C113.061 17.3144 113.643 17.4679 114.195 17.6521C114.746 17.8363 115.267 18.0205 115.758 18.2354C116.217 18.4503 116.646 18.6959 116.953 18.9722L113.153 24.4673C112.877 24.1603 112.54 23.9454 112.111 23.7919C111.682 23.6384 111.253 23.5463 110.854 23.5463C110.487 23.5463 110.119 23.6077 109.751 23.7305C109.383 23.8533 109.077 24.0375 108.801 24.2831C108.525 24.5287 108.311 24.8357 108.127 25.2041C107.943 25.5724 107.851 26.0022 107.851 26.4934C107.851 26.9846 107.943 27.4144 108.127 27.7828C108.311 28.1511 108.525 28.4581 108.801 28.673C109.077 28.9186 109.383 29.0721 109.751 29.1949C110.119 29.3177 110.456 29.3791 110.854 29.3791C111.283 29.3791 111.712 29.287 112.141 29.1335C112.571 28.98 112.908 28.7344 113.183 28.4581L117.014 33.7997C116.279 34.383 115.329 34.8435 114.195 35.2426C113.091 35.7031 111.866 35.8873 110.579 35.8873Z" fill="#00638E"/>
<path d="M125.625 27.6293V35.2426H117.964V10.1616H125.625V24.4673H125.717L129.854 17.8056H138.741L133.103 25.6646L138.711 35.2426H129.793L125.717 27.6293H125.625Z" fill="#00638E"/>
<path d="M152.226 15.1654C151.95 15.104 151.705 15.0733 151.429 15.0733C150.663 15.0733 150.142 15.3189 149.866 15.7793C149.56 16.2398 149.406 16.8231 149.406 17.5292V17.7748H153.084V23.2392H149.406V35.2117H141.745V23.2392H138.772V17.7748H141.745V17.3757C141.745 16.3012 141.868 15.2575 142.113 14.2444C142.358 13.262 142.818 12.3718 143.431 11.6043C144.043 10.8368 144.902 10.2535 145.943 9.79305C146.985 9.36327 148.334 9.11768 149.927 9.11768C150.448 9.11768 151.031 9.14837 151.705 9.24047C152.379 9.33257 152.961 9.45536 153.421 9.60886L152.931 15.3496C152.716 15.3189 152.471 15.2268 152.226 15.1654Z" fill="#00638E"/>
<path d="M173.34 26.4321C173.34 27.9363 173.064 29.2871 172.543 30.4536C171.992 31.6202 171.287 32.6025 170.368 33.4314C169.448 34.2296 168.376 34.8436 167.18 35.2734C165.985 35.7031 164.698 35.918 163.38 35.918C162.063 35.918 160.837 35.7031 159.611 35.2734C158.416 34.8436 157.343 34.2296 156.455 33.4314C155.535 32.6332 154.83 31.6202 154.279 30.4536C153.727 29.2871 153.482 27.9363 153.482 26.4321C153.482 24.9585 153.758 23.6385 154.279 22.4719C154.83 21.3054 155.535 20.323 156.455 19.5248C157.374 18.7266 158.416 18.1127 159.611 17.7136C160.806 17.3145 162.063 17.0996 163.38 17.0996C164.698 17.0996 165.985 17.3145 167.18 17.7136C168.376 18.1127 169.448 18.7266 170.368 19.5248C171.287 20.323 172.022 21.3054 172.543 22.4719C173.064 23.6385 173.34 24.9585 173.34 26.4321ZM163.35 23.5771C162.522 23.5771 161.817 23.8534 161.327 24.4366C160.806 25.0199 160.561 25.6953 160.561 26.4628C160.561 27.2916 160.837 27.967 161.358 28.5503C161.879 29.1336 162.584 29.4099 163.411 29.4099C164.238 29.4099 164.943 29.1336 165.464 28.5503C165.985 27.967 166.261 27.2916 166.261 26.4628C166.261 25.6953 165.985 25.0199 165.464 24.4366C164.882 23.8841 164.208 23.5771 163.35 23.5771Z" fill="#00638E"/>
<path d="M174.965 17.7749H182.411V19.709H182.473C182.902 19.0643 183.576 18.5117 184.434 18.0205C185.292 17.56 186.303 17.3145 187.437 17.3145C188.663 17.3145 189.644 17.5293 190.471 17.9898C191.268 18.4196 191.912 19.0029 192.402 19.709C192.862 20.415 193.199 21.1825 193.383 22.0421C193.566 22.9017 193.658 23.7612 193.658 24.6208V35.2426H185.997V25.9408C185.997 25.0506 185.844 24.4366 185.568 24.0682C185.292 23.6998 184.863 23.5463 184.311 23.5463C183.79 23.5463 183.392 23.7612 183.055 24.1603C182.749 24.5594 182.565 25.1734 182.565 25.9408V35.2426H174.903V17.7749H174.965Z" fill="#00638E"/>
<path d="M47.4181 0H0.5V47H47.4181V0Z" fill="#00638E"/>
<path d="M22.1972 11.7578H19.2552L5.18896 35.2425H16.9262L22.1972 26.4319V11.7578Z" fill="white"/>
<path d="M28.6632 11.7578H25.7212V26.4319L30.9922 35.2425H42.7294L28.6632 11.7578Z" fill="white"/>
<path d="M192.831 15.4107C192.831 15.0116 192.892 14.6433 193.045 14.2749C193.198 13.9372 193.413 13.6302 193.658 13.3846C193.903 13.139 194.21 12.9241 194.547 12.8013C194.884 12.6478 195.252 12.5864 195.65 12.5864C196.018 12.5864 196.385 12.6478 196.753 12.8013C197.09 12.9548 197.397 13.139 197.642 13.3846C197.887 13.6302 198.102 13.9372 198.255 14.2749C198.408 14.6126 198.469 14.9809 198.469 15.38C198.469 15.7791 198.408 16.1475 198.255 16.5159C198.102 16.8536 197.887 17.1606 197.642 17.4062C197.397 17.6517 197.09 17.8666 196.753 17.9894C196.416 18.1429 196.048 18.2043 195.65 18.2043C195.252 18.2043 194.884 18.1429 194.547 17.9894C194.21 17.8359 193.903 17.6517 193.658 17.4062C193.413 17.1606 193.198 16.8536 193.045 16.5159C192.923 16.1782 192.831 15.8098 192.831 15.4107ZM193.29 15.4107C193.29 15.7484 193.352 16.0554 193.474 16.3624C193.597 16.6387 193.781 16.915 193.995 17.1299C194.21 17.3448 194.455 17.4982 194.761 17.621C195.037 17.7438 195.344 17.8052 195.681 17.8052C196.018 17.8052 196.324 17.7438 196.6 17.621C196.876 17.4982 197.152 17.3141 197.366 17.0992C197.581 16.8843 197.764 16.6387 197.887 16.3317C198.01 16.0247 198.071 15.7177 198.071 15.38C198.071 15.0423 198.01 14.7353 197.887 14.4284C197.764 14.1214 197.581 13.8758 197.366 13.6609C197.152 13.446 196.906 13.2925 196.6 13.1697C196.324 13.0469 196.018 12.9855 195.681 12.9855C195.344 12.9855 195.037 13.0469 194.761 13.1697C194.485 13.2925 194.21 13.4767 193.995 13.6609C193.781 13.8758 193.597 14.1214 193.474 14.4284C193.352 14.766 193.29 15.073 193.29 15.4107ZM194.608 13.7837H195.803C196.202 13.7837 196.477 13.8451 196.661 13.9986C196.845 14.1521 196.937 14.3977 196.937 14.7046C196.937 15.0116 196.845 15.1958 196.692 15.3493C196.539 15.4721 196.324 15.5642 196.079 15.5949L197.029 17.0378H196.539L195.65 15.6563H195.068V17.0378H194.608V13.7837ZM195.068 15.2572H195.619C195.742 15.2572 195.834 15.2572 195.956 15.2572C196.048 15.2572 196.171 15.2265 196.232 15.1958C196.324 15.1651 196.385 15.1037 196.416 15.0423C196.477 14.9809 196.477 14.8581 196.477 14.7353C196.477 14.6126 196.447 14.5205 196.416 14.4591C196.385 14.3977 196.324 14.3363 196.232 14.3056C196.171 14.2749 196.079 14.2442 195.987 14.2442C195.895 14.2442 195.803 14.2442 195.742 14.2442H195.037V15.2572H195.068Z" fill="#00638E"/>
</svg>
