<svg width="221" height="62" viewBox="0 0 221 62" fill="none" xmlns="http://www.w3.org/2000/svg">
<path d="M188.306 29.5105C188.306 28.1219 188.306 26.7334 188.306 25.3449C183.591 25.3449 177.26 25.3449 172.541 25.3449V21.1429C172.541 19.4314 174.536 18.5636 176.112 18.5515H189.546C190.345 17.1589 191.139 15.7663 191.942 14.3818C186.68 14.3818 181.386 14.3818 176.112 14.3818C172.557 14.398 168.167 16.3557 168.131 20.1822V34.2049C168.167 38.0314 172.557 39.9851 176.112 40.0053C181.386 40.0053 186.66 40.0053 191.934 40.0053L189.583 35.8356H176.112C174.527 35.8356 172.541 34.9395 172.541 33.2442V29.5105C177.26 29.5105 183.591 29.5105 188.306 29.5105ZM93.4057 55.8403H94.5002L94.6299 54.5406H98.6471V55.8403H99.7456L99.9199 53.4709H99.1051V49.1236H94.6664V49.7896C94.6664 51.3074 94.5002 52.5708 94.0259 53.4709H93.4057V55.8403ZM95.3717 53.4709C95.7041 52.8049 95.9028 51.8926 95.9028 50.9077V50.1893H97.7918V53.4709H95.3717ZM101.014 54.5406H103.99C105.291 54.5406 106.106 53.9835 106.106 53.0713C106.106 52.3044 105.619 51.9048 104.922 51.7191C105.413 51.5132 105.846 51.1661 105.846 50.4799C105.846 49.6484 105.096 49.1236 103.957 49.1236H101.014V54.5406ZM102.308 53.5557V52.1994H103.73C104.436 52.1994 104.772 52.4658 104.772 52.8574C104.772 53.2772 104.436 53.5557 103.795 53.5557H102.308ZM102.308 51.3598V50.0762H103.674C104.261 50.0762 104.509 50.3426 104.509 50.6938C104.509 51.0813 104.209 51.3598 103.653 51.3598H102.308ZM110.046 54.6617C111.1 54.6617 111.85 54.262 112.393 53.6485L111.623 52.9986C111.165 53.4225 110.711 53.6485 110.07 53.6485C109.223 53.6485 108.558 53.1561 108.42 52.2721H112.632C112.64 52.2115 112.652 52.0057 112.652 51.9249C112.652 50.3669 111.728 49.0106 109.908 49.0106C108.266 49.0106 107.107 50.2821 107.107 51.8321C107.107 53.5234 108.388 54.6617 110.046 54.6617ZM108.408 51.4527C108.526 50.6131 109.093 50.0278 109.896 50.0278C110.763 50.0278 111.262 50.6535 111.351 51.4527H108.408ZM113.978 56.1794H115.291V53.6969C115.693 54.2015 116.289 54.6495 117.233 54.6495C118.603 54.6495 119.904 53.6364 119.904 51.8402C119.904 50.0278 118.591 49.0106 117.233 49.0106C116.313 49.0106 115.713 49.4627 115.291 50.0278V49.1236H113.978V56.1794ZM116.929 53.5759C116.041 53.5759 115.259 52.8897 115.259 51.8402C115.259 50.7867 116.041 50.0883 116.929 50.0883C117.821 50.0883 118.571 50.7745 118.571 51.82C118.571 52.9098 117.829 53.5759 116.929 53.5759ZM121.25 54.5406H122.564V52.3528H125.093V54.5406H126.407V49.1236H125.093V51.3195H122.564V49.1236H121.25V54.5406ZM128.056 54.5406H130.675C132.021 54.5406 132.856 53.8503 132.856 52.7322C132.856 51.5536 131.867 51.0208 130.578 51.0208H129.37V49.1236H128.056V54.5406ZM129.37 53.5355V51.9855H130.476C131.153 51.9855 131.542 52.2519 131.542 52.7322C131.542 53.257 131.161 53.5355 130.501 53.5355H129.37ZM133.723 54.5406H135.037V49.1236H133.723V54.5406ZM139.313 54.6617C140.367 54.6617 141.117 54.262 141.66 53.6485L140.89 52.9986C140.432 53.4225 139.978 53.6485 139.338 53.6485C138.49 53.6485 137.826 53.1561 137.688 52.2721H141.9C141.908 52.2115 141.92 52.0057 141.92 51.9249C141.92 50.3669 140.996 49.0106 139.171 49.0106C137.534 49.0106 136.374 50.2821 136.374 51.8321C136.374 53.5234 137.655 54.6617 139.313 54.6617ZM137.676 51.4527C137.793 50.6131 138.361 50.0278 139.163 50.0278C140.031 50.0278 140.529 50.6535 140.619 51.4527H137.676ZM147.729 54.5406H149.054V50.1893H150.899V49.1236H145.884V50.1893H147.729V54.5406ZM154.567 54.6617C155.621 54.6617 156.371 54.262 156.91 53.6485L156.14 52.9986C155.686 53.4225 155.228 53.6485 154.588 53.6485C153.744 53.6485 153.08 53.1561 152.938 52.2721H157.149C157.162 52.2115 157.174 52.0057 157.174 51.9249C157.174 50.3669 156.25 49.0106 154.425 49.0106C152.788 49.0106 151.624 50.2821 151.624 51.8321C151.624 53.5234 152.905 54.6617 154.567 54.6617ZM152.93 51.4527C153.047 50.6131 153.611 50.0278 154.417 50.0278C155.285 50.0278 155.783 50.6535 155.868 51.4527H152.93ZM157.997 54.5406H159.399L160.798 52.6434L162.208 54.5406H163.643L161.527 51.7594L163.554 49.1236H162.156L160.83 50.9077L159.509 49.1236H158.074L160.105 51.7917L157.997 54.5406ZM164.795 54.5406H166.108V52.3528H168.637V54.5406H169.951V49.1236H168.637V51.3195H166.108V49.1236H164.795V54.5406ZM174.325 54.6617C176.096 54.6617 177.397 53.3781 177.397 51.8402C177.397 50.274 176.104 49.0106 174.345 49.0106C172.59 49.0106 171.285 50.2942 171.285 51.8402C171.285 53.4023 172.578 54.6617 174.325 54.6617ZM174.345 53.5839C173.328 53.5839 172.598 52.7847 172.598 51.8402C172.598 50.8795 173.271 50.0964 174.325 50.0964C175.358 50.0964 176.084 50.8876 176.084 51.8402C176.084 52.7968 175.411 53.5839 174.345 53.5839ZM178.691 54.6011C179.959 54.6011 180.742 54.1167 180.742 50.1893H182.533V54.5406H183.847V49.1236H179.513C179.513 53.2449 179.059 53.5557 178.395 53.5557C178.31 53.5557 178.103 53.5355 178.018 53.5113L177.92 54.5285C178.115 54.5607 178.484 54.6011 178.691 54.6011ZM188.221 54.6617C189.992 54.6617 191.293 53.3781 191.293 51.8402C191.293 50.274 190 49.0106 188.241 49.0106C186.482 49.0106 185.18 50.2942 185.18 51.8402C185.18 53.4023 186.474 54.6617 188.221 54.6617ZM188.241 53.5839C187.224 53.5839 186.494 52.7847 186.494 51.8402C186.494 50.8795 187.167 50.0964 188.221 50.0964C189.25 50.0964 189.98 50.8876 189.98 51.8402C189.98 52.7968 189.307 53.5839 188.241 53.5839ZM192.627 54.5406H193.94V50.1893H196.689V49.1236H192.627V54.5406ZM197.731 54.5406H198.967L201.695 50.9279V54.5406H202.964V49.1236H201.727C200.815 50.3346 199.911 51.5455 199.012 52.7524V49.1236H197.731V54.5406ZM204.614 54.5406H205.85L208.574 50.9279V54.5406H209.847V49.1236H208.607C207.694 50.3346 206.795 51.5455 205.895 52.7524V49.1236H204.614V54.5406ZM154.093 40.0053C154.093 32.8527 154.093 25.7001 154.093 18.5515C157.644 18.5515 161.195 18.5515 164.75 18.5515C164.75 17.1589 164.75 15.7704 164.75 14.3818C156.221 14.3818 147.688 14.3818 139.159 14.3818C139.159 15.7704 139.159 17.1589 139.159 18.5515H149.679V40.0053C151.15 40.0053 152.622 40.0053 154.093 40.0053ZM209.45 40.0053C209.45 32.8527 209.45 25.7001 209.45 18.5515C213.005 18.5515 216.556 18.5515 220.107 18.5515C220.107 17.1589 220.107 15.7704 220.107 14.3818C211.578 14.3818 203.049 14.3818 194.516 14.3818C194.516 15.7704 194.516 17.1589 194.516 18.5515H205.035V40.0053C206.507 40.0053 207.978 40.0053 209.45 40.0053ZM135.122 18.5515C135.122 17.1589 135.122 15.7704 135.122 14.3818H118.409C115.089 14.3818 110.423 15.7139 110.423 19.5324V24.368C110.423 25.6153 111.821 26.6769 113.005 26.9594L131.04 31.3269C131.429 31.4238 131.883 31.7265 131.883 32.1463V33.2442C131.883 34.9395 130.002 35.8356 128.409 35.8356C122.414 35.8356 116.418 35.8356 110.423 35.8356C110.423 37.2282 110.423 38.6167 110.423 40.0053H128.409C131.895 39.9851 136.111 38.2454 136.111 34.443V30.1482C136.111 28.901 134.883 27.8152 133.667 27.5205L115.636 23.1854C115.222 23.0885 114.793 22.7696 114.793 22.3337V20.9048C114.793 19.2014 116.917 18.5515 118.409 18.5515C123.978 18.5515 129.552 18.5515 135.122 18.5515ZM103.321 29.5105C103.321 28.1219 103.321 26.7334 103.321 25.3449C98.6065 25.3449 92.2707 25.3449 87.5563 25.3449V21.1429C87.5563 19.4314 89.5466 18.5636 91.1275 18.5515H104.557C105.356 17.1589 106.154 15.7663 106.957 14.3818C101.695 14.3818 96.4014 14.3818 91.1275 14.3818C87.5684 14.398 83.1824 16.3557 83.1418 20.1822V34.2049C83.1824 38.0314 87.5725 39.9851 91.1275 40.0053C96.4014 40.0053 101.675 40.0053 106.949 40.0053L104.598 35.8356H91.1275C89.5426 35.8356 87.5563 34.9395 87.5563 33.2442V29.5105C92.2707 29.5105 98.6065 29.5105 103.321 29.5105Z" fill="#4F4F4E"/>
<path fill-rule="evenodd" clip-rule="evenodd" d="M65.4639 61.3622V0C43.8093 0 22.1546 0 0.5 0C0.5 20.4527 0.5 40.9095 0.5 61.3622C22.1546 61.3622 43.8093 61.3622 65.4639 61.3622ZM16.6781 14.6443H49.2857L44.8956 22.2772H16.6781V14.6443ZM42.6661 26.9676H16.6781V34.6005H42.6661V26.9676ZM16.6781 39.085H44.9808L49.2857 46.718H16.6781V39.085ZM57.3809 7.63294H8.58299V53.7293H57.3809V7.63294Z" fill="url(#paint0_linear_14_332)"/>
<defs>
<linearGradient id="paint0_linear_14_332" x1="81.7225" y1="63.7914" x2="65.7402" y2="-2.86397" gradientUnits="userSpaceOnUse">
<stop stop-color="#096B50"/>
<stop offset="1" stop-color="#38AA3D"/>
</linearGradient>
</defs>
</svg>
