<svg width="197" height="43" viewBox="0 0 197 43" fill="none" xmlns="http://www.w3.org/2000/svg">
<path d="M75.5857 30.3816C75.5857 30.6485 75.4968 30.8116 75.3339 30.9005C75.0228 30.9895 74.7858 31.0636 74.6081 31.1229C73.4972 31.4491 72.4752 31.8643 71.542 32.3833C71.305 32.4871 70.9347 32.7095 70.3867 33.0357C70.0756 33.2136 69.8386 33.3174 69.6609 33.3174C69.4831 33.3174 69.3646 33.2433 69.3054 33.0802C69.2313 32.9171 69.2017 32.6798 69.2017 32.3388L69.3646 30.7671C69.3646 30.4557 69.3646 30.2185 69.3646 30.085C69.3646 29.8033 69.2461 29.655 69.024 29.655C68.7722 29.655 68.4611 29.8329 68.0908 30.174C66.817 31.2712 65.869 31.9681 65.2765 32.2943C64.0471 32.9764 62.714 33.3322 61.2773 33.3322C58.6852 33.3322 56.7744 32.4129 55.5302 30.604C54.5971 29.2102 54.1231 27.5643 54.1231 25.696L54.3749 15.0202C54.3749 13.8785 54.1675 13.1074 53.7379 12.7071C53.4269 12.4254 52.864 12.2771 52.079 12.2771L51.4421 12.2326C51.1014 12.2326 50.9385 12.0547 50.9385 11.684C50.9385 11.4022 51.057 11.2243 51.294 11.1502C51.531 11.076 51.8568 11.0464 52.2567 11.0464H54.8637H57.1595C57.5298 11.0464 57.752 11.1057 57.8409 11.2243C57.9298 11.3429 57.9742 11.684 57.9742 12.2474V13.7005L57.7224 25.014C57.7224 27.5495 58.463 29.2843 59.9294 30.2333C60.7885 30.7819 61.8846 31.0488 63.2028 31.0488C64.6544 31.0488 65.8246 30.7819 66.7429 30.2333C68.2241 29.3436 68.9647 27.8164 68.9647 25.6219V15.035C68.9647 13.8043 68.7129 13.0036 68.2389 12.6329C67.9575 12.4105 67.4243 12.2919 66.6688 12.2919L66.0319 12.2474C65.6913 12.2474 65.5283 12.0695 65.5283 11.6988C65.5283 11.4171 65.6468 11.2391 65.8838 11.165C66.1208 11.0909 66.4467 11.0612 66.8466 11.0612H69.4387H71.7346C72.1049 11.0612 72.327 11.1205 72.4159 11.2391C72.5048 11.3578 72.5492 11.6543 72.5492 12.1288V13.7005V27.9054C72.5492 28.2464 72.5492 28.5874 72.5492 28.9285C72.6677 29.6105 73.0825 29.9516 73.8231 29.9516H75.008C75.3783 29.9071 75.5857 30.0702 75.5857 30.3816Z" fill="#0D1677"/>
<path d="M108.513 4.58168C108.513 5.35271 108.32 5.94581 107.935 6.34616C107.55 6.76133 107.032 6.96892 106.38 6.96892C105.669 6.96892 105.136 6.71685 104.766 6.19788C104.395 5.67892 104.218 5.08581 104.218 4.40374C104.218 3.78099 104.41 3.23237 104.766 2.78754C105.136 2.32788 105.654 2.10547 106.336 2.10547C106.987 2.10547 107.506 2.32788 107.906 2.78754C108.306 3.24719 108.513 3.85512 108.513 4.58168Z" fill="#0D1677"/>
<path d="M111.505 31.3307C111.357 31.2417 111.046 31.1824 110.587 31.1824C109.535 31.1824 108.854 30.9007 108.543 30.3372C108.38 30.0259 108.291 29.3883 108.291 28.4541V11.8917C108.291 11.5952 108.291 11.2245 108.291 10.7352C108.291 10.2755 108.128 10.0531 107.787 10.0531C107.609 10.0531 107.417 10.1569 107.15 10.3496C106.395 11.1207 105.862 11.61 105.551 11.8472C104.869 12.3365 103.744 12.9148 102.144 13.5969C101.788 13.7748 101.596 13.9676 101.596 14.19C101.596 14.4717 101.774 14.62 102.144 14.62H102.603C103.373 14.62 103.906 14.7386 104.218 14.9759C104.529 15.2131 104.692 15.8655 104.692 16.9183V28.4541C104.692 29.67 104.455 30.4707 103.966 30.8414C103.684 31.0638 102.618 31.2121 101.418 31.2121C100.307 31.2121 98.7074 30.96 98.426 30.5003C98.1594 30.0555 98.0261 29.3586 98.0261 28.4245V18.3862C98.0261 15.0055 96.9596 12.6183 94.8267 11.2245C93.6121 10.4238 92.1013 10.0234 90.309 10.0234C89.0056 10.0234 87.7614 10.3348 86.606 10.9427C85.9247 11.2986 85.2137 11.8027 84.4731 12.47C83.2733 13.5376 82.666 14.0862 82.6364 14.0862C82.4142 14.0862 82.2957 13.8934 82.2957 13.4931V11.8769L82.429 10.3496C82.429 10.1569 82.2957 10.0531 82.0439 10.0531C81.8514 10.0531 81.644 10.1569 81.4366 10.3496C80.6071 11.18 80.1332 11.6248 80.0147 11.7138C79.2889 12.2476 78.0595 12.8703 76.3117 13.5821C75.9265 13.76 75.7488 13.9527 75.7488 14.1752C75.7488 14.4569 75.9265 14.6052 76.2968 14.6052H76.7708C77.5411 14.6052 78.0743 14.7238 78.3853 14.961C78.6964 15.1983 78.8593 15.8507 78.8593 16.9034V28.4393C78.8593 29.6552 78.6223 30.4559 78.1335 30.8265C77.8521 31.049 77.3189 31.1676 76.5486 31.1676H75.9117C75.5711 31.1676 75.3933 31.3455 75.3933 31.7162C75.3933 32.0276 75.497 32.2203 75.6895 32.2648C75.8821 32.3241 76.2228 32.3538 76.7116 32.3538C76.8005 32.3538 77.3633 32.3241 78.4002 32.2648C79.437 32.2055 80.1776 32.1759 80.6368 32.1759C80.7256 32.1759 81.2885 32.2055 82.3402 32.2648C83.3918 32.3241 84.1324 32.3538 84.5471 32.3538C84.9471 32.3538 85.2581 32.3241 85.5099 32.25C85.7914 32.2055 85.9099 32.0276 85.9099 31.7459C85.9099 31.3752 85.7321 31.1972 85.3914 31.1972H84.7545C83.9843 31.1972 83.4659 31.0786 83.1844 30.8562C82.6956 30.4855 82.4586 29.6848 82.4586 28.4541V17.3038C82.4586 15.8359 83.2141 14.5903 84.7101 13.5672C86.0135 12.6776 87.3911 12.2327 88.8426 12.2327C91.3162 12.2327 92.9752 13.1965 93.8195 15.1093C94.249 16.0583 94.4564 17.3483 94.4564 19.009V28.4541C94.4564 29.4476 94.3379 30.1296 94.1157 30.4707C93.8047 30.96 93.1529 31.1972 92.1605 31.1972C91.8199 31.1972 91.5384 31.2269 91.3311 31.301C91.1237 31.3752 91.02 31.5234 91.02 31.7755C91.02 32.0869 91.1237 32.2648 91.3162 32.3093C91.5088 32.3686 91.8495 32.3983 92.3383 32.3983C92.4271 32.3983 92.99 32.3686 94.0268 32.3093C95.0637 32.25 95.8043 32.2203 96.2635 32.2203C97.6262 32.2352 100.692 32.4131 101.551 32.4279C102.647 32.4427 105.402 32.2203 106.513 32.2203C106.602 32.2203 107.165 32.25 108.217 32.3093C109.268 32.3686 110.009 32.3983 110.424 32.3983C110.824 32.3983 111.15 32.3686 111.387 32.2945C111.638 32.2203 111.742 32.0424 111.742 31.7755C111.742 31.5827 111.668 31.4345 111.505 31.3307Z" fill="#0D1677"/>
<path d="M133.456 13.1374C131.516 11.1357 128.968 10.1274 125.813 10.1274C124.732 10.1274 123.769 10.2609 122.94 10.5278C122.11 10.7947 121.251 11.2692 120.363 11.9512C119.77 12.4109 119.237 12.8261 118.793 13.2264C118.511 13.4785 118.304 13.6119 118.2 13.6119C118.082 13.6119 117.993 13.4785 117.904 13.2264V11.1061C117.904 10.854 117.904 10.5129 117.904 10.0829C117.904 9.62329 117.77 9.40088 117.519 9.40088C117.4 9.40088 117.267 9.44536 117.074 9.53433C116.897 9.62329 116.526 9.81605 115.993 10.1274C115.312 10.4685 114.675 10.7354 114.053 10.9429C113.801 11.0319 113.223 11.1654 112.349 11.3729C111.816 11.4916 111.549 11.714 111.549 12.055C111.549 12.2774 111.638 12.4109 111.801 12.4554C111.979 12.4998 112.186 12.5147 112.438 12.5147H113.164C113.594 12.5147 113.89 12.6629 114.053 12.9447C114.216 13.2264 114.304 13.8492 114.304 14.8278V38.9967C114.304 39.8123 114.201 40.4202 114.008 40.7909C113.668 41.4136 112.986 41.725 111.964 41.725C111.224 41.725 110.853 41.9178 110.853 42.2736C110.853 42.5257 110.927 42.7185 111.061 42.8223C111.209 42.9409 111.579 42.9854 112.216 42.9854C112.69 42.9854 113.401 42.9557 114.349 42.8964C115.282 42.8371 115.993 42.8074 116.482 42.8074C116.571 42.8074 117.193 42.8371 118.363 42.8964C119.533 42.9705 120.363 43.0002 120.837 43.0002C121.74 43.0002 122.199 42.7629 122.199 42.2736C122.199 41.9919 122.022 41.8288 121.651 41.7843C121.281 41.7398 120.733 41.6954 119.992 41.6361C119.252 41.5767 118.689 41.2654 118.289 40.7019C118.037 40.3312 117.904 39.7678 117.904 38.9967V32.7247C117.904 32.2502 118.007 31.9981 118.2 31.9981C118.348 31.9981 118.496 32.0426 118.674 32.1316C119.474 32.4726 120.333 32.7543 121.251 32.9619C122.17 33.1695 123.207 33.2881 124.332 33.2881C127.887 33.2881 130.775 32.1464 133.027 29.8778C135.263 27.6092 136.389 24.614 136.389 20.9219C136.374 17.734 135.412 15.1392 133.456 13.1374ZM130.213 29.2698C128.613 31.0936 126.628 31.9981 124.243 31.9981C121.518 31.9981 119.666 31.2419 118.704 29.7443C118.156 28.914 117.889 27.7129 117.889 26.1264V17.2002C117.889 15.6433 118.63 14.3829 120.111 13.4488C121.355 12.6481 122.777 12.2626 124.362 12.2626C126.569 12.2626 128.45 13.0633 129.976 14.6498C131.709 16.444 132.568 18.8757 132.568 21.945C132.597 25.0143 131.797 27.4461 130.213 29.2698Z" fill="#0D1677"/>
<path d="M152.757 13.1226C152.757 13.6564 152.564 14.116 152.164 14.4867C151.764 14.8574 151.29 15.0354 150.713 15.0354C150.372 15.0354 150.076 14.9612 149.839 14.7981C149.602 14.635 149.35 14.4423 149.113 14.205C148.876 13.9678 148.668 13.7305 148.491 13.5081C148.239 13.2857 147.913 13.1671 147.513 13.1671C146.743 13.1671 146.017 13.6712 145.306 14.7092C144.462 15.9398 144.032 17.3781 144.032 19.0685V28.4692C144.032 29.6554 144.447 30.4709 145.262 30.8564C145.736 31.0788 146.521 31.1974 147.602 31.1974H148.239C148.58 31.1974 148.757 31.3754 148.757 31.746C148.757 32.0278 148.639 32.2057 148.402 32.2798C148.165 32.354 147.839 32.3836 147.439 32.3836C146.698 32.3836 146.091 32.3688 145.602 32.3391C143.692 32.2205 142.655 32.1612 142.447 32.1612C141.885 32.1612 141.1 32.1909 140.107 32.265C139.115 32.3392 138.522 32.3688 138.315 32.3688C137.826 32.3688 137.5 32.3392 137.293 32.2798C137.1 32.2354 136.997 32.0574 136.997 31.746C136.997 31.494 137.1 31.3457 137.308 31.2716C137.515 31.2123 137.796 31.1678 138.137 31.1678C139.13 31.1678 139.781 30.9305 140.092 30.4412C140.314 30.1002 140.433 29.4329 140.433 28.4395V16.7257C140.433 15.6729 140.285 15.0205 139.959 14.7833C139.648 14.546 139.1 14.4126 138.344 14.4126H137.9C137.53 14.4126 137.352 14.2643 137.352 13.9826C137.352 13.7602 137.53 13.5526 137.9 13.3895C139.144 12.8409 140.181 12.2478 141.04 11.5954C141.396 11.3136 141.929 10.8243 142.61 10.1423C142.803 9.9495 143.01 9.8457 143.203 9.8457C143.544 9.8457 143.721 10.0681 143.721 10.5278C143.721 11.0023 143.721 11.3878 143.721 11.6843V14.1902C143.721 14.3385 143.721 14.4423 143.721 14.5164C143.721 14.5905 143.736 14.635 143.766 14.6647C143.988 14.6647 144.136 14.6202 144.195 14.5312C145.336 13.1078 146.21 12.1292 146.832 11.5954C147.795 10.7947 148.817 10.3943 149.898 10.3943C150.861 10.3943 151.586 10.6612 152.06 11.1802C152.52 11.7436 152.757 12.3812 152.757 13.1226Z" fill="#0D1677"/>
<path d="M172.412 14.0123C170.146 11.4323 167.139 10.1274 163.391 10.1274C159.644 10.1274 156.637 11.4174 154.356 14.0123C152.371 16.2512 151.379 18.8312 151.379 21.7226C151.379 24.5992 152.371 27.1495 154.356 29.4033C156.622 31.9833 159.644 33.2733 163.391 33.2733C167.109 33.2733 170.116 31.9685 172.412 29.3588C174.397 27.1199 175.389 24.5695 175.389 21.7226C175.389 18.8312 174.397 16.2512 172.412 14.0123ZM169.094 29.4033C167.554 31.1381 165.628 31.9981 163.303 31.9981C160.696 31.9981 158.637 30.9009 157.126 28.7212C155.823 26.8085 155.171 24.4657 155.171 21.6781C155.171 18.8609 155.837 16.5033 157.17 14.6054C158.681 12.4702 160.725 11.4026 163.303 11.4026C166.028 11.4026 168.146 12.485 169.657 14.6499C170.96 16.5181 171.612 18.8757 171.612 21.6781C171.612 24.9254 170.768 27.4905 169.094 29.4033Z" fill="#0D1677"/>
<path d="M196.793 29.0621C196.793 29.2845 196.63 29.5959 196.274 29.9666C195.474 30.8711 194.482 31.6124 193.297 32.1759C191.771 32.9173 190.083 33.288 188.276 33.288C185.017 33.288 182.307 32.2648 180.188 30.2186C178.055 28.1724 176.989 25.6369 176.989 22.5973C176.989 19.2759 178.189 16.3697 180.588 13.8786C182.988 11.4024 185.995 10.1421 189.638 10.1421C190.779 10.1421 191.949 10.2904 193.149 10.5869C194.349 10.8835 195.326 11.3283 196.067 11.9362C196.289 12.1438 196.437 12.2921 196.496 12.4107C196.556 12.5145 196.571 12.7666 196.541 13.1373L196.334 15.5245C196.334 15.8062 196.304 16.0731 196.245 16.3104C196.185 16.5476 195.993 16.6662 195.652 16.6662C195.341 16.6662 195.06 16.5031 194.793 16.1917C194.734 16.1028 194.526 15.7766 194.156 15.2131C193.356 13.9676 192.719 13.1076 192.245 12.648C191.371 11.8176 190.305 11.4173 189.046 11.4173C186.972 11.4173 185.121 12.3366 183.477 14.19C181.684 16.1769 180.796 18.6235 180.796 21.5297C180.796 24.599 181.803 27.0455 183.817 28.8545C185.61 30.4707 187.713 31.2862 190.127 31.2862C191.46 31.2862 192.675 31.0193 193.741 30.4707C194.23 30.2483 194.897 29.7738 195.741 29.0621C196.052 28.81 196.289 28.6766 196.467 28.6766C196.674 28.6766 196.793 28.81 196.793 29.0621Z" fill="#0D1677"/>
<path d="M21.3738 0C9.58338 0 0 9.59345 0 21.3814C0 33.1693 9.58338 42.7628 21.3738 42.7628C33.1493 42.7628 42.7327 33.1693 42.7327 21.3814C42.7327 9.59345 33.1493 0 21.3738 0ZM31.1941 19.1128L18.8705 40.3903C18.1744 40.3014 17.4634 40.1679 16.7524 39.9752L28.8835 19.1128H31.1941ZM28.602 14.5903L14.3677 39.2041C8.72429 36.9652 4.44361 32.161 2.88835 26.2893L9.68707 14.5755H28.602V14.5903ZM38.5113 20.6252H33.2382L35.5489 16.6217H30.2314L32.7346 12.2772H8.17624L2.25143 22.5528C2.2218 22.1524 2.20699 21.7669 2.20699 21.3814C2.2218 10.8241 10.8128 2.22414 21.3738 2.22414C31.9347 2.22414 40.5257 10.8241 40.5257 21.3962C40.5257 29.5217 35.2526 36.8614 27.6244 39.5155L38.5113 20.6252ZM31.7866 22.9383H34.1121L24.2029 40.3162C23.3289 40.4497 22.5291 40.5238 21.7737 40.5386L31.7866 22.9383Z" fill="#0D1677"/>
</svg>
